<?xml version="1.0" encoding="UTF-8" standalone="no"?>
<!-- Created with the Eggbot TSP art toolkit (http://egg-bot.com) -->

<svg xmlns="http://www.w3.org/2000/svg"
     xmlns:inkscape="http://www.inkscape.org/namespaces/inkscape"
     xmlns:sodipodi="http://sodipodi.sourceforge.net/DTD/sodipodi-0.dtd"
     xmlns:rdf="http://www.w3.org/1999/02/22-rdf-syntax-ns#"
     xmlns:dc="http://purl.org/dc/elements/1.1/"
     xmlns:cc="http://creativecommons.org/ns#"
     height="800"
     width="3200">
  <sodipodi:namedview
            showgrid="false"
            showborder="true"
            inkscape:showpageshadow="false"/>
  <metadata>
    <rdf:RDF>
      <cc:Work rdf:about="">
        <dc:format>image/svg+xml</dc:format>
        <dc:type rdf:resource="http://purl.org/dc/dcmitype/StillImage" />
        <dc:subject>
          <rdf:Bag>
            <rdf:li>Egg-Bot</rdf:li>
            <rdf:li>Eggbot</rdf:li>
            <rdf:li>TSP</rdf:li>
            <rdf:li>TSP art</rdf:li>
          </rdf:Bag>
        </dc:subject>
        <dc:description>TSP art created with the Eggbot TSP art toolkit (http://egg-bot.com)</dc:description>
      </cc:Work>
    </rdf:RDF>
  </metadata>
  <g      transform="translate(1400, 544) scale(1, -1)">
    <path style="fill:none;stroke:#000000;stroke-width:1"
          d="m 184,287 2,0 2,0 1,-2 1,2 1,-1 0,-2 -1,-2 -1,-2 1,-1 2,0 1,2 0,2 0,1 0,2 2,-1 0,-2 1,-1 1,2 1,-2 1,-1 1,-1 1,-1 -1,-1 2,-1 -1,-1 1,-1 2,1 0,-2 0,-1 2,-1 -1,-2 -2,-1 0,2 0,1 -2,1 -1,1 -1,2 -2,1 1,2 -1,1 -2,0 -1,-2 1,-2 0,-2 2,0 -1,-2 1,-1 1,-2 1,2 2,-1 0,-2 -1,-2 -2,1 -1,-2 2,-1 1,-2 2,-1 -1,-1 1,-1 -1,-2 -2,-1 1,-1 1,-2 1,-2 -1,-2 -1,1 -1,2 -2,0 0,2 0,2 1,2 0,2 -1,2 -1,-2 -2,1 -2,-1 2,-1 1,-1 0,-1 -2,-1 2,-1 0,-2 -1,-1 1,-1 2,-1 -2,-1 2,-1 2,-1 0,-2 -2,1 -2,1 0,-2 2,-1 1,-1 -2,-1 1,-1 0,-2 -2,-1 1,-1 0,-2 0,-2 0,-1 -1,-2 2,0 2,1 0,2 0,2 -1,2 2,0 0,2 0,2 1,2 1,2 0,2 2,0 0,2 1,2 1,2 -2,0 -1,2 1,2 2,-1 1,2 -2,1 0,2 0,2 -1,1 -2,0 1,2 2,1 0,1 1,1 2,-1 -1,-2 0,-1 2,-1 -2,-1 2,-1 -2,-1 1,-1 2,0 -1,-2 1,-1 -2,-1 0,-1 2,0 1,-1 0,-2 -2,1 -1,-1 1,-1 1,-1 2,0 -1,-2 1,-1 2,-1 -2,-1 2,-1 0,-2 2,1 1,2 -1,1 2,1 2,-1 -1,-2 0,-2 1,-2 0,-2 0,-2 2,-1 1,2 -1,2 0,2 0,2 -1,1 1,2 2,-1 1,-1 0,-1 2,0 1,-1 1,-1 -2,-1 -2,1 -1,-2 2,-1 2,-1 1,2 2,1 0,-2 0,-1 2,-1 -1,-2 -2,1 -1,-1 -2,1 -2,1 -1,-2 -1,-2 -1,-2 -1,1 0,2 -2,1 0,-1 -2,-1 0,-2 2,1 0,-2 -1,-2 2,-1 1,2 2,0 1,1 2,-1 1,2 -2,1 1,2 2,-1 2,0 2,0 0,-2 -2,0 0,-1 2,-1 -2,-1 -2,0 -1,-1 1,-1 2,0 -1,-2 -2,0 0,-2 -1,-2 -1,2 -1,-2 1,-1 1,-1 1,-2 1,2 1,-2 1,-1 1,-1 2,-1 1,2 2,-1 1,-1 2,0 0,-2 -2,0 0,-2 -1,-2 2,-1 2,0 2,-1 1,2 -2,1 -1,1 1,2 1,-1 2,-1 1,-2 0,-2 1,-1 -1,-2 2,0 0,-2 0,-1 0,-1 1,-1 -1,-2 0,-1 -1,-1 1,-1 0,-2 -2,0 -1,1 -2,1 0,2 2,0 1,2 -1,2 1,2 -2,1 0,2 -2,0 -2,1 -1,-2 2,-1 -1,-2 2,0 1,-1 0,-2 -2,0 -1,-1 1,-2 -1,-2 2,-1 -1,-2 2,-1 1,2 2,-1 -1,-1 0,-2 -2,0 -1,-2 -2,1 0,1 -1,-3 -1,-2 -3,-3 0,-2 0,-2 -1,-2 1,-1 -1,-1 -2,1 -1,-2 2,-1 2,0 0,-1 0,-2 0,-2 0,-2 -1,-2 -1,2 -1,1 1,1 0,2 -1,1 -2,1 -1,-2 1,-2 -1,-2 1,-2 2,0 0,-2 -1,-1 -1,1 -2,0 -1,-1 1,-1 1,-1 2,-8 2,0 2,0 1,-1 2,1 2,-1 -2,-1 1,-1 -1,-1 0,-1 0,-2 -2,0 0,-2 2,0 2,1 1,1 -1,1 2,1 -1,1 1,1 0,1 2,-1 1,-1 0,-1 2,0 2,-1 0,-2 0,-1 -1,-2 2,0 1,2 1,-2 1,-2 -2,0 -1,-1 -1,1 -2,0 -1,2 -1,1 1,1 1,2 -2,0 -2,0 1,-2 -2,0 -2,-1 0,-1 2,0 1,-1 0,-1 2,0 1,-1 1,-1 1,-1 0,-1 -1,-2 -1,1 -1,1 -1,1 -1,-2"/>
    <path style="fill:none;stroke:#000000;stroke-width:1"
          d="m 242,126 0,-1 2,-1 1,-1 -2,-1 1,-1 -2,-1 1,-1 -1,-2 2,0 0,-2 1,-1 1,2 1,1 -1,1 -1,1 1,2 2,-1 0,-1 1,-2 1,2 0,2 -1,2 -1,-1 -1,1 1,2 2,0 -1,2 1,2 2,0 1,-1 -2,-1 1,-1 1,-1 -1,-1 0,-1 2,0 0,-2 -2,0 0,-2 2,0 -1,-2 -2,0 0,-1 1,-1 -2,-2 0,1 -2,1 -1,-1 0,-1 1,-1 0,-2 -2,1 -1,-2 -2,-1 0,2 1,1 0,1 -2,1 0,2 -2,0 -2,1 2,1 -1,1 1,1 -2,1 0,2 2,-1 0,1 1,1 -1,1 -2,0 1,2 1,1 0,1 2,1 -2,1 -1,1 -2,-1 1,-1 -2,-1 1,-1 -1,-1 0,-1 -1,-1 1,-1 0,-2 -2,1 0,-2 0,-1 2,0 1,-1 -1,-2 0,-2 0,-2 2,1 0,1 2,-1 1,-1 0,-1 0,-2 -1,-1 -1,1 -1,2 -1,-1 0,-1 -1,-1 -1,2 -1,1 -2,-1 1,2 1,1 0,2 -1,1 1,1 -2,1 -1,1 1,2 -1,1 1,1 -1,1 -2,0 0,2 0,2 2,0 1,-1 -1,-1 2,-1 1,2 0,2 0,1 1,1 2,1 -1,1 -2,0 -1,-1 -1,2 1,1 0,1 0,2 1,1 -1,1 2,1 -2,1 -2,0 0,-2 0,-1 0,-2 -2,-1 1,-1 -1,-1 0,-1 2,-1 1,-2 -2,0 -1,1 -2,-1 0,-1 -1,-1 1,-1 -2,-1 2,-1 -1,-1 1,-1 2,-1 0,-2 0,-1 -1,-1 1,-1 2,-1 1,-2 -1,-2 -1,1 0,1 -1,1 -1,1 -2,0 0,3 0,1 1,1 -2,1 -1,-2 -1,2 1,2 -2,1 0,1 1,1 1,2 -1,-1 -1,1 -1,1 2,1 -1,1 -1,1 -1,1 1,1 1,2 1,-1 0,-2 1,-1 1,-2 2,1 -1,1 1,2 -2,0 0,2 0,1 2,-1 2,1 -1,1 -1,1 2,1 0,1 -1,2 -1,-2 -1,1 -2,-1 0,-1 1,-1 -2,-1 -2,1 0,-1 -1,-2 -1,-1 -1,2 1,2 -2,1 -1,1 1,1 -2,1 0,2 -2,1 -1,1 -1,1 -2,0 -2,0 -1,3 2,0 1,1 2,2 1,-1 1,-1 2,-1 2,-2 1,1 -1,1 -1,2 -1,2 -1,-1 -1,1 2,2 2,0 0,-2 2,0 0,-2 1,-1 1,-1 0,-1 2,-1 2,1 -1,1 -1,1 1,2 -2,0 -1,2 -2,1 -1,2 2,0 0,2 2,0 1,-1 -1,-1 1,-1 1,-2 2,0 0,2 0,2 0,2 -2,0 -1,1 2,1 0,1 2,-1 1,2 -1,1 1,2 1,-1 1,3 1,-1 1,1 0,2 0,2 2,2 1,1 -1,1 2,1 -2,1 2,1 -1,3 2,-1 0,1 1,1 -1,1 -1,1 1,2 0,1 -1,1 1,2 0,1 -2,0 1,2 1,1 -1,2 -1,-1 -1,2 2,1 -1,1 -1,1 0,2 -1,1 1,1 0,2 -2,-1 -2,1 -1,1 -2,1 -2,0 -1,2 -1,-1 -2,1 -1,-1 -2,1 -1,-1 -2,1 0,1 -1,2 0,2 1,2 2,-2 0,-2 1,-1 2,0 2,0 0,2 -2,1 2,1 0,1 2,1 0,1 0,2 -2,0 0,-2 -2,0 -1,-2 -2,1 -2,1 2,1 -1,2 -2,0 0,2 0,2 1,2 -1,1 -1,1 -1,2 2,0 2,-1 1,-1 1,2 -1,1 1,2 -2,1 -1,-2 -2,0 0,1 -2,0 1,2 -1,1 -1,2 -1,1 0,2 -2,1 -1,-2 0,-2 -2,-1 -1,-2 0,-2 1,-1 -1,-2 -1,-2 -1,-2 1,-2 2,0 0,-2 2,0 -1,-2 0,-2 1,-1 1,-1 -1,-2 -1,-2 2,-1"/>
    <path style="fill:none;stroke:#000000;stroke-width:1"
          d="m 207,218 1,2 1,1 0,2 -1,2 0,2 1,2 0,2 -2,0 0,2 -1,1 -2,0 1,2 1,2 0,3 -1,1 3,1 1,-2 -1,-1 1,-2 -1,-2 2,0 0,-2 1,-1 1,-2 -1,-2 0,-2 0,-2 2,0 -1,-2 0,-2 -1,-2 -1,-1 1,-1 2,-1 0,-2 -2,0 -1,1 -2,0 -1,-1 -1,2 -1,-2 -2,-1 0,2 1,2 -1,2 0,2 1,2 -1,2 -1,-2 -2,0 -1,1 0,2 2,-1 1,2 -1,2 -2,-1 -2,0 -2,0 1,-2 0,-1 1,-1 0,-2 1,-1 2,0 0,-2 1,-2 -2,0 1,-2 1,-2 -1,-1 -2,1 0,-2 -2,1 -1,-2 1,-1 -3,-1 -1,1 1,2 0,2 1,2 2,-1 1,1 -1,2 1,2 -2,0 -1,2 1,2 -1,1 -2,0 0,-1 -2,1 -2,0 0,-1 1,-1 2,-1 1,-2 1,-2 -2,0 0,-2 0,-2 -1,-2 -1,-2 -2,0 0,-2 3,0 1,-1 -2,-1 -2,0 1,-2 -1,-1 -1,-2 -2,1 -1,2 2,0 -1,2 0,2 0,2 -2,-1 -1,2 0,2 0,2 -2,1 3,1 1,2 1,2 2,-2 -1,-2 1,-1 -2,-1 0,-2 1,-1 2,0 1,2 0,2 1,2 0,2 -1,1 -2,1 -1,1 0,1 -2,0 -1,-2 -2,1 0,-1 1,-2 -1,-2 -2,1 0,2 -2,0 0,-2 0,-2 -1,-2 -2,1 0,1 1,2 -2,1 -1,-2 -2,1 1,1 1,2 -1,2 -1,2 -2,-2 1,-2 -1,-1 -2,1 -1,2 1,2 2,0 0,2 -1,1 -1,1 -1,1 -1,1 -1,1 5,4 1,-1 2,0 1,2 -2,0 -1,1 -1,1 0,2 2,0 1,-1 1,1 0,-2 2,0 0,2 0,2 -2,0 -2,0 1,2 2,0 2,0 0,2 -2,0 -2,0 -1,1 -1,-2 0,-1 -1,-2 -1,1 0,2 0,2 1,1 -1,1 1,1 0,2 0,1 2,1 1,-1 1,-2 -2,0 0,-2 2,0 1,-1 2,0 -1,2 0,2 -1,1 0,2 -1,1 -2,0 0,1 -2,0 0,-2 -2,0 0,-2 0,-2 -1,-2 -1,-2 1,-1 0,-2 0,-2 1,-2 -1,-1 1,-1 0,-2 -4,-3 -1,-2 -1,-2 2,-1 0,-2 2,0 -1,-2 0,-2 0,-2 0,-2 2,0 2,-1 1,-2 2,-1 -1,-2 -2,0 -1,1 -2,0 1,2 -2,1 -1,-2 -2,0 0,2 0,2 -2,1 2,1 -2,1 2,1 0,2 -2,0 1,2 -1,1 -2,1 -1,-2 1,-2 0,-2 -1,-2 0,-2 2,-1 -1,-2 2,-1 -1,-2 -2,1 -2,1 1,2 -3,0 1,2 1,2 0,2 0,2 0,2 -1,1 -2,1 -1,-2 1,-2 1,-2 -1,-2 -1,-2 -1,-2 -2,1 0,2 2,1 0,2 -1,2 -1,1 -1,-2 0,-2 -1,-2 -2,1 0,1 0,2 -1,2 2,0 -1,2 -1,2 0,2 0,2 1,2 2,0 0,-2 -1,-2 0,-2 2,-2 2,1 -1,1 0,2 1,2 2,-2 1,-1 2,0 2,-1 1,2 -2,1 1,2 2,0 1,-2 1,-2 1,2 1,2 -1,1 -1,1 -2,0 -1,1 -1,1 -1,1 -1,1 -2,1 0,-1 0,-2 2,-1 0,-2 -1,-2 -2,1 0,2 -2,-1 0,2 0,2 0,2 1,1 0,1 0,2 2,-1 1,-1 1,-1 2,0 0,2 -1,1 -1,1 -2,0 -1,1 0,2 1,2 2,-1 -1,-1 1,-1 2,0 1,-1 -1,3 0,2 -2,0 -1,1 2,1 -1,1 -1,1 -2,0 -1,-1 1,-1 -2,-1 1,-1 -1,-1 0,-1 0,-2 -1,-1 0,-1 0,-2 -1,-2 -1,1 -1,-2 1,-2 0,-2 -2,0 -1,2"/>
    <path style="fill:none;stroke:#000000;stroke-width:1"
          d="m 140,240 -2,0 0,-2 0,-2 -1,-2 0,-2 0,-2 1,-2 -2,0 1,-2 1,-2 0,-2 0,-2 1,-1 2,-1 1,-1 2,-1 1,-1 -1,-2 -2,1 -2,1 -1,1 -2,1 -1,-2 -2,1 1,2 0,2 1,2 -2,0 1,2 -1,2 0,2 0,2 1,2 -1,2 -2,-2 -1,2 -1,-2 1,-2 0,-2 -2,0 -1,-2 -2,-1 0,2 0,1 0,2 2,0 -1,2 1,2 1,2 2,0 -1,2 -2,0 1,2 -1,2 -1,2 -2,0 0,-2 1,-2 0,-2 -2,0 1,-2 1,-1 -1,-2 -1,-2 -1,-2 0,-2 -1,-1 2,-1 -1,-1 -2,0 0,-1 2,-1 2,0 1,-1 -1,-2 -1,-2 2,-1 1,2 1,2 1,2 -1,2 2,0 1,2 1,-2 0,-2 -1,-2 1,-1 0,-2 -2,1 -1,-2 1,-1 2,-1 1,-1 2,0 0,-2 2,0 1,2 2,-1 1,-1 0,-2 -1,-2 0,-2 1,-2 0,-2 0,-2 2,0 1,2 -1,2 0,2 0,2 0,2 1,2 2,0 1,2 1,2 2,0 0,-2 2,-1 1,-1 2,0 -1,-2 0,-2 -1,-2 -2,0 1,-2 1,-2 2,0 0,2 1,2 0,2 1,2 2,-1 2,0 -1,2 -2,1 1,2 2,-1 2,-1 0,-2 2,0 1,2 2,-1 -1,-2 0,-1 -1,-2 -2,1 -2,0 1,-2 2,-1 0,-2 -1,-2 0,-2 0,-2 -1,-2 1,-2 -1,-1 -2,1 -1,2 -1,1 -1,2 3,-1 0,2 0,1 -2,0 1,2 2,1 -1,1 -1,2 -1,2 -1,-2 0,-2 -1,-2 -1,-2 -2,1 -1,-2 -1,-2 -1,-2 -2,0 -2,-1 -1,2 1,2 2,-1 1,2 -2,1 1,1 2,0 -1,2 -1,2 -1,2 1,2 2,0 0,2 -2,2 -1,-2 -2,0 0,-2 0,-2 0,-2 1,-2 -1,-1 -1,-2 -1,-2 -2,1 -1,-2 2,-1 1,-2 1,-2 0,-2 0,-2 -2,0 -1,2 1,2 -1,2 -2,1 -2,0 0,2 1,2 -1,2 1,2 -1,2 0,2 -1,2 1,2 -2,-1 -2,0 -2,0 1,2 -2,1 -1,1 -2,1 -2,0 -1,1 -2,1 -2,-1 0,2 1,2 0,2 -2,1 -1,1 -2,1 -1,-2 1,-2 2,0 0,-2 -2,-1 1,-2 1,-2 1,-2 2,2 1,-1 -1,-2 0,-2 -1,-2 -1,-2 -1,2 0,2 -1,1 -2,-2 -2,0 1,2 0,2 2,0 -1,2 0,2 -2,0 0,2 1,2 -1,2 -1,2 -1,2 0,2 -1,2 -1,-2 -2,1 -1,-2 2,-1 -2,-1 -2,0 -1,-1 0,-2 1,-1 -1,-2 -2,0 -1,2 -2,-1 -2,1 0,2 2,0 2,0 1,2 -3,0 0,2 0,2 -2,0 -2,-1 0,-2 1,-1 -1,-2 -1,-2 -1,-2 0,-2 1,-2 0,-2 2,0 1,2 -2,2 1,2 2,-1 1,-1 2,0 -1,-2 -1,-2 -1,-2 -2,0 0,-2 2,-1 -1,-2 1,-2 1,-2 -1,-2 0,-2 2,1 2,-1 1,-1 1,2 0,2 -2,0 -1,1 0,2 -1,2 1,2 1,2 -2,0 1,2 1,1 1,2 1,2 2,-1 1,2 2,1 -2,1 2,1 -1,1 -1,1 2,1 2,0 1,-2 0,-2 -1,-2 0,-2 -2,0 1,-2 2,0 1,-1 -1,-2 0,-2 -2,0 -1,2 -1,1 -1,2 -2,0 0,-2 0,-2 2,-1 0,-2 -2,0 -2,1 0,-2 1,-2 1,-1 2,2 2,0 1,2 2,-1 -1,-2 1,-2 -2,0 -2,1 -1,-2 0,-2 -1,-2 0,-2 0,-2 0,-2 2,-1 2,1 0,2 -2,0 1,2 1,2 -1,1 1,2 2,-1 1,-2 -1,-2 1,-2 -1,-2 -1,-2 0,-2 0,-2 2,-1"/>
    <path style="fill:none;stroke:#000000;stroke-width:1"
          d="m 113,182 0,-2 -1,-2 0,-2 0,-2 -2,0 -1,2 -1,-2 -1,-2 1,-1 -1,-2 -2,0 0,-2 2,-1 1,-2 0,-2 1,-2 0,-2 1,-1 1,-1 2,0 -1,2 -1,2 0,2 0,2 -1,2 -1,2 1,2 1,2 1,-2 0,-2 0,-2 1,-2 1,-2 -1,-2 1,-2 1,-2 1,-1 2,-1 0,2 2,0 2,1 0,2 0,2 -1,2 1,2 -1,1 1,1 -2,1 0,2 0,2 0,2 2,1 1,2 2,0 1,2 -1,1 1,1 1,2 -1,2 1,2 -1,2 -1,2 -2,1 -1,2 -2,1 -2,0 0,-2 -1,-2 2,-1 1,2 1,-2 -1,-2 2,-1 1,2 1,-2 -1,-2 1,-2 -1,-1 -1,-2 -2,1 1,2 -1,2 -1,1 -1,-2 0,-2 1,-3 2,-1 -1,-2 -3,0 0,-2 0,-2 0,-2 0,-2 1,-2 0,-2 1,-2 0,-2 0,-2 -2,0 -1,2 1,2 -1,2 -1,2 0,2 0,2 -1,2 1,2 0,2 0,2 2,1 -1,1 -1,2 0,2 -2,1 1,2 2,-1 1,2 -2,1 0,2 0,2 0,2 0,2 -1,2 0,1 0,2 1,2 2,-1 0,-2 0,-2 1,-2 1,2 1,2 2,0 0,-2 -1,-2 2,-1 1,2 1,2 0,2 -2,1 1,2 0,2 1,2 1,2 2,-1 1,-2 -2,0 0,-2 -1,-2 1,-2 1,-2 2,-1 2,0 1,2 -1,1 -2,0 -1,2 1,2 1,-1 2,0 2,0 0,-2 1,-2 -1,-1 -1,-2 2,-1 -1,-1 0,-2 0,-1 0,-2 0,-2 2,0 1,2 2,-1 -1,-2 1,-2 -2,0 -2,1 -2,-1 -2,1 1,2 -1,2 -1,1 1,2 0,2 -2,1 -2,0 -2,1 0,-2 -1,-2 2,0 2,0 0,-1 -2,-2 2,-1 1,-1 -1,-2 0,-2 2,0 -1,-2 -1,-2 0,-2 -1,-2 0,-2 1,-2 2,0 0,2 0,2 0,1 1,2 0,2 1,2 1,-2 1,-2 0,-1 -1,-2 0,-2 0,-2 2,-1 0,-2 2,1 0,2 0,2 -2,0 1,3 2,-1 0,1 -1,2 -1,2 -1,2 3,0 2,0 -1,-2 1,-2 1,-2 -1,-2 2,0 2,-1 2,-1 1,-1 2,0 1,2 2,0 0,2 0,2 -1,1 1,2 2,-1 1,-2 0,-2 -1,-2 -1,-2 -2,-1 2,-1 2,-1 1,-1 0,-2 0,-2 2,0 1,2 2,-1 -1,-2 0,-2 -1,-2 2,0 1,2 1,1 -1,1 2,1 1,-2 1,2 2,0 0,2 -2,0 -2,0 -1,1 -2,1 -2,0 0,2 -1,1 -2,0 0,2 2,1 2,-1 -1,3 -2,0 1,2 -1,2 0,2 -2,0 -2,1 0,2 0,2 -2,0 -1,-2 0,-2 0,-1 -1,-2 -3,1 0,-1 1,-2 2,-1 -1,-2 -2,1 -2,0 0,2 -1,2 -1,1 1,2 2,0 2,0 0,2 0,2 0,2 2,-1 1,2 2,-1 1,2 0,2 1,2 1,-2 1,-2 -1,-2 2,0 -1,-2 0,-2 2,-1 0,2 1,2 2,-1 0,-2 1,-2 -2,0 0,-2 1,-1 0,-2 0,-2 2,-1 1,2 1,-2 1,-1 0,-2 -2,0 -2,0 0,-2 2,-1 2,1 1,-2 2,0 1,-1 2,1 0,1 -1,1 -2,0 0,2 0,2 -1,2 1,2 0,2 0,2 0,2 1,2 -3,0 0,-2 -1,-2 0,-2 0,-2 -2,1 0,2 0,2 0,2 0,2 1,1 2,0 -1,2 -1,2 0,2 1,2 0,2 0,2 1,2 2,-1 1,2 -2,1 1,2 1,2 0,1 -1,2 1,2 2,-2 1,-2 -1,-2 -1,-2 2,-1 -1,-2 -1,-2 -2,-1 2,-1 -2,-1 1,-2 -2,0"/>
    <path style="fill:none;stroke:#000000;stroke-width:1"
          d="m 169,196 0,-2 1,-1 0,-2 1,-2 1,2 1,2 0,2 1,2 1,2 0,2 1,2 0,2 1,2 -1,1 1,2 -1,2 1,2 1,-2 1,-2 1,-2 -1,-2 2,-1 0,-2 -2,1 -1,-2 2,-1 2,-1 1,-2 1,-1 -1,-1 -2,-2 0,-1 -2,1 -1,2 2,0 0,2 -2,2 -1,-2 -1,-2 0,-2 -1,-2 1,-1 1,-2 1,2 2,0 0,-2 -1,-1 -1,-2 -2,1 -2,2 -1,-2 0,-2 2,0 2,-1 1,-1 -1,-2 -2,1 -2,1 -1,-2 1,-1 0,-1 -1,-2 0,-2 1,-2 1,-1 1,1 -1,2 0,2 1,2 1,-2 0,-2 1,-2 1,-2 1,-1 1,-1 1,-1 1,-1 2,-1 0,-2 2,0 1,-18 0,-2 0,-1 2,-1 1,2 2,0 0,-2 2,0 1,2 -1,2 4,2 -1,-2 1,-2 2,0 0,2 0,2 2,0 0,2 2,0 -2,-4 0,-2 0,-1 -2,-1 1,-1 2,0 0,-2 -2,0 0,-2 2,0 0,-1 0,-1 -1,-2 0,-2 -1,-2 0,-2 -2,0 -1,2 -1,2 2,0 1,2 -1,2 -2,-1 -1,-2 -2,1 1,2 0,2 2,0 2,0 -1,2 -1,2 -1,1 -1,-3 -2,0 -1,-2 0,-2 0,-2 -2,0 -1,2 0,2 2,2 -1,1 -2,0 -2,1 0,-2 1,-2 -1,-1 0,-1 1,-2 -1,-1 2,-1 -2,-1 1,-1 1,-1 -1,-2 0,-2 1,-2 1,2 0,2 2,-1 0,-2 -1,-2 -2,-1 1,-1 1,-2 -1,-1 1,-2 1,-2 2,-1 -1,-1 1,-1 0,-2 -2,0 0,-2 -2,0 -1,1 -2,1 -2,1 -2,1 0,-2 2,-1 0,-1 2,0 1,-1 1,-1 2,0 1,-1 0,-1 1,-2 1,-2 2,0 0,2 0,2 -1,1 -1,2 2,1 0,2 1,2 1,2 -1,1 -2,1 0,1 -2,1 0,2 0,2 1,2 2,-1 0,-2 0,-2 1,-1 2,-1 1,-1 2,0 0,-2 -2,-1 -1,-2 2,0 1,-2 2,1 0,2 2,-2 2,0 -1,2 -1,2 -1,1 2,1 -2,1 1,1 -1,2 0,1 -1,2 -1,2 -1,-2 0,-2 1,-3 -2,1 -2,1 -1,1 1,1 -1,1 -1,2 -2,1 0,2 -1,2 -1,1 -2,1 1,2 2,-1 2,-1 1,-2 0,-2 2,0 0,-2 1,-2 1,2 1,2 1,-1 2,-1 2,-1 0,-2 2,-1 -1,-2 1,-2 1,-2 -1,-2 1,-2 1,-1 1,-1 -1,-1 1,-1 -1,-2 -1,1 -2,1 -2,-1 0,-2 -1,-2 2,0 1,-2 -1,-2 -2,1 -1,-2 -2,0 -1,1 0,2 2,0 -1,2 1,2 1,2 -2,0 -2,0 -1,2 -1,-2 1,-2 1,-1 -1,-2 -1,-2 0,-2 -2,-1 -2,1 -1,-2 2,-1 2,0 0,-2 2,-1 0,2 1,2 2,-1 2,1 0,-2 -2,-1 -1,-2 2,0 0,-2 0,-1 2,0 1,2 -1,1 2,1 0,1 1,1 -1,1 0,2 2,-1 0,1 1,1 -1,1 2,1 0,1 -1,1 -1,1 0,2 2,-1 1,-1 1,1 0,2 1,2 1,-2 1,2 1,2 0,2 -2,0 -1,-2 -1,2 0,1 -1,1 0,1 1,1 0,1 -1,1 0,1 -1,1 0,1 0,2 -2,1 2,1 -1,1 -2,1 1,1 -1,1 -1,1 -1,-2 -2,1 1,1 0,2 0,2 0,2 3,0 1,-2 1,-2 1,-2 0,-2 1,-1 1,-2 0,-2 0,-1 1,-1 0,-1 1,-1 0,-2 1,-1 -1,-1 1,-1 2,0 1,-2 1,-1 -1,-2 -1,-2 -1,-2 2,-1 2,0 0,2 0,2 0,1 2,-1 0,-2 1,-1 1,1 2,-1 1,-1 2,-1 1,-1 -1,-1"/>
    <path style="fill:none;stroke:#000000;stroke-width:1"
          d="m 229,98 -2,1 -2,1 -2,1 -1,-2 2,-1 2,-1 -2,-1 0,-2 0,-2 1,-1 0,-2 -1,-1 1,-1 -1,-2 0,-2 2,0 -1,-2 0,-2 0,-2 -2,0 -1,2 0,2 -1,2 0,2 0,2 -2,0 -1,1 0,2 -2,1 -1,1 -2,0 1,2 0,2 2,1 2,-1 -1,-2 2,0 0,-2 1,-2 2,-1 0,3 -1,2 0,2 -1,2 -2,1 -2,0 -2,1 -1,-2 -1,-2 -1,-2 -1,-2 -1,-2 -1,-2 -1,-2 0,-1 2,-1 1,2 1,2 0,2 2,-1 2,0 0,-2 -2,-1 1,-2 -2,-2 -1,2 -1,-2 -2,0 2,-2 2,0 1,-1 1,-1 1,-1 1,2 0,2 -1,1 1,1 1,2 2,-1 0,-2 0,-2 1,-2 -2,0 -1,-2 2,0 0,-2 1,1 2,0 1,-1 0,-1 2,-1 1,1 -1,2 2,0 2,-1 -1,-2 1,-1 2,-1 1,1 -1,1 0,2 -1,2 -2,1 0,2 0,2 1,2 0,1 -2,1 1,2 2,-1 0,3 -2,0 0,2 0,2 -1,1 1,2 2,-1 1,2 1,2 1,-1 2,1 2,-1 1,-1 -1,-1 -2,1 -2,-1 1,-1 2,-1 1,-2 1,-2 0,-2 1,-2 1,-1 -2,-1 1,-2 0,-2 0,-1 0,-2 2,0 1,2 1,2 -1,1 0,2 0,3 -1,1 0,2 -1,2 -1,2 1,2 -1,2 3,1 -1,-1 1,-2 0,-2 0,-2 1,-2 2,0 0,2 0,2 1,2 -2,1 0,1 1,1 0,1 2,0 0,-2 1,-2 0,-2 0,-2 0,-1 0,-2 0,-2 2,0 1,2 2,-1 -1,-2 1,-1 2,0 1,2 2,-1 1,-1 -1,-2 0,-2 2,-1 1,2 0,2 1,2 1,-2 1,-2 -1,-2 1,-1 -1,-2 -2,0 -2,1 -2,1 -2,0 0,2 0,2 -2,-1 -2,1 -2,1 -2,0 -1,2 -1,2 -1,-2 1,-2 1,-2 -1,-2 -1,-2 -1,-2 2,0 1,-2 -2,0 -1,-2 -3,0 1,2 -2,1 -1,-2 -2,0 0,2 0,2 -1,1 1,2 0,2 -1,2 1,2 -1,2 1,2 -1,2 -2,1 -2,0 0,-2 2,-1 -1,-2 1,-2 0,-1 -1,-2 2,-1 -1,-2 -2,1 -1,-2 2,-1 1,-2 0,-2 1,-2 0,-2 2,1 0,-2 2,1 2,0 0,-1 2,-1 1,2 2,-1 0,2 2,0 0,-2 2,-1 2,1 -2,1 1,1 -1,2 -1,1 0,2 -1,2 1,2 1,2 1,-2 0,-2 2,1 1,-2 -2,-1 1,-1 0,-2 0,-2 1,-2 1,2 1,-1 2,0 0,2 -2,1 0,2 1,2 2,-1 2,-1 -2,-1 1,-2 2,0 1,1 1,2 2,-1 1,2 0,2 1,2 -1,2 -1,2 0,2 -1,2 0,2 0,2 -2,0 -2,1 -1,-2 2,-1 1,-2 -2,0 -2,1 -2,0 -1,1 -2,1 -2,0 0,2 0,2 0,1 0,2 -2,1 0,1 2,0 0,2 2,0 1,-2 0,-2 1,-1 -1,-2 0,-2 2,-1 1,1 0,2 0,2 1,2 2,0 0,-2 0,-2 2,0 2,-1 1,2 -2,1 1,2 -1,1 -2,1 1,2 2,-1 1,2 1,-2 1,-2 -1,-2 2,-2 -1,-2 0,-2 2,1 2,0 0,2 -1,2 -1,1 0,2 -1,2 0,2 2,2 1,1 -2,1 1,2 1,2 0,2 -1,2 -2,1 0,1 0,2 -1,2 -1,-2 -1,-2 0,-2 1,-1 2,-1 0,-2 0,-1 -2,-1 0,-2 1,-2 -2,0 -2,1 -1,-2 -2,0 -1,-2 -1,-2 -2,0 -1,1 0,2 2,0 1,2 1,1 1,2 1,-1 2,1 0,1 -2,1 1,2 1,-1 2,0 -1,2 -2,1 0,1"/>
    <path style="fill:none;stroke:#000000;stroke-width:1"
          d="m 262,116 1,1 0,2 -2,0 0,1 -2,4 -2,1 3,-3 2,0 2,-1 0,1 1,2 2,0 0,2 2,0 1,2 2,0 -1,-2 1,-2 -2,0 0,-2 1,-2 0,-2 1,-2 2,2 1,2 -2,1 1,2 0,2 1,2 -1,1 0,2 2,0 1,-1 1,2 2,-1 1,2 1,-1 2,0 0,-2 1,-1 -1,-2 1,-1 -1,-1 1,-1 1,-1 -1,-2 0,-1 1,-1 -1,-2 0,-1 1,-2 -1,-2 -1,1 -2,0 1,2 0,3 -1,2 1,2 -3,-1 -1,2 2,1 0,2 1,2 -1,1 -2,0 0,-3 -2,1 0,-2 -1,-2 1,-2 0,-2 2,0 1,-1 1,-2 -1,-2 -2,0 0,2 -2,0 -1,1 -1,-2 0,-2 1,-1 -2,-1 1,-1 0,-2 -1,-2 -2,-1 0,-2 2,0 2,1 2,-1 2,1 1,2 -2,0 -2,0 0,2 1,2 1,2 2,-1 -1,-2 2,0 1,-1 1,2 2,0 0,-2 -1,-1 1,-1 -1,-2 -2,1 0,-2 2,-1 0,-2 -1,-2 -1,-1 1,-2 -2,0 -1,-2 1,-1 -2,-1 1,-1 -1,-1 0,-1 0,-2 -1,-2 -1,2 -1,2 0,2 1,2 1,2 -1,2 2,0 1,2 2,2 -1,1 -2,1 -1,-2 -1,-2 -1,2 -2,1 -2,0 1,-2 1,-1 0,-2 1,-2 -2,0 1,-2 -1,-2 0,-2 1,-2 0,-2 2,0 0,-2 -1,-1 -1,-2 1,-1 -2,-1 -1,3 1,2 -2,0 0,2 1,2 -2,1 0,2 1,2 -2,0 -2,0 0,-2 1,-2 0,-2 0,-2 1,-2 0,-2 0,-2 2,-2 0,-1 -1,-2 -2,-1 0,-2 -2,0 -2,-2 1,-1 -3,-1 0,-1 -2,-2 -2,0 0,-2 -2,0 -1,-2 -1,-1 -2,0 0,-3 1,-1 -1,-2 2,0 1,1 0,-2 1,-1 1,-2 -1,-2 0,-2 -2,0 0,2 1,2 -2,1 -2,0 -2,0 -3,1 0,-2 1,-1 2,-1 2,0 0,-2 2,-1 1,-1 0,-1 -3,0 1,-1 2,-1 1,-1 1,-2 -2,0 -2,1 -2,1 -1,1 -1,2 0,2 -2,1 -2,1 -1,3 0,2 1,2 -2,1 1,2 2,0 2,-1 1,-2 2,1 0,2 0,1 -2,0 -1,1 -2,0 -2,0 -2,0 -2,0 -2,0 -1,-1 1,-1 3,0 -1,-2 1,-2 0,-2 -1,-2 2,-1 0,-2 1,-1 1,-2 2,0 0,-2 2,-1 1,-2 0,-2 2,1 1,-2 3,1 2,0 1,-1 -1,-1 1,-1 0,-2 -2,0 -2,2 -2,-1 -2,1 -2,0 -2,2 -1,1 1,2 -2,1 -2,-2 -1,1 -1,2 2,1 -2,2 -1,2 -1,2 -2,-1 -2,1 -1,1 -2,1 0,-3 -2,1 -1,2 0,1 -2,0 0,2 1,2 1,-1 3,1 0,-2 2,0 1,-1 2,-2 2,2 -1,1 0,2 -2,1 -2,1 1,1 1,2 -3,-1 -2,0 0,-2 -2,1 -1,1 -1,-2 -2,1 -1,-2 1,-1 0,-1 -1,-2 0,-2 0,-2 -1,-2 -3,0 1,-2 2,-1 2,-1 0,2 1,2 1,2 2,-2 0,-2 -1,-2 2,-1 0,-2 0,-2 1,-2 0,-2 1,-1 -2,-2 2,-1 1,-2 1,-1 0,-2 2,-1 0,-2 2,1 2,-1 -2,-1 1,-3 4,2 0,2 -1,1 -1,1 1,2 -2,1 -2,-2 -1,2 0,2 -2,1 0,2 0,2 -1,2 -1,2 2,1 -1,2 -1,1 -1,2 0,2 2,-1 3,1 0,-2 2,-1 -2,-1 1,-2 0,-2 -1,-2 2,-1 -1,-2 1,-2 2,-1 1,-1 1,3 -2,1 0,4 2,-1 1,-1 2,-1 0,-2 -1,-2 0,-2 0,-2 0,-2 1,-1 2,-1 0,4 1,-2 2,0 2,1 0,1"/>
    <path style="fill:none;stroke:#000000;stroke-width:1"
          d="m 251,20 -2,1 -1,1 -2,1 1,3 1,-1 3,1 0,-2 1,-1 2,2 2,0 -1,-2 -1,-1 0,-2 1,-2 0,-2 -1,-2 -2,-2 0,-1 -3,3 0,-4 0,-1 -3,-2 -1,1 0,3 -4,-1 1,-3 -2,0 -2,1 -2,-1 -2,1 0,-2 -2,0 -1,1 1,4 -1,3 1,1 -1,1 -2,-1 -1,-1 1,3 0,2 -2,1 0,2 -3,0 1,2 0,2 0,2 1,2 -2,1 1,2 -1,2 -2,-1 -2,1 1,-4 1,-2 0,-2 -2,-2 2,-1 -1,-2 -1,-2 1,-1 3,1 0,-2 2,-1 0,-2 -1,-1 -2,1 -2,1 -2,0 -2,-2 -1,2 1,2 0,2 -1,2 2,1 -2,1 -2,0 -1,2 -1,2 0,2 -2,1 1,2 -2,1 -1,2 1,2 2,-2 2,2 1,-2 0,-2 0,-2 1,-2 0,-2 1,-1 3,0 0,2 -1,2 0,2 -1,1 0,2 -1,2 -1,2 -2,1 -2,-1 -1,2 -2,-2 -1,2 1,2 -2,1 -2,2 0,2 -1,2 3,0 1,-2 1,-2 2,0 1,-2 2,-1 2,1 0,-2 3,0 1,2 0,2 0,2 1,2 0,1 -2,1 2,1 -2,1 -2,-1 0,2 -1,1 -1,-2 -1,2 -1,1 -2,0 -1,1 -2,0 -2,0 -1,-1 1,-1 2,0 2,-1 2,0 0,-2 1,-1 2,-1 2,-1 0,-2 0,-2 -3,0 0,2 -2,1 -2,1 -1,2 -2,1 -2,0 -2,2 0,2 -2,0 -2,-1 -1,-1 1,-1 2,1 1,-2 -1,-2 -1,-2 2,-1 -2,-1 -3,-1 -1,1 1,2 1,2 -1,2 -1,2 -1,-2 -2,0 0,-1 2,-1 -1,-2 -2,1 -2,1 0,-1 -1,-1 1,-1 2,-1 1,-2 1,-1 2,-1 1,-1 -4,-1 2,-1 2,-1 1,-1 2,-2 0,-2 1,-2 2,-1 0,3 0,2 -1,2 -1,2 -1,1 0,2 0,2 3,0 1,-2 1,-1 -1,-2 2,-1 0,-2 0,-2 0,-2 1,-1 1,-2 1,-2 1,-2 1,-2 1,-2 -3,0 1,-2 2,-1 2,1 1,-2 -2,-1 1,-2 0,-2 1,-1 1,-1 2,0 1,-1 1,2 2,0 0,-1 2,1 2,-2 2,-2 1,-2 1,-1 -3,-1 -1,1 -4,1 1,-2 -2,-1 -2,0 -2,0 0,-2 -3,0 1,1 -1,1 3,3 -2,2 -2,2 0,1 -2,1 -1,-1 -2,1 0,1 3,1 -1,2 -2,-1 -2,1 -1,2 3,0 -1,2 -2,1 0,2 2,1 0,2 -1,2 -2,1 0,-3 -1,-2 -2,1 0,2 0,2 -2,1 -2,2 0,2 -1,1 -2,0 0,2 -2,1 -1,1 -1,2 0,2 0,2 -2,1 -1,1 -1,1 -2,-2 2,-1 0,-1 1,-2 -1,-2 2,-1 1,-3 2,-1 -1,-2 1,-1 1,-2 2,2 2,-2 -2,-1 -1,-3 2,0 2,2 1,-2 -1,-2 2,-1 2,-1 1,-2 0,-2 1,-2 1,-2 -1,-1 -2,-1 2,-1 2,1 1,-1 1,-1 2,-2 2,-4 1,-2 -2,-1 -1,1 -1,1 -1,-3 -1,1 -1,1 0,2 -2,-2 -1,1 -2,-1 -1,1 3,3 -3,0 -4,2 0,-3 2,-1 -1,-1 -2,0 -1,2 -1,1 -1,1 -2,1 2,2 -3,0 -2,-1 -3,-1 -1,-1 -2,1 -2,1 0,-2 -2,0 -1,1 -2,0 0,-2 -1,1 -1,1 -2,-1 0,2 -2,0 0,-2 -2,0 -2,2 2,0 0,2 -3,1 -1,-2 -2,-1 0,2 -2,1 -1,-2 -1,2 0,1 -2,1 -1,1 -2,1 0,2 1,3 1,1 1,2 -2,0 -1,-1 -1,2 1,1 -1,1 -1,1 -1,2 0,2 0,1 2,1 0,-2 0,-2 2,-1 2,0 -1,2 0,2 0,2 -1,2 -3,-1"/>
    <path style="fill:none;stroke:#000000;stroke-width:1"
          d="m 147,37 -1,-1 -1,2 2,0 0,2 -1,1 -1,2 2,0 2,-1 1,-1 2,-1 1,-2 2,1 0,2 -2,2 -1,1 1,2 -2,1 -2,-2 -2,0 -1,1 1,2 1,-1 1,2 -1,1 1,2 2,-1 2,-1 1,-1 2,-1 0,-2 1,-1 0,-2 2,-1 -1,-2 0,-2 2,-1 1,3 2,0 0,-2 0,-2 -1,-2 1,-1 -2,-2 2,-1 1,-2 1,-2 1,-1 -1,-2 -1,-3 -2,1 0,2 -1,1 0,2 0,2 -2,1 -1,2 0,2 1,2 -3,0 -1,1 -1,-3 2,-1 -1,-3 -3,-1 2,-1 1,-2 2,2 1,-2 -1,-2 -2,-1 -2,1 -1,-2 1,-1 0,-1 2,-1 2,1 -1,1 3,1 1,-2 -1,-1 0,-3 3,3 1,-1 2,1 0,-2 2,1 1,-2 1,2 1,2 -2,1 -1,2 2,1 0,2 3,-1 0,-2 1,-1 1,-2 1,-2 -2,-1 -1,2 -1,-2 0,-3 4,2 2,0 2,0 0,2 -1,1 0,2 -2,1 1,2 -2,1 -2,2 -2,1 -1,1 -3,0 -1,2 0,2 0,2 0,2 0,2 0,2 0,2 0,2 1,2 0,2 0,3 -1,1 -2,1 0,2 -2,-1 0,2 -2,0 -1,-3 2,-2 3,-1 0,-2 0,-2 -1,-3 -1,1 -2,1 1,2 -1,1 -1,2 -2,1 -1,1 0,2 -3,-1 -1,1 -2,0 2,2 2,0 1,2 2,-2 0,2 2,1 2,0 2,0 3,0 0,-2 1,-2 2,-1 1,-2 0,-2 0,-2 0,-2 1,-1 -2,-2 2,-1 1,-2 -3,0 1,-2 1,-1 0,-3 -2,1 0,-3 0,-2 3,1 1,-2 3,1 0,-2 1,-1 2,-1 1,-2 0,-2 1,-2 1,-2 0,-2 3,1 -1,-3 1,-1 3,2 0,4 1,3 1,-1 1,-2 0,-2 2,0 0,-2 2,1 1,-1 0,-1 2,-1 0,2 2,0 -1,3 -1,3 -2,0 0,-3 -2,1 -1,2 1,2 -2,1 -2,1 -1,2 0,2 -2,2 -2,-1 1,-2 0,-2 1,-2 -1,-2 0,-2 -2,0 -1,2 1,2 -2,1 1,2 -2,0 1,2 -2,0 -1,1 1,1 0,2 0,1 -1,1 -2,-2 -2,-1 -1,2 2,1 -2,1 0,2 1,2 1,2 -3,1 1,2 0,2 -1,2 3,0 2,-1 -1,-2 0,-2 2,-1 -1,-3 0,-2 2,0 0,-1 2,-1 1,-2 0,-2 2,0 1,3 -1,2 -1,1 -2,1 -1,1 1,1 -1,1 2,1 0,1 -1,1 -1,1 0,2 0,2 -2,1 -1,1 -2,0 -2,0 1,2 -2,1 -1,-1 -1,2 -2,1 2,1 -2,1 0,1 -1,1 -2,0 -1,1 0,2 -2,-1 -1,1 1,1 0,1 0,2 -2,-1 -1,1 1,2 -1,1 -2,0 0,2 0,2 0,2 0,2 -1,2 0,2 0,2 1,2 -2,0 0,2 3,1 1,-1 1,-2 1,-2 -2,0 -1,-2 1,-2 0,-2 1,-2 2,0 0,2 0,2 -1,2 2,0 2,-1 2,1 1,2 2,-1 0,-2 1,-1 2,-1 2,1 2,0 1,2 0,2 0,2 -2,0 -1,2 1,2 1,2 -1,2 2,0 1,2 2,-1 -1,-2 -1,-2 -1,-2 1,-1 2,0 0,-2 2,0 1,2 -1,2 -1,1 1,2 1,2 1,-2 1,-1 0,-2 0,-2 2,0 -1,-2 -2,-1 1,-1 -1,-2 0,-2 -2,1 0,2 -2,1 -1,-2 0,-2 0,-2 2,0 0,-2 1,-2 -2,0 0,-2 2,-1 2,1 2,2 -2,0 0,2 0,2 2,0 1,-2 2,0 0,-2 0,-2 -2,0 -1,-2 -1,-2 -2,1 -2,0 -2,1 -1,-2 0,-2 -2,0 -1,2 -1,2 2,0 1,2 1,2"/>
    <path style="fill:none;stroke:#000000;stroke-width:1"
          d="m 180,75 0,2 -2,2 -2,-1 1,-1 0,-2 -1,-2 -1,1 -1,2 -1,2 -2,1 -2,0 -1,2 -2,-1 0,-2 -1,-2 1,-1 2,0 1,2 2,-1 -1,-2 2,0 -1,-2 2,-1 -2,-1 0,-2 1,-1 2,2 1,-2 -1,-1 1,-1 -1,-2 -2,1 -2,1 -1,1 -1,2 0,2 0,2 -2,1 -2,-1 -1,2 -2,1 -1,-2 2,-1 1,-2 2,0 1,-2 0,-2 1,-2 1,-1 2,-1 1,-1 1,-1 1,-1 1,2 1,-2 1,-1 2,0 -1,2 -1,1 1,2 1,2 2,-1 1,-2 -2,0 0,-2 1,-1 1,1 2,-1 0,1 2,1 -2,1 1,1 -1,2 -1,1 1,2 2,-1 1,-2 0,-2 1,-1 2,1 0,1 -1,1 0,2 2,-1 2,1 0,1 -1,1 -1,1 2,1 2,-1 1,2 -2,1 1,2 2,-1 1,1 1,2 -2,0 -2,0 0,2 -1,1 -1,2 -1,-2 -2,1 0,2 1,2 1,2 2,-1 -1,-2 2,0 1,-1 2,0 -1,-2 1,-2 2,0 0,2 2,0 1,2 -2,0 -1,2 -1,1 -2,1 -1,1 -2,1 -1,1 -2,1 0,2 0,2 -2,1 2,1 0,2 -2,0 0,2 -2,1 -2,1 -1,-2 2,-1 1,-2 -2,0 -2,1 -2,0 0,2 1,2 0,2 -1,2 -1,1 1,1 -1,1 -2,0 0,-2 -2,1 0,1 -2,0 -2,0 0,-2 2,0 1,-2 1,-2 1,1 2,0 0,-2 -2,-1 1,-2 0,-1 0,-2 -2,1 -1,2 -1,2 -1,2 -1,2 -1,-2 -2,1 1,2 0,2 -2,-1 -1,-2 -2,0 -1,-2 2,0 2,-1 -1,-1 1,-1 2,-1 1,2 1,-2 1,-2 -2,0 -1,-2 0,-2 0,-1 2,-1 1,2 0,2 2,-1 1,-2 -2,-1 1,-1 -1,-2 1,-2 2,-2 0,-2 -2,0 -1,2 -1,2 -2,0 0,2 -1,1 -2,1 -1,-2 1,-2 0,-2 -2,0 -1,2 0,2 -1,1 2,2 1,2 0,2 1,2 -2,1 -1,-2 -1,2 -1,1 1,2 -2,0 -1,-2 0,-2 0,-2 2,0 1,-2 0,-2 -2,0 -1,2 -1,-2 -2,1 -1,-2 -2,0 -1,-2 0,-2 -1,-2 2,0 0,-2 -2,-1 -2,1 0,2 0,2 -2,1 -1,-2 1,-1 -2,-1 1,-1 1,-1 0,-2 2,0 1,-2 2,1 1,2 1,-2 0,-2 0,-2 1,-2 0,-2 0,-1 -2,1 0,2 -2,0 0,1 1,2 -2,0 -2,0 -1,1 1,1 -2,0 -1,2 -1,2 -2,1 1,2 1,2 1,2 0,1 -1,1 0,1 -2,1 -1,-1 -1,2 1,1 0,1 1,2 2,0 0,-1 -1,-2 2,-1 1,2 1,2 1,-2 0,-2 1,-1 -2,-1 1,-2 1,-1 1,2 1,2 2,0 1,2 -1,1 -2,0 -1,2 2,0 2,1 0,2 0,2 0,2 -1,1 1,2 1,1 -1,2 -1,-1 -1,-2 -1,-2 0,-2 1,-1 0,-2 -2,-1 -1,2 -1,2 0,2 -2,0 0,2 -2,1 -1,-1 -2,1 -1,1 1,1 -2,1 -1,2 -2,1 -2,1 -1,-2 1,-1 -1,-2 -1,-2 0,-2 -1,-2 -2,0 -1,-1 2,-1 -1,-2 0,-2 1,-1 2,1 -1,2 2,0 0,2 2,2 -1,1 1,2 0,2 1,2 1,-2 1,-2 1,-1 2,-1 2,0 0,-1 2,-1 -2,-1 1,-1 2,0 1,-2 -2,0 -2,0 -2,1 -1,-2 -1,-2 -1,2 0,2 2,2 -1,1 -2,1 -1,-2 -1,-2 1,-2 -2,-1 1,-2 2,0 0,-2 1,-1 1,-1 0,-2 2,0 1,-1 -1,-2 -1,-2 -1,2 -2,0 -1,-2 2,-1 1,-2 2,-1 2,-1 1,-2 -1,-2"/>
    <path style="fill:none;stroke:#000000;stroke-width:1"
          d="m 144,76 2,-1 2,-1 2,0 0,-2 2,-1 1,-2 1,-1 -2,-1 -1,2 -1,-2 -1,-1 1,-1 -3,1 0,2 2,1 -1,1 -1,2 -2,1 -2,0 -1,1 -2,0 1,2 1,2 -2,1 -1,1 -1,2 -2,1 -1,2 -1,1 -1,1 1,2 2,-1 1,1 1,2 -2,0 0,1 -1,1 -1,1 -1,1 0,1 -2,0 -1,-2 1,-1 2,-1 -1,-2 -2,1 -2,0 -1,1 -2,0 -1,-3 2,0 -1,-2 0,-2 2,0 1,2 1,2 2,-1 -1,-2 2,-1 -1,-1 -2,0 0,-1 2,-1 2,1 1,-2 -1,-2 2,-1 1,2 1,-3 2,0 -1,-2 -1,-2 1,-2 2,0 0,-2 2,0 1,2 2,-1 -1,-2 1,-2 1,-2 -1,1 -2,-1 -1,1 1,1 -2,1 -1,-2 -1,1 -1,1 -1,-2 -2,0 1,2 1,2 -2,0 -1,-2 -1,1 -1,1 -2,0 -1,1 -2,1 -1,1 -1,2 1,1 -1,1 -1,1 -1,2 2,0 2,0 1,-2 0,-2 0,-2 2,-1 1,-1 2,0 2,0 -1,2 1,2 -2,1 -1,-2 -2,1 1,2 0,2 -1,1 -2,1 -1,1 -1,1 -1,-2 -1,2 -1,-2 -2,0 -1,-1 -1,1 -1,2 -1,-1 -1,1 -1,1 -2,0 1,2 2,-1 0,2 1,2 0,2 0,2 -2,0 -1,1 -1,-2 0,-2 1,-1 -1,-2 0,1 -2,1 0,2 0,2 0,1 1,1 0,2 2,0 0,2 -2,0 1,2 2,0 0,2 2,1 1,-2 -1,-2 0,-2 -1,-2 2,-1 2,0 0,-2 0,-2 -1,-2 0,-2 0,-2 1,-2 2,0 0,2 0,2 0,2 0,2 1,2 0,2 0,2 -2,0 -1,1 -1,2 2,0 0,2 0,2 -2,0 1,2 3,0 2,0 -1,-2 0,-2 0,-2 1,-1 1,-2 -1,-2 2,-1 1,2 1,1 -1,2 0,2 0,1 -2,0 1,2 1,2 0,2 2,-1 0,1 0,2 1,1 0,1 -2,0 2,2 1,1 1,2 3,1 2,0 0,-1 2,-1 0,2 2,0 0,-2 0,-2 2,-1 1,-2 2,0 1,2 -1,1 -2,1 -1,3 1,-1 2,0 1,-1 2,-1 1,-1 -1,-2 -1,-2 1,-2 2,2 0,2 2,1 2,0 0,2 -1,1 1,1 -1,1 2,2 -1,1 -1,1 1,1 2,0 -1,2 -1,1 2,1 -2,1 2,1 -1,2 1,2 1,-2 1,2 0,2 -2,0 1,2 2,0 1,2 -2,0 1,2 2,0 -1,2 0,2 2,-1 6,3 -3,0 -2,-1 -1,1 -2,0 -2,0 -1,1 -1,-2 -2,1 0,1 -2,0 -1,1 -2,0 -2,0 0,1 -2,1 -2,0 -2,1 1,2 0,2 2,0 0,-2 2,1 0,1 0,2 0,2 2,0 1,-2 -1,-2 0,-2 2,2 1,2 1,-1 1,1 2,-1 0,1 -1,2 2,0 1,2 -2,1 -2,-1 -2,-2 -1,2 1,2 2,1 -2,1 1,2 -2,1 -1,-2 -2,1 1,2 -2,1 -2,-1 -1,2 -2,1 -2,1 0,-2 0,-2 2,0 0,-2 0,-1 2,-1 1,2 1,-2 1,-1 2,0 0,-2 -2,-1 -2,1 -2,-1 1,-2 0,-2 -2,0 -1,2 -1,-2 0,-2 -1,-2 2,0 -1,-2 -2,0 -1,1 -1,1 1,1 0,2 1,2 0,2 1,2 2,-1 1,2 -2,1 -1,1 0,2 -2,1 -1,-2 -2,0 -2,0 0,2 0,2 -2,0 -1,-2 0,-2 0,-2 0,-2 2,0 1,2 2,-1 2,1 0,-2 -2,-1 1,-2 0,-2 -2,0 0,2 -2,1 -1,-2 0,-2 0,-2 3,1 1,-1 -2,-1 1,-1 1,-1 1,-1 -2,-1 -2,1 -1,1 -1,1"/>
    <path style="fill:none;stroke:#000000;stroke-width:1"
          d="m 130,153 -1,-3 -1,1 -1,1 1,1 0,2 1,2 -1,2 1,2 -2,0 0,2 0,2 1,2 -1,2 1,2 -2,0 0,2 -1,2 -1,-2 -2,-1 1,-2 1,-1 1,-2 0,-2 -1,-2 0,-2 1,-2 -1,-2 2,0 -1,-2 1,-1 -2,-1 1,-1 -1,-2 -2,1 0,2 0,1 -2,0 0,-3 -1,1 -2,0 -1,1 -2,0 -1,1 -2,0 -2,1 -2,1 -2,0 1,2 1,1 -1,1 0,2 -1,2 -2,0 0,2 -1,2 1,2 1,2 1,2 -2,1 0,2 0,2 0,2 -1,1 0,2 2,0 1,-1 1,-2 0,-2 -1,-2 2,-1 1,2 2,1 0,2 -2,0 0,2 0,2 -1,1 -2,1 -2,0 -2,-1 -1,2 1,2 2,-1 0,2 0,2 -2,-1 -1,2 -3,0 -1,-2 2,0 0,-2 -1,-2 -1,-2 2,0 1,-2 -2,0 -1,-2 1,-2 2,2 0,-2 1,-1 0,-2 0,-2 0,-2 2,0 -1,-2 -1,-2 -1,-2 2,-1 -1,-2 0,-1 1,-1 2,0 0,-1 1,-1 0,-2 -2,1 -2,1 -2,1 -1,1 0,2 1,1 -1,2 -1,-1 -1,-2 -2,1 0,2 2,0 0,2 2,0 1,2 -1,2 1,2 -1,2 -2,-1 0,2 -1,2 -1,-2 -1,2 1,2 1,2 -2,1 -1,-2 -1,-2 -1,2 0,2 0,2 -1,1 -2,1 -2,-1 1,-1 1,-2 -1,-1 1,-1 -1,-1 0,-1 2,0 0,-1 1,-1 2,-1 1,-2 1,-1 2,-1 1,-1 0,-2 -2,0 0,-2 -2,0 -1,1 1,1 0,1 0,1 -2,0 0,1 -2,1 2,1 -1,1 -2,0 0,1 -2,1 -1,3 0,2 1,2 -2,1 0,2 -1,1 2,1 1,-1 -1,2 0,1 -2,0 0,1 0,2 -1,3 2,-1 1,1 0,1 -1,1 -1,1 2,1 2,-1 1,-1 0,-2 0,-2 -2,0 -1,-1 1,-1 2,-1 0,-2 2,0 0,2 0,3 2,-1 1,-2 1,-2 -2,0 -1,-2 2,-1 1,-2 2,0 1,2 -1,1 0,2 0,2 -1,2 2,0 0,2 1,2 0,2 -2,1 1,2 -2,0 0,2 0,2 -2,0 -1,-2 0,-2 1,-2 0,-2 2,0 0,-2 -2,-1 -2,1 0,2 -1,2 0,2 -2,0 1,2 1,2 1,2 2,0 0,2 -1,2 1,2 0,2 1,2 0,1 0,2 -2,-1 -1,-2 -1,-2 -1,-1 1,-1 -2,-1 1,-1 -1,-1 2,-1 -2,-2 -1,1 -1,-2 1,-1 -1,-1 0,-1 0,-2 -1,-1 -1,1 -1,1 1,2 0,2 1,2 1,2 0,2 1,2 1,2 1,1 1,2 0,1 2,1 0,2 2,-1 1,1 0,1 -1,1 1,2 2,-1 0,-1 2,0 0,2 -2,1 2,1 0,1 2,1 0,-2 1,-2 0,-2 2,-1 0,-2 1,-1 2,0 0,2 -1,1 -1,2 0,2 -2,1 1,2 -1,1 -2,1 3,1 1,-1 1,1 1,2 2,1 2,1 0,-2 2,-1 -2,-1 -2,1 -1,-1 -1,-2 -1,-2 1,-2 1,-2 2,-1 1,2 -1,1 -1,2 1,2 2,0 0,-2 2,0 0,-2 -1,-2 2,0 1,-2 2,0 -1,-2 0,-2 2,1 2,0 1,2 -1,1 0,2 2,0 -1,2 0,2 2,-1 0,2 -2,1 -2,1 -2,1 0,-2 1,-2 0,-2 -1,-2 -1,2 -1,2 -1,2 0,2 1,2 -2,1 -1,1 1,1 2,-1 0,2 2,0 1,-1 -1,-1 1,-2 2,0 1,-1 2,-1 1,2 0,2 -2,0 -2,1 -1,2 2,0 1,-1 1,2 1,-2 1,2 2,0 2,0 2,0 -1,-2 1,-1 2,-1 0,-2 1,-2 1,-2 2,0"/>
    <path style="fill:none;stroke:#000000;stroke-width:1"
          d="m 136,236 -1,2 0,2 -1,2 -1,2 -1,1 0,1 0,2 2,0 0,-2 1,-1 1,-1 1,-2 1,1 2,0 1,2 -2,0 -1,1 -1,1 0,1 0,2 1,1 -1,2 -2,1 0,-2 -1,-2 -2,1 0,1 1,2 1,2 -1,2 0,2 2,-1 1,-2 2,-2 0,2 0,2 1,2 -2,0 -1,1 -2,1 1,2 0,1 1,2 1,2 1,2 1,-1 1,-2 -2,-1 0,-2 -1,-2 2,-1 1,2 1,2 1,2 0,2 -1,2 -2,1 1,1 0,2 2,0 0,2 1,2 2,0 -1,-2 1,-2 0,-2 -2,0 1,-2 0,-2 2,2 1,2 1,2 0,2 -1,1 0,2 -1,1 2,1 2,-1 0,1 2,1 1,-1 1,-1 1,2 2,-1 0,-1 2,0 1,-1 0,-1 0,-2 -3,0 0,2 -2,0 -3,0 -2,0 1,-2 0,-2 -1,-1 0,-1 3,0 0,2 1,2 1,-2 1,-1 2,1 0,-2 -1,-1 2,-1 1,2 1,2 1,2 0,2 2,-1 0,-2 1,-1 -2,-1 1,-1 -1,-2 -2,0 0,-2 2,0 0,-2 2,0 -1,-2 -1,-4 2,2 1,2 2,2 0,1 -2,1 0,1 2,1 -2,1 1,1 0,1 2,-1 2,-1 -1,-2 2,0 1,2 -1,2 -2,1 -1,1 2,1 2,-1 1,2 -2,1 1,2 2,-1 1,1 0,1 2,-1 2,-1 1,-1 0,-2 3,0 0,-2 1,-2 -1,-1 -2,1 -1,2 -2,0 -1,2 -2,1 0,-2 1,-2 -2,0 0,-2 2,0 2,1 1,-1 0,-1 2,0 2,-1 1,-2 2,-1 0,1 -1,2 1,1 2,-1 1,-1 -1,-2 1,-1 -1,-2 2,1 1,-1 0,-1 -1,-1 1,-2 1,1 2,0 0,2 0,2 0,2 -2,0 -1,1 1,2 0,2 -2,0 1,2 -2,1 -1,-2 -2,0 0,2 -1,2 1,2 1,2 -1,2 -2,0 0,-2 -1,-2 -1,2 -2,1 -2,1 0,1 2,0 2,0 1,1"/>
  </g>
</svg>
