<?xml version="1.0" encoding="UTF-8" standalone="no"?>
<!-- Generator: Adobe Illustrator 19.0.0, SVG Export Plug-In . SVG Version: 6.00 Build 0)  -->

<svg
   xmlns:dc="http://purl.org/dc/elements/1.1/"
   xmlns:cc="http://creativecommons.org/ns#"
   xmlns:rdf="http://www.w3.org/1999/02/22-rdf-syntax-ns#"
   xmlns:svg="http://www.w3.org/2000/svg"
   xmlns="http://www.w3.org/2000/svg"
   xmlns:sodipodi="http://sodipodi.sourceforge.net/DTD/sodipodi-0.dtd"
   xmlns:inkscape="http://www.inkscape.org/namespaces/inkscape"
   version="1.1"
   id="svg2"
   sodipodi:docname="keyboard.svg"
   sodipodi:version="0.32"
   inkscape:version="0.91 r13725"
   x="0px"
   y="0px"
   viewBox="107 -115 900 300"
   style="enable-background:new 107 -115 900 300;"
   xml:space="preserve"><metadata
     id="metadata5607"><rdf:RDF><cc:Work
         rdf:about=""><dc:format>image/svg+xml</dc:format><dc:type
           rdf:resource="http://purl.org/dc/dcmitype/StillImage" /></cc:Work></rdf:RDF></metadata><defs
     id="defs5605"><clipPath
       clipPathUnits="userSpaceOnUse"
       id="clipPath6453"><rect
         style="opacity:0.98999999;fill:#dfdfdf;fill-opacity:1;stroke:#000000;stroke-width:2;stroke-linejoin:round;stroke-miterlimit:10;stroke-dasharray:6, 2;stroke-dashoffset:0;stroke-opacity:1"
         id="rect6455"
         width="22.5"
         height="22.5"
         x="530.03851"
         y="-80.928284" /></clipPath><clipPath
       clipPathUnits="userSpaceOnUse"
       id="clipPath6457"><rect
         style="opacity:0.98999999;fill:#dfdfdf;fill-opacity:1;stroke:#000000;stroke-width:2;stroke-linejoin:round;stroke-miterlimit:10;stroke-dasharray:6, 2;stroke-dashoffset:0;stroke-opacity:1"
         id="rect6459"
         width="22.5"
         height="22.5"
         x="471.14682"
         y="-80.449257" /></clipPath><clipPath
       clipPathUnits="userSpaceOnUse"
       id="clipPath6461"><rect
         style="opacity:0.98999999;fill:#dfdfdf;fill-opacity:1;stroke:#000000;stroke-width:2;stroke-linejoin:round;stroke-miterlimit:10;stroke-dasharray:6, 2;stroke-dashoffset:0;stroke-opacity:1"
         id="rect6463"
         width="22.5"
         height="22.5"
         x="412.44785"
         y="-81.64682" /></clipPath><clipPath
       clipPathUnits="userSpaceOnUse"
       id="clipPath6465"><rect
         style="opacity:0.98999999;fill:#dfdfdf;fill-opacity:1;stroke:#000000;stroke-width:2;stroke-linejoin:round;stroke-miterlimit:10;stroke-dasharray:6, 2;stroke-dashoffset:0;stroke-opacity:1"
         id="rect6467"
         width="22.5"
         height="22.5"
         x="289.87415"
         y="-83.008789" /></clipPath><clipPath
       clipPathUnits="userSpaceOnUse"
       id="clipPath6469"><rect
         style="opacity:0.98999999;fill:#dfdfdf;fill-opacity:1;stroke:#000000;stroke-width:2;stroke-linejoin:round;stroke-miterlimit:10;stroke-dasharray:6, 2;stroke-dashoffset:0;stroke-opacity:1"
         id="rect6471"
         width="22.5"
         height="22.5"
         x="231.79025"
         y="-81.40731" /></clipPath><clipPath
       clipPathUnits="userSpaceOnUse"
       id="clipPath6453-3"><rect
         style="opacity:0.98999999;fill:#dfdfdf;fill-opacity:1;stroke:#000000;stroke-width:2;stroke-linejoin:round;stroke-miterlimit:10;stroke-dasharray:6, 2;stroke-dashoffset:0;stroke-opacity:1"
         id="rect6455-5"
         width="22.5"
         height="22.5"
         x="530.03851"
         y="-80.928284" /></clipPath><clipPath
       clipPathUnits="userSpaceOnUse"
       id="clipPath6457-6"><rect
         style="opacity:0.98999999;fill:#dfdfdf;fill-opacity:1;stroke:#000000;stroke-width:2;stroke-linejoin:round;stroke-miterlimit:10;stroke-dasharray:6, 2;stroke-dashoffset:0;stroke-opacity:1"
         id="rect6459-2"
         width="22.5"
         height="22.5"
         x="471.14682"
         y="-80.449257" /></clipPath><clipPath
       clipPathUnits="userSpaceOnUse"
       id="clipPath6461-9"><rect
         style="opacity:0.98999999;fill:#dfdfdf;fill-opacity:1;stroke:#000000;stroke-width:2;stroke-linejoin:round;stroke-miterlimit:10;stroke-dasharray:6, 2;stroke-dashoffset:0;stroke-opacity:1"
         id="rect6463-1"
         width="22.5"
         height="22.5"
         x="412.44785"
         y="-81.64682" /></clipPath><clipPath
       clipPathUnits="userSpaceOnUse"
       id="clipPath6465-2"><rect
         style="opacity:0.98999999;fill:#dfdfdf;fill-opacity:1;stroke:#000000;stroke-width:2;stroke-linejoin:round;stroke-miterlimit:10;stroke-dasharray:6, 2;stroke-dashoffset:0;stroke-opacity:1"
         id="rect6467-7"
         width="22.5"
         height="22.5"
         x="289.87415"
         y="-83.008789" /></clipPath><clipPath
       clipPathUnits="userSpaceOnUse"
       id="clipPath6469-0"><rect
         style="opacity:0.98999999;fill:#dfdfdf;fill-opacity:1;stroke:#000000;stroke-width:2;stroke-linejoin:round;stroke-miterlimit:10;stroke-dasharray:6, 2;stroke-dashoffset:0;stroke-opacity:1"
         id="rect6471-9"
         width="22.5"
         height="22.5"
         x="231.79025"
         y="-81.40731" /></clipPath></defs><style
     type="text/css"
     id="style4969">
	.st0{fill:#FFFFFF;stroke:#000000;}
	.st1{fill:#DFDFDF;stroke:#000000;}
	.st2{fill:#EFEFEF;stroke:#000000;}
	.st3{fill:none;stroke:#000000;stroke-width:3;}
	.st4{enable-background:new    ;}
	.st5{fill:none;stroke:#000000;stroke-width:2;}
	.st6{fill:#035911;}
	.st7{fill:#770E77;stroke:#770E77;stroke-width:0.7;stroke-miterlimit:10;}
	.st8{fill:#200B9B;stroke:#200B9B;stroke-width:0.7;stroke-miterlimit:10;}
	.st9{fill:#770E77;}
</style><sodipodi:namedview
     id="base"
     borderopacity="1.0"
     bordercolor="#666666"
     inkscape:cy="293.47695"
     pagecolor="#ffffff"
     inkscape:cx="467.79896"
     inkscape:zoom="1.4944444"
     showborder="false"
     showguides="true"
     gridtolerance="15px"
     showgrid="true"
     inkscape:pageopacity="0.0"
     inkscape:pageshadow="2"
     inkscape:document-units="px"
     inkscape:window-y="24"
     inkscape:window-height="1056"
     inkscape:guide-bbox="true"
     inkscape:window-x="65"
     inkscape:grid-points="true"
     inkscape:window-width="1855"
     inkscape:current-layer="layer1"
     inkscape:window-maximized="1"><inkscape:grid
       id="GridFromPre046Settings"
       type="xygrid"
       originx="0px"
       originy="0px"
       spacingx="7.5px"
       spacingy="7.5px"
       color="#0000ff"
       empcolor="#0000ff"
       opacity="0.12156863"
       empopacity="0.25098039"
       empspacing="4" /></sodipodi:namedview><g
     id="layer1"
     inkscape:label="Layer 1"
     inkscape:groupmode="layer"><path
       id="rect2252"
       class="st0"
       d="m 197.58024,-111.29708 59.83421,0 0,115.7168416 -59.83421,0 0,-115.7168416 z"
       style="fill:#ffffff;stroke:#000000;stroke-width:4.16047668;stroke-miterlimit:4;stroke-dasharray:none"
       inkscape:export-xdpi="180.21001"
       inkscape:export-ydpi="180.21001"
       inkscape:connector-curvature="0" /><path
       id="rect2254"
       class="st0"
       d="m 257.41445,-111.29708 59.83422,0 0,115.7168416 -59.83422,0 0,-115.7168416 z"
       style="fill:#ffffff;fill-opacity:1;stroke:#000000;stroke-width:4.16047668;stroke-miterlimit:4;stroke-dasharray:none"
       inkscape:export-xdpi="180.21001"
       inkscape:export-ydpi="180.21001"
       inkscape:connector-curvature="0" /><path
       id="rect2256"
       class="st0"
       d="m 317.24867,-111.29708 59.83422,0 0,115.7168416 -59.83422,0 0,-115.7168416 z"
       style="fill:#ffffff;fill-opacity:1;stroke:#000000;stroke-width:4.16047668;stroke-miterlimit:4;stroke-dasharray:none"
       inkscape:export-xdpi="180.21001"
       inkscape:export-ydpi="180.21001"
       inkscape:connector-curvature="0" /><path
       id="rect2258"
       class="st0"
       d="m 377.08289,-111.29708 59.83422,0 0,115.7168416 -59.83422,0 0,-115.7168416 z"
       style="fill:#ffffff;fill-opacity:1;stroke:#000000;stroke-width:4.16047668;stroke-miterlimit:4;stroke-dasharray:none"
       inkscape:export-xdpi="180.21001"
       inkscape:export-ydpi="180.21001"
       inkscape:connector-curvature="0" /><path
       id="rect2262"
       class="st0"
       d="m 436.91711,-111.29708 59.83422,0 0,115.7168416 -59.83422,0 0,-115.7168416 z"
       style="fill:#ffffff;fill-opacity:1;stroke:#000000;stroke-width:4.16047668;stroke-miterlimit:4;stroke-dasharray:none"
       inkscape:export-xdpi="180.21001"
       inkscape:export-ydpi="180.21001"
       inkscape:connector-curvature="0" /><path
       id="rect2264"
       class="st0"
       d="m 496.75133,-111.29708 59.83422,0 0,115.7168416 -59.83422,0 0,-115.7168416 z"
       style="fill:#ffffff;fill-opacity:1;stroke:#000000;stroke-width:4.16047668;stroke-miterlimit:4;stroke-dasharray:none"
       inkscape:export-xdpi="180.21001"
       inkscape:export-ydpi="180.21001"
       inkscape:connector-curvature="0" /><path
       id="rect2266"
       class="st0"
       d="m 556.58555,-111.29708 59.83421,0 0,115.7168416 -59.83421,0 0,-115.7168416 z"
       style="fill:#ffffff;fill-opacity:1;stroke:#000000;stroke-width:4.16047668;stroke-miterlimit:4;stroke-dasharray:none"
       inkscape:export-xdpi="180.21001"
       inkscape:export-ydpi="180.21001"
       inkscape:connector-curvature="0" /><path
       id="rect2236"
       class="st0"
       d="M527-115h60v60h-60V-115z"
       style="stroke:#ffffff;stroke-opacity:1;fill:#000000;fill-opacity:1;stroke-width:3;stroke-miterlimit:4;stroke-dasharray:none"
       inkscape:export-xdpi="180.21001"
       inkscape:export-ydpi="180.21001" /><path
       id="rect2222"
       class="st0"
       d="M227-115h60v60h-60V-115z"
       style="stroke:#ffffff;stroke-opacity:1;fill:#000000;fill-opacity:1;stroke-width:3;stroke-miterlimit:4;stroke-dasharray:none"
       inkscape:export-xdpi="180.21001"
       inkscape:export-ydpi="180.21001" /><path
       id="rect2228"
       class="st0"
       d="M287-115h60v60h-60V-115z"
       style="stroke:#ffffff;stroke-opacity:1;fill:#000000;fill-opacity:1;stroke-width:3;stroke-miterlimit:4;stroke-dasharray:none"
       inkscape:export-xdpi="180.21001"
       inkscape:export-ydpi="180.21001" /><path
       id="rect2232"
       class="st0"
       d="M407-115h60v60h-60V-115z"
       style="stroke:#ffffff;stroke-opacity:1;fill:#000000;fill-opacity:1;stroke-width:3;stroke-miterlimit:4;stroke-dasharray:none"
       inkscape:export-xdpi="180.21001"
       inkscape:export-ydpi="180.21001" /><path
       id="rect2234"
       class="st0"
       d="M467-115h60v60h-60V-115z"
       style="stroke:#ffffff;stroke-opacity:1;fill:#000000;fill-opacity:1;stroke-width:3;stroke-miterlimit:4;stroke-dasharray:none"
       inkscape:export-xdpi="180.21001"
       inkscape:export-ydpi="180.21001" /><path
       id="text5127"
       d="m 243.5,-94.6 c -0.4,0.7 -0.9,1.1 -1.5,1.5 -0.6,0.3 -1.2,0.5 -2,0.5 -1.2,0 -2.2,-0.3 -2.8,-1 -0.6,-0.7 -1,-1.7 -1,-3 0,-1.9 0.5,-3.4 1.6,-4.7 1.1,-1.3 2.4,-1.9 4,-1.9 0.6,0 1.2,0.1 1.6,0.4 0.5,0.3 0.8,0.6 1.1,1.1 l 0.6,-1.1 2.1,0 -1.7,7 c 0,0.1 0,0.2 -0.1,0.3 0,0.1 0,0.2 0,0.2 0,0.3 0.1,0.5 0.3,0.6 0.2,0.1 0.5,0.2 0.8,0.2 0.3,0 0.6,-0.1 0.9,-0.2 0.3,-0.2 0.6,-0.4 0.9,-0.7 0.7,-0.6 1.2,-1.4 1.5,-2.2 0.4,-0.8 0.5,-1.8 0.5,-2.8 0,-1.9 -0.7,-3.4 -2.2,-4.6 -1.4,-1.2 -3.3,-1.8 -5.6,-1.8 -1.1,0 -2.1,0.1 -3.1,0.4 -0.9,0.3 -1.8,0.7 -2.6,1.2 -1.3,0.9 -2.4,2 -3.1,3.3 -0.7,1.3 -1.1,2.8 -1.1,4.4 0,2.4 0.8,4.3 2.4,5.8 1.6,1.4 3.8,2.1 6.5,2.1 1.3,0 2.5,-0.2 3.7,-0.6 1.2,-0.4 2.3,-0.9 3.4,-1.7 l 1,1.4 c -1.2,0.9 -2.5,1.6 -3.8,2 -1.3,0.5 -2.7,0.7 -4.2,0.7 -1.5,0 -2.9,-0.2 -4.1,-0.6 -1.3,-0.4 -2.4,-0.9 -3.4,-1.7 -1.2,-0.9 -2.1,-2 -2.7,-3.3 -0.6,-1.3 -0.9,-2.6 -0.9,-4.2 0,-1.3 0.2,-2.5 0.6,-3.7 0.4,-1.2 1,-2.3 1.8,-3.2 1.2,-1.4 2.5,-2.5 4.2,-3.2 1.7,-0.7 3.4,-1.1 5.4,-1.1 1.3,0 2.6,0.2 3.7,0.5 1.2,0.4 2.2,0.9 3,1.5 1.1,0.8 1.8,1.8 2.4,2.8 0.5,1 0.8,2.2 0.8,3.6 0,1.3 -0.3,2.5 -0.8,3.6 -0.5,1.1 -1.2,2 -2.2,2.8 -0.5,0.4 -1.1,0.8 -1.8,1 -0.6,0.2 -1.3,0.3 -2,0.3 -0.8,0 -1.5,-0.2 -1.9,-0.5 0,-0.2 -0.2,-0.7 -0.2,-1.4 m 0.6,-5 c -0.1,-0.6 -0.3,-1.1 -0.7,-1.4 -0.3,-0.3 -0.8,-0.5 -1.4,-0.5 -0.9,0 -1.7,0.5 -2.3,1.5 -0.7,1 -1,2.1 -1,3.5 0,0.7 0.2,1.3 0.5,1.6 0.3,0.4 0.8,0.6 1.4,0.6 0.6,0 1.2,-0.2 1.8,-0.7 0.5,-0.5 0.9,-1.1 1.1,-1.9 l 0.6,-2.7 m -8.5,38.2 c 0,-1.5 0.3,-2.8 1,-3.8 0.6,-1 1.7,-2.1 3.3,-3.2 0.2,-0.2 0.6,-0.4 1.1,-0.7 2.1,-1.4 3.2,-2.7 3.2,-3.9 0,-0.7 -0.2,-1.3 -0.7,-1.8 -0.5,-0.5 -1.1,-0.6 -1.8,-0.6 -0.8,0 -1.5,0.3 -2,0.8 -0.5,0.5 -0.7,1.3 -0.7,2.3 l 0,0.1 -3.1,0 c 0,-1.9 0.5,-3.4 1.5,-4.4 1,-1 2.5,-1.6 4.4,-1.6 1.7,0 3.1,0.5 4.1,1.4 1,0.9 1.5,2.2 1.5,3.8 0,1.1 -0.3,2.1 -0.8,2.9 -0.5,0.8 -1.6,1.8 -3.1,2.8 -0.3,0.2 -0.8,0.5 -1.4,0.9 -1.5,0.9 -2.3,1.7 -2.5,2.2 l 7.6,0 0,2.9 -11.6,-0.1"
       clip-path="url(#clipPath6469)"
       style="fill:#ffffff;fill-opacity:1;stroke:none;stroke-opacity:1"
       inkscape:export-xdpi="180.21001"
       inkscape:export-ydpi="180.21001"
       inkscape:connector-curvature="0"
       transform="matrix(1.2423534,0,0,1.2423534,-42.820784,2.5676751)" /><path
       id="text5139"
       d="m 302.3,-101.3 -1,2.9 2.9,0 1,-2.9 -2.9,0 m 0,-7.2 2.6,0 -1.7,4.9 2.8,0 1.7,-4.9 2.6,0 -1.7,4.9 3.3,0 -0.9,2.4 -3.3,0 -1,2.8 3.4,0 -0.8,2.3 -3.4,0 -1.7,4.9 -2.6,0 1.7,-4.9 -2.9,0 -1.7,4.9 -2.6,0 1.7,-4.9 -3.4,0 0.9,-2.3 3.3,0 1,-2.8 -3.5,0 0.9,-2.4 3.5,0 1.8,-4.9 m -5.2,42 3.2,0 c 0,0.9 0.2,1.6 0.7,2.1 0.4,0.5 1.1,0.7 2,0.7 0.8,0 1.5,-0.2 1.9,-0.7 0.5,-0.4 0.7,-1.1 0.7,-1.9 0,-0.8 -0.3,-1.5 -0.8,-1.9 -0.5,-0.4 -1.3,-0.6 -2.4,-0.6 -0.1,0 -0.1,0 -0.3,0 -0.1,0 -0.2,0 -0.2,0 l 0,-2.2 0.4,0 c 1,0 1.7,-0.2 2.1,-0.6 0.5,-0.4 0.7,-1 0.7,-1.7 0,-0.6 -0.2,-1.2 -0.6,-1.5 -0.4,-0.4 -0.9,-0.6 -1.6,-0.6 -0.7,0 -1.3,0.2 -1.7,0.7 -0.4,0.5 -0.6,1.1 -0.6,1.9 l 0,0.1 -3.2,0 c 0,-1.7 0.5,-3 1.5,-3.9 1,-0.9 2.4,-1.4 4.1,-1.4 1.7,0 3,0.4 4,1.2 1,0.8 1.5,1.9 1.5,3.3 0,0.7 -0.2,1.4 -0.5,1.9 -0.3,0.5 -0.8,1 -1.5,1.4 0.9,0.4 1.5,0.9 1.9,1.6 0.4,0.7 0.7,1.4 0.7,2.4 0,1.7 -0.6,3 -1.7,4 -1.1,1 -2.6,1.5 -4.5,1.5 -1.9,0 -3.3,-0.5 -4.4,-1.4 -0.9,-1.2 -1.4,-2.5 -1.4,-4.4 l 0,0"
       clip-path="url(#clipPath6465)"
       style="fill:#ffffff;fill-opacity:1;stroke:none;stroke-opacity:1"
       inkscape:export-xdpi="180.21001"
       inkscape:export-ydpi="180.21001"
       inkscape:connector-curvature="0"
       transform="matrix(1.2423534,0,0,1.2423534,-58.820784,2.5676751)" /><path
       id="text5151"
       d="m 427.4,-95.3 c 0,0.5 0.2,1 0.5,1.3 0.4,0.4 0.8,0.5 1.3,0.5 0.5,0 0.9,-0.2 1.3,-0.5 0.4,-0.4 0.5,-0.8 0.5,-1.3 0,-0.5 -0.2,-0.9 -0.5,-1.3 -0.4,-0.4 -0.8,-0.5 -1.3,-0.5 -0.5,0 -0.9,0.2 -1.3,0.5 -0.3,0.4 -0.5,0.8 -0.5,1.3 m -2.5,0 c 0,-1.2 0.4,-2.2 1.3,-3.1 0.8,-0.8 1.9,-1.3 3.1,-1.3 1.2,0 2.2,0.4 3.1,1.3 0.9,0.8 1.3,1.9 1.3,3.1 0,1.2 -0.4,2.2 -1.3,3.1 -0.9,0.9 -1.9,1.3 -3.1,1.3 -1.2,0 -2.3,-0.4 -3.1,-1.3 -0.9,-0.8 -1.3,-1.8 -1.3,-3.1 m -6.8,4.4 10,-17.3 1.9,0 -10,17.3 -1.9,0 m -1.1,-12.9 c 0,0.5 0.2,0.9 0.5,1.3 0.4,0.4 0.8,0.5 1.3,0.5 0.5,0 0.9,-0.2 1.3,-0.5 0.4,-0.4 0.5,-0.8 0.5,-1.3 0,-0.5 -0.2,-0.9 -0.5,-1.3 -0.4,-0.4 -0.8,-0.5 -1.3,-0.5 -0.5,0 -0.9,0.2 -1.3,0.5 -0.3,0.4 -0.5,0.8 -0.5,1.3 m -2.5,0 c 0,-1.2 0.4,-2.3 1.3,-3.1 0.8,-0.9 1.9,-1.3 3.1,-1.3 1.2,0 2.2,0.4 3.1,1.3 0.9,0.9 1.3,1.9 1.3,3.1 0,1.2 -0.4,2.2 -1.3,3.1 -0.8,0.8 -1.9,1.3 -3.1,1.3 -1.2,0 -2.3,-0.4 -3.1,-1.3 -0.9,-0.8 -1.3,-1.9 -1.3,-3.1 m 3.4,37.9 3.3,0 c 0.1,0.7 0.3,1.3 0.7,1.7 0.4,0.4 1,0.6 1.8,0.6 0.9,0 1.6,-0.3 2.1,-0.8 0.5,-0.5 0.7,-1.3 0.7,-2.3 0,-0.9 -0.2,-1.7 -0.7,-2.2 -0.5,-0.5 -1.2,-0.8 -2,-0.8 -0.5,0 -0.9,0.1 -1.3,0.3 -0.4,0.2 -0.7,0.5 -0.9,0.9 l -3,-0.2 1.1,-9 9.6,0 0,2.8 -7.3,0 -0.4,3.4 c 0.4,-0.3 0.8,-0.5 1.3,-0.6 0.5,-0.1 1,-0.2 1.6,-0.2 1.7,0 3,0.5 4,1.5 1,1 1.5,2.3 1.5,4 0,1.8 -0.6,3.2 -1.7,4.3 -1.1,1.1 -2.7,1.6 -4.6,1.6 -1.7,0 -3.1,-0.4 -4.1,-1.3 -1.1,-0.9 -1.7,-2.1 -1.7,-3.7"
       clip-path="url(#clipPath6461)"
       style="fill:#ffffff;fill-opacity:1;stroke:none;stroke-opacity:1"
       inkscape:export-xdpi="180.21001"
       inkscape:export-ydpi="180.21001"
       inkscape:connector-curvature="0"
       transform="matrix(1.2423534,0,0,1.2423534,-90.820784,2.5676751)" /><path
       id="text5157"
       d="m 480.1,-108.5 3,0 5.6,6.6 -2.7,0 -4.3,-4.3 -4.4,4.3 -2.8,0 5.6,-6.6 m -0.9,41.8 c 0,1 0.2,1.7 0.7,2.3 0.5,0.6 1.1,0.8 2,0.8 0.8,0 1.4,-0.3 1.8,-0.8 0.4,-0.5 0.7,-1.3 0.7,-2.3 0,-0.9 -0.2,-1.6 -0.7,-2.1 -0.5,-0.5 -1.1,-0.8 -1.9,-0.8 -0.8,0 -1.4,0.3 -1.9,0.8 -0.5,0.5 -0.7,1.2 -0.7,2.1 m -0.1,-4.4 c 0.4,-0.4 0.8,-0.7 1.4,-0.9 0.5,-0.2 1.1,-0.3 1.8,-0.3 1.6,0 3,0.5 3.9,1.5 1,1 1.5,2.3 1.5,4 0,1.8 -0.5,3.2 -1.6,4.3 -1.1,1.1 -2.5,1.6 -4.3,1.6 -2,0 -3.6,-0.7 -4.7,-2.1 -1.1,-1.4 -1.6,-3.5 -1.6,-6.2 0,-2.9 0.6,-5.1 1.7,-6.7 1.1,-1.5 2.8,-2.3 4.9,-2.3 1.5,0 2.7,0.4 3.6,1.2 0.9,0.8 1.4,1.8 1.5,3.1 l -3.4,0 c -0.1,-0.5 -0.3,-0.9 -0.6,-1.2 -0.3,-0.3 -0.8,-0.4 -1.4,-0.4 -0.8,0 -1.5,0.4 -1.9,1.1 -0.5,0.7 -0.7,1.8 -0.8,3.3"
       clip-path="url(#clipPath6457)"
       style="fill:#ffffff;fill-opacity:1;stroke:none;stroke-opacity:1"
       inkscape:export-xdpi="180.21001"
       inkscape:export-ydpi="180.21001"
       inkscape:connector-curvature="0"
       transform="matrix(1.2423534,0,0,1.2423534,-100.82078,2.5676751)" /><path
       id="text5163"
       d="m 539.9,-98.9 -0.9,0.6 c -0.4,0.3 -0.6,0.6 -0.8,0.9 -0.2,0.4 -0.3,0.7 -0.3,1.2 0,0.7 0.2,1.2 0.7,1.7 0.5,0.5 1,0.7 1.7,0.7 0.5,0 1,-0.1 1.4,-0.3 0.5,-0.2 0.9,-0.5 1.3,-0.9 l -3.1,-3.9 m 0.9,-3.7 0.4,-0.3 c 0.4,-0.3 0.7,-0.5 0.8,-0.9 0.2,-0.3 0.3,-0.7 0.3,-1.1 0,-0.4 -0.1,-0.7 -0.4,-0.9 -0.2,-0.2 -0.6,-0.4 -1,-0.4 -0.4,0 -0.8,0.1 -1,0.4 -0.3,0.2 -0.4,0.6 -0.4,1 0,0.2 0.1,0.5 0.2,0.7 0.1,0.3 0.3,0.5 0.5,0.8 l 0.6,0.7 m -2.6,1.6 -0.7,-0.9 c -0.4,-0.5 -0.6,-0.9 -0.8,-1.3 -0.1,-0.4 -0.2,-0.8 -0.2,-1.3 0,-1.3 0.4,-2.2 1.2,-3 0.8,-0.7 1.9,-1.1 3.3,-1.1 1.3,0 2.4,0.3 3.1,1 0.7,0.7 1.1,1.6 1.1,2.8 0,0.9 -0.2,1.7 -0.7,2.4 -0.4,0.7 -1.1,1.3 -2.1,1.9 l 2.5,3 c 0.2,-0.4 0.4,-0.8 0.6,-1.3 0.1,-0.5 0.2,-1 0.3,-1.6 l 3,0 c -0.1,1 -0.3,2 -0.6,2.8 -0.3,0.9 -0.8,1.7 -1.4,2.4 l 3.1,3.8 -4,0 -1.2,-1.4 c -0.7,0.6 -1.4,1.1 -2.3,1.4 -0.8,0.3 -1.7,0.5 -2.6,0.5 -1.6,0 -2.9,-0.5 -3.9,-1.4 -1,-0.9 -1.5,-2.2 -1.5,-3.6 0,-1.1 0.3,-2 0.8,-2.8 0.5,-0.8 1.6,-1.6 3,-2.3 m 3.5,39.6 -3.5,0 c 0.1,-2.3 0.7,-4.6 1.7,-6.8 1,-2.3 2.4,-4.5 4.2,-6.6 l -8.3,0 0,-2.9 11.9,0 0,2.5 c -1.8,2 -3.3,4.2 -4.3,6.4 -1,2.4 -1.6,4.8 -1.7,7.4"
       clip-path="url(#clipPath6453)"
       style="fill:#ffffff;fill-opacity:0.95499998;stroke:none;stroke-opacity:1"
       inkscape:export-xdpi="180.21001"
       inkscape:export-ydpi="180.21001"
       inkscape:connector-curvature="0"
       transform="matrix(1.2423534,0,0,1.2423534,-114.82078,2.5676751)" /><path
       id="text5474"
       d="m 229.16709,-19.868094 -2.23624,-2.236236 2.36047,-2.484707 2.36047,2.236236 c 0.37271,-0.621176 0.49695,-1.242353 0.74542,-1.987765 0.24847,-0.745412 0.24847,-1.61506 0.24847,-2.484707 0,-2.360472 -0.49694,-4.224002 -1.61506,-5.466355 -1.11812,-1.366589 -2.48471,-1.987766 -4.47247,-1.987766 -1.86353,0 -3.35436,0.621177 -4.34824,1.987766 -0.99388,1.242353 -1.61506,3.105883 -1.61506,5.466355 0,2.360471 0.49694,4.224002 1.61506,5.466355 0.99388,1.242353 2.48471,1.987766 4.34824,1.987766 0.49694,0 0.99388,0 1.36658,-0.124236 0.37271,-0.124235 0.86965,-0.24847 1.24236,-0.372706 m 3.10588,2.857413 c -0.74541,0.496942 -1.61506,0.869648 -2.60894,1.118118 -0.99388,0.248471 -1.98777,0.372706 -3.10588,0.372706 -3.23012,0 -5.71483,-0.993882 -7.7026,-3.105883 -1.86353,-1.987766 -2.85741,-4.845179 -2.85741,-8.199533 0,-3.47859 0.99388,-6.211767 2.85741,-8.199533 1.86353,-1.987765 4.47248,-3.105883 7.7026,-3.105883 3.23011,0 5.71482,0.993882 7.70259,3.105883 1.86353,1.987766 2.85741,4.845179 2.85741,8.199533 0,1.490824 -0.24847,2.857413 -0.62118,4.224002 -0.3727,1.242353 -0.99388,2.360471 -1.73929,3.230119 l 2.36047,2.236236 -2.36047,2.484707 -2.48471,-2.360472"
       inkscape:export-xdpi="180.21001"
       inkscape:export-ydpi="180.21001"
       inkscape:connector-curvature="0" /><path
       id="text5482"
       d="m 279.521,-16.141034 -6.08754,-21.368479 4.59671,0 3.72706,15.156712 3.10589,-15.156712 4.72094,0 3.10588,15.156712 3.72706,-15.156712 4.47248,0 -6.08754,21.492715 -4.224,0 -3.47859,-16.523301 -3.35435,16.399066 -4.224,0"
       inkscape:export-xdpi="180.21001"
       inkscape:export-ydpi="180.21001"
       inkscape:connector-curvature="0" /><path
       id="text5492"
       d="m 339.56526,-16.141034 0,-21.492714 15.52942,0 0,3.72706 -11.18118,0 0,4.596708 10.31153,0 0,3.72706 -10.31153,0 0,5.466355 11.67812,0 0,3.975531 -16.02636,0"
       inkscape:export-xdpi="180.21001"
       inkscape:export-ydpi="180.21001"
       inkscape:connector-curvature="0" /><path
       id="text5500"
       d="m 403.70929,-28.191862 5.21789,0 c 1.11812,0 1.98776,-0.248471 2.4847,-0.745412 0.49695,-0.496941 0.74542,-1.118118 0.74542,-2.112001 0,-0.993883 -0.24847,-1.615059 -0.74542,-2.112001 -0.49694,-0.496941 -1.24235,-0.745412 -2.36047,-0.745412 l -5.34212,0 0,5.714826 m -4.34823,12.050828 0,-21.492714 10.43576,0 c 2.36048,0 4.09977,0.496941 5.21789,1.490824 1.11812,0.993883 1.73929,2.484707 1.73929,4.596708 0,1.366589 -0.24847,2.360471 -0.86964,3.230119 -0.49694,0.869647 -1.36659,1.490824 -2.36048,1.739295 0.99389,0.372706 1.61506,0.869647 1.98777,1.490824 0.37271,0.621176 0.62118,1.739295 0.74541,3.230119 l 0.12424,2.484707 c 0,0 0,0 0,0.124235 0,1.242353 0.24847,2.112001 0.86965,2.360471 l 0,0.621177 -4.84518,0 c -0.12424,-0.248471 -0.24847,-0.621177 -0.37271,-1.118118 -0.12423,-0.496941 -0.12423,-0.993883 -0.12423,-1.615059 l 0,-2.236237 c 0,-1.366588 -0.24848,-2.236236 -0.74542,-2.733177 -0.49694,-0.496942 -1.24235,-0.745412 -2.4847,-0.745412 l -4.72095,0 0,8.323768 -4.5967,0.24847"
       inkscape:export-xdpi="180.21001"
       inkscape:export-ydpi="180.21001"
       inkscape:connector-curvature="0" /><path
       id="text5504"
       d="m 464.48674,-16.141034 0,-17.641418 -6.33601,0 0,-3.851296 17.14448,0 0,3.851296 -6.336,0 0,17.641419 -4.47247,0"
       inkscape:export-xdpi="180.21001"
       inkscape:export-ydpi="180.21001"
       inkscape:connector-curvature="0" /><path
       id="text5518"
       d="m 529.87312,-16.141034 -4.47247,0 0,-7.951062 -7.82683,-13.417417 5.34212,0 4.59671,9.193416 4.224,-9.193416 5.09365,0 -7.08141,13.417417 0.12423,7.951062"
       inkscape:export-xdpi="180.21001"
       inkscape:export-ydpi="180.21001"
       inkscape:connector-curvature="0" /><path
       id="text5522"
       d="m 579.23315,-37.882219 4.47247,0 0,13.417417 c 0,1.61506 0.3727,2.857413 0.99388,3.602825 0.62118,0.745412 1.7393,1.118119 3.10588,1.118119 1.49083,0 2.48471,-0.372707 3.23012,-1.118119 0.62118,-0.745412 0.99389,-1.987765 0.99389,-3.602825 l 0,-13.417417 4.47247,0 0,13.914359 c 0,2.608942 -0.74541,4.596708 -2.23624,6.087532 -1.49082,1.366589 -3.60282,2.112 -6.336,2.112 -2.73318,0 -4.96941,-0.745411 -6.46024,-2.112 -1.49082,-1.366589 -2.23623,-3.47859 -2.23623,-6.087532 l 0,-13.914359"
       inkscape:export-xdpi="180.21001"
       inkscape:export-ydpi="180.21001"
       inkscape:connector-curvature="0" /><path
       inkscape:connector-curvature="0"
       id="rect2218-3"
       class="st0"
       d="m 152.91553,-269.7619 60,0 0,60 -60,0 0,-60 z"
       style="fill:#dfdfdf;fill-opacity:1;stroke:#000000" /><path
       inkscape:connector-curvature="0"
       id="rect2222-6"
       class="st0"
       d="m 212.91553,-269.7619 60,0 0,60 -60,0 0,-60 z"
       style="fill:#ffffff;stroke:#000000" /><path
       inkscape:connector-curvature="0"
       id="rect2228-0"
       class="st0"
       d="m 272.91553,-269.7619 60,0 0,60 -60,0 0,-60 z"
       style="fill:#ffffff;stroke:#000000" /><path
       inkscape:connector-curvature="0"
       id="rect2230-6"
       class="st0"
       d="m 332.91553,-269.7619 60,0 0,60 -60,0 0,-60 z"
       style="fill:#dfdfdf;fill-opacity:1;stroke:#000000" /><path
       inkscape:connector-curvature="0"
       id="rect2232-2"
       class="st0"
       d="m 392.91553,-269.7619 60,0 0,60 -60,0 0,-60 z"
       style="fill:#ffffff;stroke:#000000" /><path
       inkscape:connector-curvature="0"
       id="rect2234-6"
       class="st0"
       d="m 452.91553,-269.7619 60,0 0,60 -60,0 0,-60 z"
       style="fill:#ffffff;stroke:#000000" /><path
       inkscape:connector-curvature="0"
       id="rect2236-1"
       class="st0"
       d="m 512.91553,-269.7619 60,0 0,60 -60,0 0,-60 z"
       style="fill:#ffffff;stroke:#000000" /><path
       inkscape:connector-curvature="0"
       id="rect2238-8"
       class="st0"
       d="m 572.91553,-269.7619 60,0 0,60 -60,0 0,-60 z"
       style="fill:#dfdfdf;fill-opacity:1;stroke:#000000" /><path
       inkscape:connector-curvature="0"
       id="rect2250-7"
       class="st1"
       d="m 92.915529,-209.7619 90.000001,0 0,60 -90.000001,0 0,-60 z"
       style="fill:#dfdfdf;stroke:#000000" /><path
       inkscape:connector-curvature="0"
       id="rect2252-9"
       class="st0"
       d="m 182.91553,-209.7619 60,0 0,60 -60,0 0,-60 z"
       style="fill:#ffffff;stroke:#000000" /><path
       inkscape:connector-curvature="0"
       id="rect2254-2"
       class="st0"
       d="m 242.91553,-209.7619 60,0 0,60 -60,0 0,-60 z"
       style="fill:#ffffff;stroke:#000000" /><path
       inkscape:connector-curvature="0"
       id="rect2256-0"
       class="st0"
       d="m 302.91553,-209.7619 60,0 0,60 -60,0 0,-60 z"
       style="fill:#ffffff;stroke:#000000" /><path
       inkscape:connector-curvature="0"
       id="rect2258-2"
       class="st0"
       d="m 362.91553,-209.7619 60,0 0,60 -60,0 0,-60 z"
       style="fill:#ffffff;stroke:#000000" /><path
       inkscape:connector-curvature="0"
       id="rect2262-3"
       class="st0"
       d="m 422.91553,-209.7619 60,0 0,60 -60,0 0,-60 z"
       style="fill:#ffffff;stroke:#000000" /><path
       inkscape:connector-curvature="0"
       id="rect2264-7"
       class="st0"
       d="m 482.91553,-209.7619 60,0 0,60 -60,0 0,-60 z"
       style="fill:#ffffff;stroke:#000000" /><path
       inkscape:connector-curvature="0"
       id="rect2266-5"
       class="st0"
       d="m 542.91553,-209.7619 60,0 0,60 -60,0 0,-60 z"
       style="fill:#ffffff;stroke:#000000" /><path
       inkscape:connector-curvature="0"
       id="text5127-9"
       d="m 243.5,-94.6 c -0.4,0.7 -0.9,1.1 -1.5,1.5 -0.6,0.3 -1.2,0.5 -2,0.5 -1.2,0 -2.2,-0.3 -2.8,-1 -0.6,-0.7 -1,-1.7 -1,-3 0,-1.9 0.5,-3.4 1.6,-4.7 1.1,-1.3 2.4,-1.9 4,-1.9 0.6,0 1.2,0.1 1.6,0.4 0.5,0.3 0.8,0.6 1.1,1.1 l 0.6,-1.1 2.1,0 -1.7,7 c 0,0.1 0,0.2 -0.1,0.3 0,0.1 0,0.2 0,0.2 0,0.3 0.1,0.5 0.3,0.6 0.2,0.1 0.5,0.2 0.8,0.2 0.3,0 0.6,-0.1 0.9,-0.2 0.3,-0.2 0.6,-0.4 0.9,-0.7 0.7,-0.6 1.2,-1.4 1.5,-2.2 0.4,-0.8 0.5,-1.8 0.5,-2.8 0,-1.9 -0.7,-3.4 -2.2,-4.6 -1.4,-1.2 -3.3,-1.8 -5.6,-1.8 -1.1,0 -2.1,0.1 -3.1,0.4 -0.9,0.3 -1.8,0.7 -2.6,1.2 -1.3,0.9 -2.4,2 -3.1,3.3 -0.7,1.3 -1.1,2.8 -1.1,4.4 0,2.4 0.8,4.3 2.4,5.8 1.6,1.4 3.8,2.1 6.5,2.1 1.3,0 2.5,-0.2 3.7,-0.6 1.2,-0.4 2.3,-0.9 3.4,-1.7 l 1,1.4 c -1.2,0.9 -2.5,1.6 -3.8,2 -1.3,0.5 -2.7,0.7 -4.2,0.7 -1.5,0 -2.9,-0.2 -4.1,-0.6 -1.3,-0.4 -2.4,-0.9 -3.4,-1.7 -1.2,-0.9 -2.1,-2 -2.7,-3.3 -0.6,-1.3 -0.9,-2.6 -0.9,-4.2 0,-1.3 0.2,-2.5 0.6,-3.7 0.4,-1.2 1,-2.3 1.8,-3.2 1.2,-1.4 2.5,-2.5 4.2,-3.2 1.7,-0.7 3.4,-1.1 5.4,-1.1 1.3,0 2.6,0.2 3.7,0.5 1.2,0.4 2.2,0.9 3,1.5 1.1,0.8 1.8,1.8 2.4,2.8 0.5,1 0.8,2.2 0.8,3.6 0,1.3 -0.3,2.5 -0.8,3.6 -0.5,1.1 -1.2,2 -2.2,2.8 -0.5,0.4 -1.1,0.8 -1.8,1 -0.6,0.2 -1.3,0.3 -2,0.3 -0.8,0 -1.5,-0.2 -1.9,-0.5 0,-0.2 -0.2,-0.7 -0.2,-1.4 m 0.6,-5 c -0.1,-0.6 -0.3,-1.1 -0.7,-1.4 -0.3,-0.3 -0.8,-0.5 -1.4,-0.5 -0.9,0 -1.7,0.5 -2.3,1.5 -0.7,1 -1,2.1 -1,3.5 0,0.7 0.2,1.3 0.5,1.6 0.3,0.4 0.8,0.6 1.4,0.6 0.6,0 1.2,-0.2 1.8,-0.7 0.5,-0.5 0.9,-1.1 1.1,-1.9 l 0.6,-2.7 m -8.5,38.2 c 0,-1.5 0.3,-2.8 1,-3.8 0.6,-1 1.7,-2.1 3.3,-3.2 0.2,-0.2 0.6,-0.4 1.1,-0.7 2.1,-1.4 3.2,-2.7 3.2,-3.9 0,-0.7 -0.2,-1.3 -0.7,-1.8 -0.5,-0.5 -1.1,-0.6 -1.8,-0.6 -0.8,0 -1.5,0.3 -2,0.8 -0.5,0.5 -0.7,1.3 -0.7,2.3 l 0,0.1 -3.1,0 c 0,-1.9 0.5,-3.4 1.5,-4.4 1,-1 2.5,-1.6 4.4,-1.6 1.7,0 3.1,0.5 4.1,1.4 1,0.9 1.5,2.2 1.5,3.8 0,1.1 -0.3,2.1 -0.8,2.9 -0.5,0.8 -1.6,1.8 -3.1,2.8 -0.3,0.2 -0.8,0.5 -1.4,0.9 -1.5,0.9 -2.3,1.7 -2.5,2.2 l 7.6,0 0,2.9 -11.6,-0.1"
       clip-path="url(#clipPath6469-0)"
       transform="translate(-14.084471,-154.7619)" /><path
       inkscape:connector-curvature="0"
       id="text5139-2"
       d="m 302.3,-101.3 -1,2.9 2.9,0 1,-2.9 -2.9,0 m 0,-7.2 2.6,0 -1.7,4.9 2.8,0 1.7,-4.9 2.6,0 -1.7,4.9 3.3,0 -0.9,2.4 -3.3,0 -1,2.8 3.4,0 -0.8,2.3 -3.4,0 -1.7,4.9 -2.6,0 1.7,-4.9 -2.9,0 -1.7,4.9 -2.6,0 1.7,-4.9 -3.4,0 0.9,-2.3 3.3,0 1,-2.8 -3.5,0 0.9,-2.4 3.5,0 1.8,-4.9 m -5.2,42 3.2,0 c 0,0.9 0.2,1.6 0.7,2.1 0.4,0.5 1.1,0.7 2,0.7 0.8,0 1.5,-0.2 1.9,-0.7 0.5,-0.4 0.7,-1.1 0.7,-1.9 0,-0.8 -0.3,-1.5 -0.8,-1.9 -0.5,-0.4 -1.3,-0.6 -2.4,-0.6 -0.1,0 -0.1,0 -0.3,0 -0.1,0 -0.2,0 -0.2,0 l 0,-2.2 0.4,0 c 1,0 1.7,-0.2 2.1,-0.6 0.5,-0.4 0.7,-1 0.7,-1.7 0,-0.6 -0.2,-1.2 -0.6,-1.5 -0.4,-0.4 -0.9,-0.6 -1.6,-0.6 -0.7,0 -1.3,0.2 -1.7,0.7 -0.4,0.5 -0.6,1.1 -0.6,1.9 l 0,0.1 -3.2,0 c 0,-1.7 0.5,-3 1.5,-3.9 1,-0.9 2.4,-1.4 4.1,-1.4 1.7,0 3,0.4 4,1.2 1,0.8 1.5,1.9 1.5,3.3 0,0.7 -0.2,1.4 -0.5,1.9 -0.3,0.5 -0.8,1 -1.5,1.4 0.9,0.4 1.5,0.9 1.9,1.6 0.4,0.7 0.7,1.4 0.7,2.4 0,1.7 -0.6,3 -1.7,4 -1.1,1 -2.6,1.5 -4.5,1.5 -1.9,0 -3.3,-0.5 -4.4,-1.4 -0.9,-1.2 -1.4,-2.5 -1.4,-4.4 l 0,0"
       clip-path="url(#clipPath6465-2)"
       transform="translate(-14.084471,-154.7619)" /><path
       inkscape:connector-curvature="0"
       id="text5151-2"
       d="m 427.4,-95.3 c 0,0.5 0.2,1 0.5,1.3 0.4,0.4 0.8,0.5 1.3,0.5 0.5,0 0.9,-0.2 1.3,-0.5 0.4,-0.4 0.5,-0.8 0.5,-1.3 0,-0.5 -0.2,-0.9 -0.5,-1.3 -0.4,-0.4 -0.8,-0.5 -1.3,-0.5 -0.5,0 -0.9,0.2 -1.3,0.5 -0.3,0.4 -0.5,0.8 -0.5,1.3 m -2.5,0 c 0,-1.2 0.4,-2.2 1.3,-3.1 0.8,-0.8 1.9,-1.3 3.1,-1.3 1.2,0 2.2,0.4 3.1,1.3 0.9,0.8 1.3,1.9 1.3,3.1 0,1.2 -0.4,2.2 -1.3,3.1 -0.9,0.9 -1.9,1.3 -3.1,1.3 -1.2,0 -2.3,-0.4 -3.1,-1.3 -0.9,-0.8 -1.3,-1.8 -1.3,-3.1 m -6.8,4.4 10,-17.3 1.9,0 -10,17.3 -1.9,0 m -1.1,-12.9 c 0,0.5 0.2,0.9 0.5,1.3 0.4,0.4 0.8,0.5 1.3,0.5 0.5,0 0.9,-0.2 1.3,-0.5 0.4,-0.4 0.5,-0.8 0.5,-1.3 0,-0.5 -0.2,-0.9 -0.5,-1.3 -0.4,-0.4 -0.8,-0.5 -1.3,-0.5 -0.5,0 -0.9,0.2 -1.3,0.5 -0.3,0.4 -0.5,0.8 -0.5,1.3 m -2.5,0 c 0,-1.2 0.4,-2.3 1.3,-3.1 0.8,-0.9 1.9,-1.3 3.1,-1.3 1.2,0 2.2,0.4 3.1,1.3 0.9,0.9 1.3,1.9 1.3,3.1 0,1.2 -0.4,2.2 -1.3,3.1 -0.8,0.8 -1.9,1.3 -3.1,1.3 -1.2,0 -2.3,-0.4 -3.1,-1.3 -0.9,-0.8 -1.3,-1.9 -1.3,-3.1 m 3.4,37.9 3.3,0 c 0.1,0.7 0.3,1.3 0.7,1.7 0.4,0.4 1,0.6 1.8,0.6 0.9,0 1.6,-0.3 2.1,-0.8 0.5,-0.5 0.7,-1.3 0.7,-2.3 0,-0.9 -0.2,-1.7 -0.7,-2.2 -0.5,-0.5 -1.2,-0.8 -2,-0.8 -0.5,0 -0.9,0.1 -1.3,0.3 -0.4,0.2 -0.7,0.5 -0.9,0.9 l -3,-0.2 1.1,-9 9.6,0 0,2.8 -7.3,0 -0.4,3.4 c 0.4,-0.3 0.8,-0.5 1.3,-0.6 0.5,-0.1 1,-0.2 1.6,-0.2 1.7,0 3,0.5 4,1.5 1,1 1.5,2.3 1.5,4 0,1.8 -0.6,3.2 -1.7,4.3 -1.1,1.1 -2.7,1.6 -4.6,1.6 -1.7,0 -3.1,-0.4 -4.1,-1.3 -1.1,-0.9 -1.7,-2.1 -1.7,-3.7"
       clip-path="url(#clipPath6461-9)"
       transform="translate(-14.084471,-154.7619)" /><path
       inkscape:connector-curvature="0"
       id="text5157-8"
       d="m 480.1,-108.5 3,0 5.6,6.6 -2.7,0 -4.3,-4.3 -4.4,4.3 -2.8,0 5.6,-6.6 m -0.9,41.8 c 0,1 0.2,1.7 0.7,2.3 0.5,0.6 1.1,0.8 2,0.8 0.8,0 1.4,-0.3 1.8,-0.8 0.4,-0.5 0.7,-1.3 0.7,-2.3 0,-0.9 -0.2,-1.6 -0.7,-2.1 -0.5,-0.5 -1.1,-0.8 -1.9,-0.8 -0.8,0 -1.4,0.3 -1.9,0.8 -0.5,0.5 -0.7,1.2 -0.7,2.1 m -0.1,-4.4 c 0.4,-0.4 0.8,-0.7 1.4,-0.9 0.5,-0.2 1.1,-0.3 1.8,-0.3 1.6,0 3,0.5 3.9,1.5 1,1 1.5,2.3 1.5,4 0,1.8 -0.5,3.2 -1.6,4.3 -1.1,1.1 -2.5,1.6 -4.3,1.6 -2,0 -3.6,-0.7 -4.7,-2.1 -1.1,-1.4 -1.6,-3.5 -1.6,-6.2 0,-2.9 0.6,-5.1 1.7,-6.7 1.1,-1.5 2.8,-2.3 4.9,-2.3 1.5,0 2.7,0.4 3.6,1.2 0.9,0.8 1.4,1.8 1.5,3.1 l -3.4,0 c -0.1,-0.5 -0.3,-0.9 -0.6,-1.2 -0.3,-0.3 -0.8,-0.4 -1.4,-0.4 -0.8,0 -1.5,0.4 -1.9,1.1 -0.5,0.7 -0.7,1.8 -0.8,3.3"
       clip-path="url(#clipPath6457-6)"
       transform="translate(-14.084471,-154.7619)" /><path
       inkscape:connector-curvature="0"
       id="text5163-9"
       d="m 539.9,-98.9 -0.9,0.6 c -0.4,0.3 -0.6,0.6 -0.8,0.9 -0.2,0.4 -0.3,0.7 -0.3,1.2 0,0.7 0.2,1.2 0.7,1.7 0.5,0.5 1,0.7 1.7,0.7 0.5,0 1,-0.1 1.4,-0.3 0.5,-0.2 0.9,-0.5 1.3,-0.9 l -3.1,-3.9 m 0.9,-3.7 0.4,-0.3 c 0.4,-0.3 0.7,-0.5 0.8,-0.9 0.2,-0.3 0.3,-0.7 0.3,-1.1 0,-0.4 -0.1,-0.7 -0.4,-0.9 -0.2,-0.2 -0.6,-0.4 -1,-0.4 -0.4,0 -0.8,0.1 -1,0.4 -0.3,0.2 -0.4,0.6 -0.4,1 0,0.2 0.1,0.5 0.2,0.7 0.1,0.3 0.3,0.5 0.5,0.8 l 0.6,0.7 m -2.6,1.6 -0.7,-0.9 c -0.4,-0.5 -0.6,-0.9 -0.8,-1.3 -0.1,-0.4 -0.2,-0.8 -0.2,-1.3 0,-1.3 0.4,-2.2 1.2,-3 0.8,-0.7 1.9,-1.1 3.3,-1.1 1.3,0 2.4,0.3 3.1,1 0.7,0.7 1.1,1.6 1.1,2.8 0,0.9 -0.2,1.7 -0.7,2.4 -0.4,0.7 -1.1,1.3 -2.1,1.9 l 2.5,3 c 0.2,-0.4 0.4,-0.8 0.6,-1.3 0.1,-0.5 0.2,-1 0.3,-1.6 l 3,0 c -0.1,1 -0.3,2 -0.6,2.8 -0.3,0.9 -0.8,1.7 -1.4,2.4 l 3.1,3.8 -4,0 -1.2,-1.4 c -0.7,0.6 -1.4,1.1 -2.3,1.4 -0.8,0.3 -1.7,0.5 -2.6,0.5 -1.6,0 -2.9,-0.5 -3.9,-1.4 -1,-0.9 -1.5,-2.2 -1.5,-3.6 0,-1.1 0.3,-2 0.8,-2.8 0.5,-0.8 1.6,-1.6 3,-2.3 m 3.5,39.6 -3.5,0 c 0.1,-2.3 0.7,-4.6 1.7,-6.8 1,-2.3 2.4,-4.5 4.2,-6.6 l -8.3,0 0,-2.9 11.9,0 0,2.5 c -1.8,2 -3.3,4.2 -4.3,6.4 -1,2.4 -1.6,4.8 -1.7,7.4"
       clip-path="url(#clipPath6453-3)"
       transform="translate(-14.084471,-154.7619)" /><path
       inkscape:connector-curvature="0"
       id="text5474-7"
       d="m 200.01553,-189.1619 -1.8,-1.8 1.9,-2 1.9,1.8 c 0.3,-0.5 0.4,-1 0.6,-1.6 0.2,-0.6 0.2,-1.3 0.2,-2 0,-1.9 -0.4,-3.4 -1.3,-4.4 -0.9,-1.1 -2,-1.6 -3.6,-1.6 -1.5,0 -2.7,0.5 -3.5,1.6 -0.8,1 -1.3,2.5 -1.3,4.4 0,1.9 0.4,3.4 1.3,4.4 0.8,1 2,1.6 3.5,1.6 0.4,0 0.8,0 1.1,-0.1 0.3,-0.1 0.7,-0.2 1,-0.3 m 2.5,2.3 c -0.6,0.4 -1.3,0.7 -2.1,0.9 -0.8,0.2 -1.6,0.3 -2.5,0.3 -2.6,0 -4.6,-0.8 -6.2,-2.5 -1.5,-1.6 -2.3,-3.9 -2.3,-6.6 0,-2.8 0.8,-5 2.3,-6.6 1.5,-1.6 3.6,-2.5 6.2,-2.5 2.6,0 4.6,0.8 6.2,2.5 1.5,1.6 2.3,3.9 2.3,6.6 0,1.2 -0.2,2.3 -0.5,3.4 -0.3,1 -0.8,1.9 -1.4,2.6 l 1.9,1.8 -1.9,2 -2,-1.9" /><path
       inkscape:connector-curvature="0"
       id="text5482-3"
       d="m 251.81553,-186.1619 -4.9,-17.2 3.7,0 3,12.2 2.5,-12.2 3.8,0 2.5,12.2 3,-12.2 3.6,0 -4.9,17.3 -3.4,0 -2.8,-13.3 -2.7,13.2 -3.4,0" /><path
       inkscape:connector-curvature="0"
       id="text5492-6"
       d="m 311.41553,-186.1619 0,-17.3 12.5,0 0,3 -9,0 0,3.7 8.3,0 0,3 -8.3,0 0,4.4 9.4,0 0,3.2 -12.9,0" /><path
       inkscape:connector-curvature="0"
       id="text5500-1"
       d="m 374.31553,-195.8619 4.2,0 c 0.9,0 1.6,-0.2 2,-0.6 0.4,-0.4 0.6,-0.9 0.6,-1.7 0,-0.8 -0.2,-1.3 -0.6,-1.7 -0.4,-0.4 -1,-0.6 -1.9,-0.6 l -4.3,0 0,4.6 m -3.5,9.7 0,-17.3 8.4,0 c 1.9,0 3.3,0.4 4.2,1.2 0.9,0.8 1.4,2 1.4,3.7 0,1.1 -0.2,1.9 -0.7,2.6 -0.4,0.7 -1.1,1.2 -1.9,1.4 0.8,0.3 1.3,0.7 1.6,1.2 0.3,0.5 0.5,1.4 0.6,2.6 l 0.1,2 c 0,0 0,0 0,0.1 0,1 0.2,1.7 0.7,1.9 l 0,0.5 -3.9,0 c -0.1,-0.2 -0.2,-0.5 -0.3,-0.9 -0.1,-0.4 -0.1,-0.8 -0.1,-1.3 l 0,-1.8 c 0,-1.1 -0.2,-1.8 -0.6,-2.2 -0.4,-0.4 -1,-0.6 -2,-0.6 l -3.8,0 0,6.7 -3.7,0.2" /><path
       inkscape:connector-curvature="0"
       id="text5504-2"
       d="m 436.11553,-186.1619 0,-14.2 -5.1,0 0,-3.1 13.8,0 0,3.1 -5.1,0 0,14.2 -3.6,0" /><path
       inkscape:connector-curvature="0"
       id="text5518-9"
       d="m 500.01553,-186.1619 -3.6,0 0,-6.4 -6.3,-10.8 4.3,0 3.7,7.4 3.4,-7.4 4.1,0 -5.7,10.8 0.1,6.4" /><path
       inkscape:connector-curvature="0"
       id="text5522-3"
       d="m 551.01553,-203.6619 3.6,0 0,10.8 c 0,1.3 0.3,2.3 0.8,2.9 0.5,0.6 1.4,0.9 2.5,0.9 1.2,0 2,-0.3 2.6,-0.9 0.5,-0.6 0.8,-1.6 0.8,-2.9 l 0,-10.8 3.6,0 0,11.2 c 0,2.1 -0.6,3.7 -1.8,4.9 -1.2,1.1 -2.9,1.7 -5.1,1.7 -2.2,0 -4,-0.6 -5.2,-1.7 -1.2,-1.1 -1.8,-2.8 -1.8,-4.9 l 0,-11.2" /></g></svg>