<?xml version="1.0" encoding="UTF-8" standalone="no"?>
<!-- Created with the Eggbot TSP art toolkit (http://egg-bot.com) -->

<svg xmlns="http://www.w3.org/2000/svg"
     xmlns:inkscape="http://www.inkscape.org/namespaces/inkscape"
     xmlns:sodipodi="http://sodipodi.sourceforge.net/DTD/sodipodi-0.dtd"
     xmlns:rdf="http://www.w3.org/1999/02/22-rdf-syntax-ns#"
     xmlns:dc="http://purl.org/dc/elements/1.1/"
     xmlns:cc="http://creativecommons.org/ns#"
     height="800"
     width="3200">
  <sodipodi:namedview
            showgrid="false"
            showborder="true"
            inkscape:showpageshadow="false"/>
  <metadata>
    <rdf:RDF>
      <cc:Work rdf:about="">
        <dc:format>image/svg+xml</dc:format>
        <dc:type rdf:resource="http://purl.org/dc/dcmitype/StillImage" />
        <dc:subject>
          <rdf:Bag>
            <rdf:li>Egg-Bot</rdf:li>
            <rdf:li>Eggbot</rdf:li>
            <rdf:li>TSP</rdf:li>
            <rdf:li>TSP art</rdf:li>
          </rdf:Bag>
        </dc:subject>
        <dc:description>TSP art created with the Eggbot TSP art toolkit (http://egg-bot.com)</dc:description>
      </cc:Work>
    </rdf:RDF>
  </metadata>
  <g      transform="translate(1450, 515) scale(1, -1)">
    <path style="fill:none;stroke:#000000;stroke-width:1"
          d="m 0,229 1,-2 -1,-2 2,-2 0,-2 -2,-2 1,-2 0,-2 0,-3 2,1 1,2 0,2 -1,2 2,0 2,2 1,-2 -1,-2 0,-2 2,0 1,-2 1,-2 1,-2 -1,-2 -1,-2 -1,-2 -2,1 0,-3 -1,-2 -2,-1 0,2 1,2 -1,2 -1,2 0,2 2,0 1,-2 2,1 1,2 -1,1 0,2 -2,1 -1,-2 -2,-1 -2,0 -1,-3 1,-3 1,-2 -1,-2 0,-2 1,-2 0,-2 -1,-2 0,-2 1,-2 -1,-2 0,-2 2,-1 1,-2 2,-1 1,-2 1,-2 0,-2 -1,-2 0,-2 1,-1 1,-2 0,-2 -1,-2 1,-2 0,-2 2,0 0,-2 -2,-1 0,-2 1,-1 1,-2 0,-2 2,0 0,-2 1,-2 -1,-2 0,-2 -2,1 0,2 0,2 -2,1 -1,-2 0,-2 0,-2 0,-2 0,-2 -1,-2 0,-2 3,0 0,2 1,2 -1,2 3,0 1,-2 -1,-1 0,-2 -1,-2 1,-1 1,-2 -1,-2 0,-2 1,-2 -1,-2 -3,0 1,2 -1,1 0,2 1,2 -1,2 -2,1 -2,0 -2,0 0,2 0,2 1,2 0,2 0,2 0,2 0,2 -1,2 2,0 2,2 0,2 -2,-1 -2,0 0,2 2,1 0,2 -2,0 0,2 3,0 -1,2 0,2 -1,2 1,2 0,2 -2,1 0,2 0,2 1,2 0,2 -1,2 -2,1 0,2 -2,0 0,-4 2,-1 0,-2 -1,-2 0,-2 0,-2 0,-2 2,-1 -1,-1 0,-2 1,-1 0,-2 -3,0 1,-2 0,-2 1,-2 -1,-2 0,-2 1,-2 -1,-2 2,-1 -3,-3 2,0 0,-2 1,-2 -3,0 1,-2 0,-2 0,-2 1,-2 -1,-2 0,-2 0,-2 2,-1 1,2 0,2 0,2 2,1 2,-1 -1,-2 0,-2 -1,-2 2,-1 1,-2 -1,-2 -2,-1 2,-1 0,-2 0,-2 -2,0 -1,2 -2,0 1,3 0,2 2,1 -2,1 -3,0 0,-2 0,-2 0,-2 -1,-3 3,0 -1,-2 -1,-2 0,-2 1,-2 0,-2 2,0 -1,-2 -3,0 0,-2 3,0 -1,-2 0,-2 0,-2 0,-2 -2,-2 2,-2 1,2 2,-1 2,1 0,-2 0,-2 2,-1 1,-1 0,-2 0,-2 0,-2 -1,-2 0,-2 -1,-2 0,-2 -1,-2 -2,0 0,2 0,2 -2,0 0,2 3,0 0,2 1,2 -1,1 -2,1 0,2 3,-1 0,2 -2,1 -1,2 -2,0 0,-2 -1,-2 0,-2 1,-2 2,-1 -3,-1 -1,-2 0,-2 2,-2 0,-2 -2,-2 3,0 -1,-2 -1,-2 1,-2 0,-2 0,-2 -1,-2 1,-2 2,-1 0,-2 -3,1 0,-2 2,-1 1,-1 2,0 1,2 2,-1 0,-2 0,-2 2,1 1,3 1,-1 1,-2 -1,-2 -2,-1 -2,0 0,-2 -1,-2 0,-2 -1,-2 1,-1 1,-2 1,-2 -1,-2 1,-2 -1,-2 0,-2 -2,1 -2,0 0,2 2,1 -1,2 1,2 -1,2 -2,-4 0,2 -1,2 1,2 1,2 0,2 1,2 0,2 0,2 0,2 -2,-1 -2,1 -2,0 1,-3 2,-1 0,-2 -3,0 2,-2 0,-2 -1,-2 -1,-2 1,-2 0,-2 -1,-2 3,0 -1,-2 0,-2 0,-2 0,-2 0,-2 0,-2 0,-2 0,-2 0,-2 0,-2 3,0 -1,2 1,2 0,2 0,2 1,2 -1,1 0,2 0,2 2,-1 1,-2 1,-2 -1,-2 0,-2 0,-2 -1,-2 0,-2 3,0 0,2 1,2 -1,2 1,2 1,2 -1,2 -1,2 2,2 1,-2 2,0 -1,-2 1,-2 2,-1 -1,-2 -2,1 -1,-2 2,-1 2,0 0,-2 -1,-2 -2,1 -1,1 0,-3 2,-1 2,0 3,0 -1,2 1,2 0,2 -1,2 1,2 -1,2 -2,1 1,2 2,-1 1,2"/>
    <path style="fill:none;stroke:#000000;stroke-width:1"
          d="m 21,16 0,2 -3,-1 -1,1 -2,0 0,2 -3,-1 1,2 -1,2 0,2 0,2 -1,2 1,2 -1,1 2,1 -2,1 1,2 2,1 1,-2 1,-2 -1,-2 -1,-2 1,-2 0,-2 0,-2 2,-1 1,-1 2,-1 2,0 -1,2 0,2 -1,2 -1,-2 -2,1 1,2 -1,2 1,2 0,2 0,2 -1,2 -1,2 1,2 -1,2 -1,2 -2,1 1,2 0,2 -1,2 -1,2 1,2 -1,2 1,2 1,2 -2,1 -1,-2 -1,-2 -2,2 -1,-2 1,-2 2,-1 -1,-2 1,-2 -1,-2 2,0 0,-2 -1,-2 -2,1 -1,1 -1,2 -2,1 1,2 2,-1 0,3 -2,0 0,2 -1,2 1,2 1,2 3,0 1,2 1,2 2,-1 1,-1 2,-1 1,-2 -1,-2 -1,-2 1,-1 2,0 -1,-2 -2,-1 1,-2 2,1 0,-2 -1,-2 0,-2 1,-2 1,-2 0,-2 0,-2 1,-2 1,-2 0,-2 2,0 2,-1 1,2 -2,1 -1,2 -1,2 0,2 0,2 -1,2 -1,2 0,2 2,0 -1,2 0,2 -1,2 1,2 -1,2 -1,1 1,2 -1,2 -1,2 1,2 -3,-1 0,2 -2,0 -2,0 -1,1 1,2 0,2 1,2 2,0 3,-1 -1,-2 -2,1 0,-2 2,-1 2,-1 1,2 0,2 3,0 0,-2 -1,-2 0,-2 -1,-2 1,-1 1,-2 -1,-2 1,-2 1,-2 -1,-2 1,-2 0,-2 1,-2 0,-2 -2,0 1,-2 1,-2 0,-2 -1,-2 2,-2 1,2 2,-1 -1,-2 1,-2 -1,-2 0,-2 0,-2 1,-2 1,-2 0,-2 0,-2 0,-2 2,-1 0,2 1,2 2,-1 0,-2 -1,-2 1,-2 0,-2 -1,-2 0,-2 0,-2 1,-1 -2,-2 -1,1 -1,2 0,2 0,2 1,2 0,2 -2,1 -2,-1 1,-2 -1,-2 0,-2 1,-2 -2,0 -2,0 0,2 1,3 -1,1 1,2 1,2 0,2 0,2 0,2 0,2 -1,2 -1,2 1,2 -3,0 -2,1 -1,-2 2,-1 1,-2 1,-2 0,-2 1,-2 -1,-2 0,-2 -1,-2 -1,-2 1,-2 -1,-2 0,-2 1,-2 -1,-2 2,0 2,-1 0,2 3,1 0,-2 0,-2 2,1 2,-1 3,0 -1,2 2,1 1,2 0,2 -1,1 0,2 1,2 2,0 0,-2 1,-2 1,2 2,-1 -1,-2 0,-2 -2,1 -1,-3 -1,-2 3,0 0,2 3,0 0,-2 2,-1 1,2 1,-2 2,1 2,-1 -1,3 -2,1 -1,2 -1,-2 -2,1 0,2 1,2 2,-1 1,2 -2,1 -1,1 -2,0 0,2 3,1 -1,1 -2,1 0,2 -1,2 -1,2 1,2 -2,0 -2,2 -1,1 0,2 1,2 -1,2 -1,2 1,2 -2,1 -1,-2 -2,0 0,-2 2,-1 1,-2 -3,0 0,-2 2,0 0,-2 -1,-2 2,-1 2,0 1,-2 1,-2 1,-2 -2,-1 2,-1 1,-2 -1,-2 -2,2 -2,-1 -1,2 1,2 0,2 0,2 -2,1 -2,0 -1,1 -1,2 1,2 -3,0 1,2 0,2 1,2 -1,2 1,2 1,2 2,0 -1,2 1,2 1,2 0,2 1,2 -2,1 -1,-2 -1,-2 0,-2 -2,-1 0,-2 -1,-2 -2,1 0,2 -1,2 2,0 -1,2 3,0 0,2 1,2 1,2 -1,2 0,2 -1,2 0,2 1,2 1,2 1,2 0,2 0,2 -2,-1 0,2 -2,1 -1,-2 0,-2 -1,-2 3,0 -1,-2 -2,0 1,-2 -1,-2 1,-2 0,-2 0,-2 1,-2 -1,-2 -1,-2 -1,2 0,2 -1,2 0,2 0,2 -1,2 1,2 -1,2 0,2 -1,2 2,0 0,2 1,2 -1,1 1,2 1,2 0,2 1,2 0,2 1,2 1,-2 2,2"/>
    <path style="fill:none;stroke:#000000;stroke-width:1"
          d="m 33,86 1,-2 1,-2 1,-2 -1,-3 -1,1 -1,2 -1,2 -1,-2 0,-2 -1,-2 1,-1 2,0 2,-1 1,-1 2,-1 1,2 0,2 -2,0 1,2 0,2 0,2 -1,2 -1,2 -1,2 -2,1 -2,-1 -2,0 1,2 0,2 0,2 1,2 1,-2 1,-2 2,-1 0,2 0,2 -1,2 1,2 -1,2 -1,1 0,2 0,2 -1,2 2,1 2,-1 1,-1 2,2 2,-1 -1,-3 -2,0 -2,-1 2,-2 0,-3 -1,-2 2,-2 -1,-2 1,-2 -2,-1 1,-2 1,-2 1,-2 1,-2 0,-2 0,-2 1,-2 0,-2 1,-1 0,-2 -1,-2 -2,2 -1,-2 -2,1 0,-2 2,-1 -1,-2 -2,0 -1,-2 -1,-2 0,-2 1,-2 -1,-2 2,-2 2,-1 1,2 -2,1 1,2 2,-1 3,0 -1,2 -2,1 -2,0 -1,1 0,2 2,1 2,-1 1,-1 2,-1 1,2 0,2 -2,0 -2,1 1,2 2,-1 1,2 0,2 1,2 0,2 0,2 -2,1 0,1 0,2 0,2 -1,2 -1,2 0,2 -2,1 2,2 0,3 -1,3 1,3 -1,2 4,-1 0,-3 2,-1 4,0 1,-3 2,-2 0,-3 1,-3 2,-1 0,-3 -4,0 0,-2 0,-2 2,1 0,-2 0,-2 -1,-2 0,-2 0,-2 -1,-2 2,-1 1,-2 0,-2 1,-2 1,-2 0,-2 1,-2 2,-1 1,-2 1,-2 0,-2 0,-2 1,-2 0,-2 1,-2 0,-2 1,-2 0,-2 1,-2 2,0 -1,-2 1,-2 1,-2 0,-2 -2,-2 -1,2 0,2 -1,2 -1,2 -1,2 -1,2 -2,1 2,1 -1,2 0,2 -1,2 0,2 -1,2 1,2 -1,2 -1,2 -2,1 -1,2 -1,2 0,2 0,2 -2,0 0,2 0,2 -2,1 -1,1 1,2 0,2 0,2 1,3 -1,1 -1,2 0,2 0,2 1,3 -2,1 0,3 -1,4 -3,0 0,-4 0,-3 1,-2 1,-2 0,-2 0,-2 1,-2 1,-2 0,-2 -1,-2 0,-2 -1,-2 1,-2 0,-2 2,0 0,-2 1,-2 1,-1 0,-2 2,-1 0,-2 2,-2 1,-1 1,-2 -2,-1 1,-1 1,-2 0,-2 -2,1 -2,1 -1,1 1,2 0,2 -1,2 -2,1 -1,1 0,2 -1,2 -1,2 -1,2 -2,-2 1,-2 1,-2 0,-2 -1,-2 0,-2 -2,0 -1,2 1,2 0,2 -2,0 -1,-2 -1,-2 -1,-2 2,0 1,-2 1,-1 -1,-2 -2,0 -1,3 -1,-2 -1,-2 2,-1 2,-1 1,-2 -1,-2 1,-1 2,2 1,-2 -1,-2 -2,-1 0,-2 2,0 -1,-2 2,0 1,-1 2,0 -1,-2 -1,-2 1,-2 0,-2 2,0 1,2 1,-2 -1,-2 1,-2 -1,-2 2,-1 1,-2 -1,-2 0,-2 2,-1 0,-2 2,0 0,-2 2,-1 1,2 2,-2 3,1 -2,1 0,2 1,2 1,-1 2,-1 1,-1 0,-2 3,0 0,2 0,2 0,2 -2,-1 -2,1 1,2 -1,2 -1,2 -2,2 1,2 -1,2 -1,2 -3,0 1,-2 1,-2 0,-2 -1,-2 -1,2 -1,2 -1,2 -1,-2 0,-2 1,-2 1,-2 2,-1 2,2 1,-1 1,-2 -2,-1 -2,0 0,-2 -1,-2 -2,1 0,2 -2,1 2,1 -2,2 -1,2 -1,2 0,2 1,2 -1,2 -1,2 -3,0 1,2 2,0 1,2 0,2 -2,-1 -2,1 -1,2 -2,0 1,2 1,2 -1,2 0,2 0,2 -2,-1 -2,1 2,2 2,0 1,2 -2,1 2,1 1,2 2,-1 0,-2 -1,-2 0,-2 2,-1 -2,-1 0,-2 1,-1 0,-2 -1,-2 1,-2 2,0 1,2 -1,1 1,2 0,2 0,2 2,-1 1,-2 2,2 1,-2 -1,-2 -2,0 0,-2"/>
    <path style="fill:none;stroke:#000000;stroke-width:1"
          d="m 57,33 -1,-2 0,-2 0,-2 -1,-2 0,-2 1,-2 1,2 1,2 2,-2 1,2 -1,2 -1,1 0,2 0,2 2,-1 1,-2 1,-2 1,-2 -1,-1 1,-1 1,-2 1,-2 2,0 0,-2 -2,-1 1,-1 1,-2 1,-2 0,-2 2,0 1,2 -1,2 -1,2 1,2 0,2 0,2 1,2 2,-2 0,-2 2,0 1,2 0,2 0,2 -2,-1 -2,1 -1,2 -1,2 1,2 2,-1 1,-1 0,-2 2,0 1,2 -1,2 -1,2 -2,0 1,2 1,2 3,0 -1,-2 1,-2 1,-2 1,-2 -1,-2 0,-2 0,-2 -1,-2 0,-2 -1,-2 0,-2 -2,1 -2,1 -1,-2 1,-2 2,0 -1,-2 -1,-2 -1,-2 0,-2 0,-2 0,-2 2,-1 2,1 -2,2 1,2 0,2 1,2 1,2 1,2 2,-1 -1,-2 -1,-2 0,-2 -1,-2 1,-1 1,-2 3,0 -1,2 1,2 -1,1 0,2 1,2 1,2 1,-2 0,-2 1,-1 0,-2 -1,-2 1,-2 2,2 1,-2 2,-1 3,1 -1,1 1,2 -3,-1 0,2 -2,0 0,2 -1,2 -1,2 -1,3 2,0 -1,2 -1,2 -1,2 -1,-2 0,-2 -1,-2 -2,1 0,2 1,2 0,2 1,2 2,-1 1,2 -3,1 0,2 1,2 -1,2 1,2 -2,0 -1,2 1,2 2,-1 2,-1 0,2 0,1 -2,1 0,2 3,-1 0,2 -2,1 -1,1 0,2 -2,1 -1,-2 0,-2 0,-2 0,-2 -2,0 -1,2 0,2 0,2 1,2 1,2 0,2 -2,2 -1,-2 0,-2 0,-2 -3,0 1,-2 0,-2 0,-2 1,-2 -2,0 -1,-2 -1,-2 0,-2 -3,0 0,2 -1,2 2,0 1,2 1,2 0,2 0,2 -1,2 1,2 2,0 0,2 1,2 1,2 -1,1 0,2 2,1 1,-2 1,-2 2,-1 1,-1 1,-2 0,-2 2,0 1,-2 1,-2 2,-1 1,-1 0,-2 0,-2 -1,-2 0,-2 2,-1 1,2 0,2 1,2 1,-2 1,-2 -1,-2 2,-1 -1,-2 -3,1 1,-1 2,-2 -2,-1 -2,1 -2,0 -1,1 1,2 -2,1 -1,-2 0,-3 0,-2 2,0 2,0 -1,-2 -1,-2 0,-2 1,-2 1,-2 0,-2 1,-1 -1,-2 1,-2 1,-2 2,-1 1,1 -1,2 -1,2 1,2 -1,2 0,2 -1,2 -1,1 0,2 1,2 1,2 2,0 2,1 2,0 1,-2 1,-2 1,-2 -1,-2 1,-2 -3,0 -1,2 1,2 -1,2 -1,1 -2,0 1,-3 -2,0 1,-2 1,-2 0,-2 2,0 -1,-2 -1,-2 1,-2 1,-2 -1,-2 0,-2 0,-2 2,-1 3,0 2,1 -4,1 0,2 0,2 0,3 -1,2 1,2 1,2 2,0 0,-3 2,-4 0,-2 1,-1 0,-2 1,-2 2,-1 1,2 -2,1 1,2 0,2 -1,1 0,2 -1,3 4,-1 0,-2 1,-2 1,2 1,2 0,2 -1,4 3,-2 1,-2 1,-1 1,2 -1,3 2,-1 1,3 1,-1 2,-1 1,2 -1,2 2,0 2,-2 1,-1 1,2 -1,1 -1,2 2,4 1,-4 2,1 0,-2 0,-2 1,-2 -2,0 0,-2 -2,0 -1,-2 1,-2 -1,-2 -2,0 0,2 0,2 0,2 -2,0 -1,-2 -2,1 -1,-2 -1,-2 2,0 2,1 0,-2 -2,-1 0,-2 -1,-2 0,-3 -1,1 -2,1 1,2 0,2 -1,1 -2,1 -1,-2 1,-2 -1,-2 -2,0 -1,1 -1,-2 1,-2 0,-2 2,1 1,2 2,0 0,-2 2,0 2,0 2,0 1,2 0,2 0,1 0,2 2,1 1,-2 0,-2 -1,-2 0,-2 2,0 3,-1 0,2 -2,1 0,2 1,2 -1,2 2,0 2,-1 -1,-2"/>
    <path style="fill:none;stroke:#000000;stroke-width:1"
          d="m 132,6 0,-2 2,1 2,-1 -2,-2 1,-1 2,0 1,2 2,0 0,-2 3,0 0,2 1,2 2,-1 0,-2 -1,-2 3,0 2,0 -1,2 0,2 -1,2 2,1 1,-2 2,-1 -1,-2 1,-2 2,2 1,2 -1,2 -2,1 0,2 0,2 2,-2 2,-1 1,-1 2,0 0,-2 -1,-2 -2,-1 0,-2 3,1 2,0 3,0 -1,2 -1,1 0,2 0,2 -2,1 -3,1 -2,1 -1,2 0,2 -2,-1 0,2 0,2 1,2 1,-2 2,-1 0,2 0,2 -3,1 -2,1 -1,-2 0,-2 -1,-2 -1,-1 1,-1 0,-2 1,-2 -1,-2 -2,0 0,2 -2,1 1,2 -1,2 1,2 1,1 1,2 0,2 -1,1 -2,1 -2,1 -2,3 -4,0 2,-3 1,-1 2,-1 2,-1 1,-2 -1,-1 -1,-2 -1,-2 -1,-2 2,0 -1,-2 1,-2 2,-1 0,-2 -2,0 -2,1 -1,2 -1,2 -2,0 1,-2 0,-2 1,-2 1,-1 -3,1 -2,1 0,1 0,2 -1,2 -1,-2 -2,1 1,2 -1,2 2,0 1,2 2,-1 -1,-2 2,0 2,1 1,2 -2,1 1,2 2,-1 1,2 -2,1 -2,1 -1,-2 -1,-2 -1,2 0,2 1,2 -1,1 -2,2 0,5 -5,0 -1,4 -5,2 -4,0 -2,1 -2,1 0,2 1,2 1,2 1,2 0,2 0,2 -2,-1 -2,1 -2,2 -2,1 1,2 -1,2 0,2 1,2 -2,0 -1,2 2,0 0,3 -1,1 -2,1 -2,1 -1,-3 2,-1 -1,-2 0,-2 0,-2 2,-1 -2,-2 2,-1 0,-2 0,-2 0,-2 2,1 2,0 0,-2 2,-1 2,-1 -1,-2 -1,-2 0,-2 -2,0 -1,2 1,2 -1,1 -2,2 -1,-2 0,-2 0,-2 1,-1 -1,-2 -1,-2 -1,3 -1,2 0,2 0,2 1,2 -1,2 -1,2 -2,-3 -2,2 -2,2 0,2 -1,2 -2,-1 0,-2 0,-2 0,-2 0,-2 2,1 2,-2 3,-1 -1,-3 0,-3 2,-2 -1,-3 3,0 0,-2 0,-2 -1,-2 1,-2 1,-2 0,-2 3,0 0,2 -1,2 -1,2 1,2 0,2 1,2 1,2 1,2 2,-1 1,-1 2,-1 1,-1 1,-3 4,-2 3,-5 -5,-1 -4,3 -2,2 -1,1 1,2 0,2 -2,1 -1,-2 0,-2 -1,-2 1,-2 1,-2 0,-4 -4,0 0,-4 -3,0 1,2 -1,2 -1,2 -1,2 -1,2 -1,1 -2,0 0,2 3,1 -1,1 -2,1 0,2 -1,2 -1,2 -3,1 0,2 3,0 -1,3 -2,0 -2,-1 -2,1 -1,2 3,0 0,2 0,2 0,2 0,2 -1,1 1,2 -2,1 -1,1 -2,0 -2,0 0,-2 0,-2 3,1 0,-2 1,-2 0,-2 0,-2 -2,0 -1,2 0,2 -2,1 -2,1 0,2 -1,1 0,2 2,1 -2,2 2,0 2,0 2,0 2,0 2,0 1,-2 2,-1 1,-2 2,2 -1,2 1,2 -2,1 -1,-2 -2,2 -2,1 -3,0 -3,0 -3,0 0,3 -1,1 0,2 -2,1 0,2 3,0 2,-1 1,-2 1,-2 2,-1 3,0 0,3 -1,2 -3,-1 1,3 -3,1 -1,2 -4,-1 -1,2 0,3 3,-1 2,1 3,-1 1,-3 3,-1 3,1 3,0 -2,-3 -1,-4 1,-2 1,-2 2,-1 2,-1 1,-2 -1,-2 1,-1 0,-2 0,-2 1,-2 2,-1 0,3 0,2 0,2 0,2 0,2 -1,1 0,2 -3,1 -1,2 -1,4 3,-1 2,-1 1,-2 2,2 -1,3 3,0 2,2 -1,2 0,2 -1,2 -2,1 -2,-1 1,-2 0,-2 1,-1 -4,-2 -1,1 0,2 0,3 -2,-1 0,3 -2,1 -1,2 0,3 -2,1 -3,0 -1,2"/>
    <path style="fill:none;stroke:#000000;stroke-width:1"
          d="m 88,96 -1,2 -1,2 -1,2 -1,3 -2,-1 -1,2 -2,1 1,2 -1,1 1,2 -1,2 -3,0 0,-3 -3,0 -2,1 -1,-3 3,-1 2,-1 2,-2 1,-2 3,-2 1,-2 1,-2 2,-2 1,-3 2,-1 3,0 0,-3 3,-3 -3,-1 -3,0 -1,3 -2,1 -3,0 1,4 -1,2 -2,1 -2,1 0,3 -2,-1 -1,3 -1,2 -2,-3 -2,2 -1,4 -2,-2 -1,2 1,3 1,3 1,3 -2,2 1,3 3,-1 1,-2 1,-2 3,2 -1,2 -1,2 -3,1 2,3 -2,2 -3,0 1,-3 -3,-1 -3,0 1,-3 0,-3 -3,0 -1,3 -1,3 -3,1 0,-3 0,-3 1,-3 2,-3 2,1 3,-1 0,-3 -1,-3 -3,1 0,-3 3,-1 0,-3 1,-2 3,1 1,-2 3,-1 2,-1 4,-2 2,-2 0,-3 -3,1 -2,2 -1,1 -3,-3 -1,3 -1,2 -3,1 -2,-2 2,-2 1,-2 1,-2 3,-1 3,1 0,-3 1,-2 -3,-1 3,-2 -1,-3 -1,-2 2,0 1,-2 -3,-1 3,-2 2,-2 0,-2 1,-2 -1,-2 -2,0 0,2 -1,2 -1,1 -1,2 -2,1 -1,2 -2,-2 1,-2 2,-1 0,-2 0,-2 2,1 0,-2 1,-2 -1,-2 0,-2 0,-2 -1,-2 -2,2 0,2 0,2 1,2 -2,0 -1,2 -2,1 2,1 0,2 -3,-1 -2,0 0,-2 1,-2 2,-1 1,-2 0,-2 1,-2 1,-2 1,-2 -1,-2 1,-2 1,-2 -1,-2 -1,-2 -2,2 1,2 -1,2 0,2 0,2 -1,2 -1,2 -1,2 -2,1 2,1 -2,1 -1,2 -1,2 0,2 0,2 -2,1 -1,2 1,2 0,2 3,0 0,2 -2,1 2,1 -2,1 0,2 2,1 3,-1 0,-2 0,-2 0,-2 0,-2 -1,-2 -2,1 -1,-2 2,-1 1,-2 3,1 -1,1 1,2 1,2 0,2 -1,3 2,0 2,-3 1,2 1,2 -2,1 -2,1 1,3 -3,0 -2,1 -1,2 -1,3 -2,2 2,4 -2,2 -1,1 1,3 -3,1 -1,-3 -3,2 -3,0 0,3 -3,1 -3,0 2,4 5,0 2,-3 2,-2 3,1 -1,3 -1,4 -3,2 -4,0 -3,1 -4,-2 0,4 -2,2 -1,3 -3,-3 -2,-2 2,-1 2,-1 0,-4 -1,1 -2,1 -2,-2 -1,2 0,2 -2,1 -2,0 0,-2 1,-1 1,-2 1,-2 -1,-2 1,-2 0,-2 -1,-2 2,-1 0,-2 -3,1 0,-2 0,-2 -1,-2 0,-2 0,-2 -1,-2 1,-2 -1,-2 0,-2 -3,1 -1,-2 1,-1 2,0 0,-2 -2,-1 -2,1 -2,0 -1,1 0,2 2,1 0,2 -2,0 0,2 -1,2 1,3 1,-1 2,0 -1,-2 1,-2 2,-1 1,1 -1,2 1,2 0,2 -2,1 -3,0 0,2 -2,1 -1,-2 0,-2 -1,-2 -1,-2 1,-2 0,-2 1,-2 -1,-2 -2,-1 0,2 0,2 0,2 -1,2 -2,-2 0,2 0,2 0,2 2,-1 1,2 -2,2 2,0 1,2 -1,1 -2,0 1,2 -1,2 -1,2 -1,-2 0,-2 -1,-2 0,-2 1,-1 -1,-2 -1,-2 -2,0 0,2 0,2 0,2 1,2 0,2 1,2 1,2 -1,2 -2,-2 -1,2 0,2 1,2 2,-1 1,-1 1,2 2,-2 -1,-2 2,-1 1,2 2,1 2,-1 1,-2 -1,-3 -1,1 -1,2 -2,-2 1,-2 1,-2 2,-1 2,0 1,2 -1,1 1,2 0,2 0,2 -1,2 1,2 -3,-1 0,2 1,2 0,2 0,2 -2,0 -2,-1 0,-2 1,-1 -1,-2 0,-2 -2,0 -1,2 0,2 0,2 0,2 1,2 2,-1 1,2 1,2 2,1 0,-3 1,-1 2,-1 0,-2 0,-2 -1,-2 2,0"/>
    <path style="fill:none;stroke:#000000;stroke-width:1"
          d="m 22,112 1,-2 -1,-2 1,-2 0,-2 1,-1 -1,-2 -1,-2 1,-2 -2,-1 1,-2 2,-1 1,2 0,2 0,2 1,2 1,2 0,2 -1,1 -1,2 2,1 -1,1 -1,2 -1,2 0,2 -1,2 -1,2 0,2 -2,0 1,2 0,2 1,2 0,3 0,2 -1,1 -2,1 -1,-2 1,-2 1,-2 -1,-2 -1,-2 -2,0 0,2 1,2 -1,2 -1,2 1,2 1,2 -1,2 0,2 0,2 1,2 -1,2 1,2 -1,1 -2,1 -1,2 0,2 2,2 -1,1 0,2 -2,1 -1,2 0,2 1,2 -1,2 -1,2 0,2 1,2 -1,2 0,2 -1,1 -1,2 -2,1 3,1 -2,1 -1,1 -2,0 1,2 -1,2 0,2 1,2 0,2 2,1 1,-2 -1,-2 0,-2 0,-2 2,-2 2,-1 1,-2 -1,-2 2,0 0,-2 1,-1 2,0 0,-2 -3,0 1,-2 -1,-2 0,-2 1,-2 1,-2 -1,-2 0,-2 2,-1 2,1 -1,2 3,0 1,-2 3,1 0,-2 1,-2 3,-1 -1,2 0,3 2,-1 2,-1 1,-1 3,0 3,0 4,-1 -4,-3 3,-1 2,-1 4,-2 1,-2 2,-4 -3,-1 -3,1 -1,4 -4,0 -2,1 -2,2 -1,3 -3,0 -3,-1 3,-3 0,-3 2,-1 1,-2 4,0 1,-3 3,-3 1,-3 0,-3 1,-3 2,-1 2,-2 0,-2 0,-2 -2,-1 -1,2 -1,2 -3,0 -1,2 -1,2 -1,2 0,3 1,3 -3,1 -2,2 -3,0 -1,1 0,3 -2,4 -1,1 -2,1 -1,3 -2,2 -1,2 -3,0 0,-2 1,-2 -3,-1 0,-2 2,-1 1,2 1,-2 2,1 0,-2 -2,-2 -1,-2 1,-2 -1,-2 0,-2 0,-2 1,-2 2,0 2,-1 1,-2 0,-2 -1,-2 1,-1 2,0 2,-2 0,-2 1,-2 -2,-1 -1,2 -1,2 -2,0 0,-2 1,-2 0,-2 1,-2 2,2 1,-1 2,0 1,2 3,1 -1,2 -1,2 -1,2 0,3 -2,-1 -2,2 2,1 -1,2 -2,1 0,2 -2,1 -1,1 -2,0 0,2 2,1 -2,1 2,2 -2,1 1,2 2,0 2,-1 0,-2 0,-2 0,-3 3,-1 1,-2 2,1 2,-2 -3,-1 1,-2 2,-1 0,-3 1,-2 2,-2 3,-1 1,-3 3,-2 2,-1 3,-1 3,0 0,2 0,2 -3,-1 -1,2 2,2 2,-1 1,3 4,0 -1,4 2,3 -2,1 -3,1 0,-3 -2,-4 -2,4 -1,3 -2,2 1,4 4,-1 3,-1 2,-1 2,-2 2,-2 1,-2 -1,-2 1,-3 1,-2 3,0 -1,3 -1,2 3,0 2,-1 1,3 -2,1 -3,0 0,2 -2,1 -1,2 1,3 -3,0 0,3 -1,2 1,2 -1,2 3,0 2,-1 -1,-2 1,-2 2,-1 0,-3 0,-2 1,-1 1,-2 2,2 1,-2 1,-2 2,-2 -2,-2 2,-1 1,-1 1,-2 0,-3 2,1 2,-2 -2,-1 1,-2 1,-2 1,-1 1,-2 2,-1 2,1 2,-1 1,-1 3,1 0,-2 -1,-2 2,-1 -1,-2 2,0 1,-2 2,-1 -1,-2 1,-1 -1,-3 -2,1 -1,1 0,2 0,2 -2,0 -1,2 -1,2 -1,2 -2,1 -3,0 0,-2 3,-1 1,-2 1,-2 1,-2 1,-2 1,-3 3,-1 3,0 0,-2 0,-2 1,-1 1,-2 2,-1 2,1 1,2 -1,2 -2,-2 -1,2 1,2 0,2 -2,0 0,2 0,2 1,2 1,-2 1,-2 2,-1 0,-2 1,-1 1,-2 1,-2 -1,-2 3,1 -1,-2 1,-2 1,-1 0,-3 1,-2 1,-2 1,2 0,2 -1,2 1,2 0,2 -2,0 1,2 3,0 0,-2 1,-2 1,2 1,2 1,-2 0,-2 2,-1 2,-1 0,-1"/>
    <path style="fill:none;stroke:#000000;stroke-width:1"
          d="m 123,83 -1,-2 -1,-2 -2,-1 0,3 0,1 0,2 -2,0 -2,0 1,-2 0,-2 -1,-2 2,0 1,-2 3,0 1,-1 2,-1 1,2 1,-2 -1,-2 1,-1 -1,-2 -2,1 -1,2 -2,1 -2,1 0,-3 2,-1 0,-2 0,-2 2,-1 1,2 2,-2 1,2 2,0 0,2 1,2 -1,2 2,0 1,2 -1,1 -2,0 1,2 -2,0 -2,0 -2,0 1,2 1,2 1,2 1,-2 0,-2 2,1 2,-1 1,-2 1,-1 1,-2 -1,-1 -1,-2 0,-1 2,-1 1,2 1,1 0,2 2,0 1,2 -3,0 1,2 1,2 0,3 -1,3 1,3 3,-1 3,-1 -3,-3 1,-3 0,-3 1,-3 3,1 1,-4 1,-4 4,0 -1,5 4,-1 3,-3 4,-1 5,2 -1,3 -4,1 -2,1 -2,3 -3,-1 -4,0 -1,3 -4,0 0,4 4,0 -1,4 -1,3 4,2 2,-2 0,-4 1,-4 2,-1 4,2 1,-3 2,-2 3,-2 1,4 -1,3 -2,2 -1,3 -4,-1 -2,1 0,4 -1,3 -1,3 -1,3 -2,4 3,0 1,3 -1,2 -1,2 -3,0 1,-2 0,-2 -3,-1 -1,2 0,3 -1,2 -3,0 -1,3 -3,0 0,-4 1,-3 3,0 1,-2 1,-2 0,-2 3,0 1,-2 0,-3 1,-3 -4,-2 -1,3 -1,1 1,3 -3,0 -1,2 0,2 -1,2 -3,-2 -1,4 -1,4 0,4 -3,-1 1,4 0,3 1,3 3,0 0,-3 1,-2 3,0 1,4 -2,1 0,3 -1,1 -1,2 1,3 -3,1 -1,3 -3,1 -1,4 1,5 4,0 1,-3 0,-3 4,3 0,-3 -1,-3 1,-2 2,-1 -1,-3 1,-2 1,-2 1,-2 3,0 0,-3 -3,-1 0,-3 1,-3 3,3 1,-2 0,-3 2,-1 3,-1 2,-1 0,-2 2,0 -1,-3 0,-2 -1,-3 1,-2 1,-3 3,-1 2,-2 -4,-2 2,-2 4,0 0,-3 2,-2 1,-3 1,-3 -1,-4 3,1 1,-3 -4,-2 3,-2 3,-1 2,4 2,-2 0,-3 1,-2 3,0 3,0 0,3 -3,0 -1,2 0,3 2,-1 3,-1 2,1 -2,2 -2,1 -1,2 1,2 0,2 -1,2 -2,2 3,1 3,-1 0,-3 2,-2 -2,-1 -1,-2 2,-1 3,2 0,-3 1,-2 0,-3 -3,-1 -1,-3 -1,-3 3,0 3,0 -1,4 3,0 2,-2 1,-2 1,-2 2,0 0,-2 2,0 0,-2 0,-2 2,0 0,-2 0,-2 0,-2 -1,-2 -2,2 -2,1 2,2 -2,1 0,3 -3,2 -2,2 -3,-1 1,-3 3,-1 1,-1 -1,-3 1,-2 -4,-2 -2,2 1,3 -4,-1 -3,1 -2,4 3,0 3,-1 0,4 -3,1 -4,2 0,-3 -3,0 -1,3 -3,-1 -1,3 -3,1 -3,1 1,-6 -4,-1 -2,4 -6,-6 -5,2 -3,2 -5,0 -5,0 -2,2 0,3 4,0 -2,3 -3,1 -1,-2 -2,-1 1,-1 0,-2 0,-2 -2,0 -1,2 -1,1 -2,1 -1,-2 -1,-2 -2,-1 1,-2 0,-2 0,-1 -2,1 -1,2 -2,1 -2,-2 3,-1 1,-2 1,-2 2,0 0,-2 2,-1 -3,-1 0,-2 -2,0 0,2 0,2 -1,2 -2,1 -2,1 -2,1 1,3 -1,2 -1,3 -1,2 -1,2 0,2 0,2 -2,0 -1,1 -3,1 -2,-1 1,-2 2,-1 2,-1 1,-3 0,-2 2,-2 -1,-2 1,-2 -3,0 1,-2 2,-1 0,-2 2,-1 3,0 2,-1 1,-2 -2,0 0,-2 1,-1 -2,-2 -1,-1 -1,-2 0,-2 3,0 0,2 1,1 1,2 2,0 4,-1 5,-1 0,-6 5,-1 1,-4 4,1 3,-3 3,-4 3,-1 4,-1 4,2 -3,3 -2,3 -5,-1 -1,5 -4,3"/>
    <path style="fill:none;stroke:#000000;stroke-width:1"
          d="m 146,41 -1,4 -5,-1 0,6 -4,3 -3,4 -2,-1 -1,2 2,1 -1,1 0,2 0,2 1,2 1,-2 1,-1 0,-2 2,0 5,-2 4,-1 3,-4 4,-4 6,2 5,0 4,-2 1,-5 -1,-5 -4,1 -1,4 -5,1 -5,-2 3,-4 2,-1 4,-3 2,-3 2,-3 1,-4 -4,-2 4,-2 4,2 0,-4 -1,-3 1,-2 0,-2 2,-1 1,-1 2,0 -1,-2 2,-1 -1,-2 -2,1 -2,0 0,2 -2,0 0,2 -2,0 0,2 -2,1 2,1 -1,1 -1,2 -2,1 -3,1 0,-2 1,-1 2,-1 -1,-2 -2,1 -2,0 0,-2 2,-1 2,0 1,-1 2,0 0,-2 2,-1 1,-2 -2,0 1,-2 1,-1 0,-2 2,-1 3,0 -1,2 -2,1 1,2 2,-1 2,0 0,-2 2,0 -1,-2 3,0 0,2 -1,2 0,2 0,2 -1,2 1,2 -2,1 -2,1 -2,1 2,4 2,-2 4,-1 1,-3 2,-2 -3,-1 1,-2 -1,-2 1,-2 1,2 1,-2 -1,-2 0,-2 2,0 1,2 0,2 0,2 -1,2 3,1 1,-3 1,-1 -1,-2 -1,-2 2,-1 1,2 1,1 1,-2 3,0 4,2 -4,1 -1,3 -1,3 -2,2 -1,3 -3,-1 -2,2 -1,3 -3,1 -3,1 -4,2 0,4 -4,1 -1,4 -2,4 4,0 2,-4 3,3 1,-4 1,-3 1,-3 3,0 3,-1 2,-1 3,0 -1,-4 4,0 2,-2 1,-4 2,-4 4,-1 2,-1 -1,-4 4,-2 3,-1 1,3 -1,2 -2,1 2,3 -2,1 -1,3 -1,1 -4,-2 -2,2 -1,3 0,4 4,-2 3,-2 1,4 -1,3 -3,1 -2,2 -4,0 0,-4 -3,0 -1,4 -2,1 -4,0 -3,1 -2,2 -1,3 -1,3 -4,2 -2,2 -2,2 1,4 4,-2 3,-2 2,-2 3,-2 0,-4 2,-2 3,-1 4,0 2,-1 -2,4 -3,1 -2,2 0,4 -2,2 -2,2 -3,2 -3,2 -2,2 -4,0 -2,5 5,2 2,-2 4,0 1,-3 2,-3 4,-1 2,-2 2,-2 2,-1 -2,-4 2,-2 3,-2 2,-3 1,-3 4,-1 2,-2 3,3 0,-3 0,-3 1,-2 -1,-3 1,-2 0,-3 1,-2 1,-2 0,-3 1,-2 1,-3 3,-1 1,-2 3,0 2,0 2,0 0,2 1,2 0,2 1,1 2,-1 0,-2 -1,-2 0,-2 3,0 0,2 1,2 0,2 -1,2 -2,1 0,2 -1,2 -1,2 -1,1 0,2 0,2 -3,1 -1,2 -1,2 -1,1 -1,2 1,2 0,2 0,2 1,2 1,-2 1,-2 2,0 0,2 -1,2 -1,2 1,2 -2,0 1,2 0,2 2,2 2,0 -1,2 1,2 0,2 -2,1 -1,-2 0,-2 -1,-2 -2,1 0,-2 -1,-2 0,-2 0,-1 0,-3 -2,1 -1,1 -2,0 0,2 -2,0 -4,-1 -2,2 -3,0 1,-3 2,-2 3,0 2,1 1,-2 3,0 2,-1 -1,-2 0,-2 0,-2 -1,-3 1,-3 -1,-3 1,-3 2,3 1,-3 2,-1 -2,-3 2,-1 1,-2 2,2 1,-2 0,-2 -2,0 0,-2 -1,-2 0,-2 -2,-1 0,2 -3,1 3,2 -2,2 -2,-1 -1,3 0,3 -2,2 -1,2 0,3 1,3 -1,2 0,2 0,2 0,2 1,2 -3,0 -3,0 -3,0 -2,2 -2,2 -1,3 -1,2 -2,1 1,4 2,1 3,0 -1,-3 3,0 4,0 -1,2 1,2 1,2 0,2 0,2 0,2 1,2 -2,1 -1,1 1,2 -3,1 2,2 2,-1 2,-1 -1,-2 2,-1 1,-2 1,-1 -2,-1 0,-2 0,-2 0,-2 -1,-2 -1,-2 1,-2 -1,-2 2,0 2,1 2,-2 1,2 0,2 0,2 -2,-1 -2,0"/>
    <path style="fill:none;stroke:#000000;stroke-width:1"
          d="m 215,48 0,2 2,1 0,2 1,2 -1,1 1,2 2,1 0,2 -2,0 -1,2 -1,1 0,2 -2,2 -2,1 -1,1 -1,2 0,3 -1,3 -1,2 -3,0 0,-3 1,-2 1,-2 -1,-3 1,-2 -3,-1 -1,2 1,3 -3,0 -2,2 -1,3 4,-2 0,3 -1,2 -3,1 0,3 -3,1 -1,2 -1,2 -1,2 -2,1 0,3 -1,2 -2,1 1,3 0,2 -2,2 -2,1 0,2 1,3 -2,-1 -1,2 -2,1 1,2 2,-1 0,3 -2,0 0,2 1,2 0,2 1,3 0,2 -2,1 2,2 -2,1 -2,1 -1,-2 0,-2 1,-2 1,-2 -2,-1 0,-2 1,-1 0,-2 -1,-2 0,-2 -1,-2 -1,2 -1,2 -2,-1 -2,0 -1,-3 2,-1 1,2 1,-2 1,-1 2,-2 1,2 2,-1 0,-2 1,-1 -3,-1 1,-2 1,-1 3,0 2,-2 -2,-1 0,-3 2,-2 2,-2 -3,-2 -3,-1 0,3 -2,1 -3,1 0,-3 1,-2 1,-2 2,-1 0,-3 2,1 2,-2 -2,-1 1,-2 0,-2 -3,1 -1,2 -2,1 -1,2 -1,2 -1,2 -1,2 -2,2 2,1 0,2 -2,0 -2,1 1,2 -1,2 -2,2 -3,0 0,3 -1,2 1,3 2,-1 1,-2 1,-2 2,-2 2,0 1,-2 0,-3 3,0 3,-1 0,3 -3,1 -1,3 0,2 -1,2 -2,1 0,-3 -2,2 0,2 -2,1 -1,1 -3,0 0,3 3,2 -2,1 -3,0 -3,0 -2,1 2,2 -2,1 -1,2 -2,2 0,3 -1,4 -3,1 -1,2 -1,2 1,3 -1,1 -2,2 3,2 -2,2 -1,4 -4,0 -1,3 -4,0 -3,0 -2,-1 -1,3 -3,-1 -1,3 -2,-1 -1,3 -2,3 -1,3 4,-2 3,-1 2,-2 2,-1 3,-1 2,-1 4,0 -1,4 -2,1 -3,0 -2,2 -2,2 -3,1 -2,1 -3,2 -4,0 -5,0 -1,4 -3,3 -1,3 5,-1 4,1 0,-3 2,-2 3,-1 0,3 3,-1 1,-3 2,-2 3,-1 2,-2 3,0 1,-2 3,0 2,-2 1,-3 3,-1 -1,3 3,0 1,-3 2,1 1,-3 2,1 1,3 -1,2 -2,1 -1,2 -2,-1 1,3 -1,1 0,2 -2,1 -1,2 -1,2 -3,0 1,-3 1,-2 0,-2 2,-1 0,-3 -3,1 -2,2 -1,1 0,2 -3,-1 -2,1 -2,1 -1,1 -2,1 -1,1 -1,2 -1,2 -3,0 -3,0 1,3 0,3 0,3 -1,3 0,3 0,3 2,1 2,-2 -1,-3 1,-3 1,-2 3,0 0,-3 -3,0 0,-3 3,0 4,1 -1,-4 1,-3 3,-2 2,-1 2,0 -1,3 -2,2 0,3 4,0 0,-2 3,0 4,0 1,-3 1,-2 3,-1 1,-2 -2,0 1,-3 2,0 -1,-2 2,-2 1,2 2,-1 0,-2 -1,-2 0,-2 2,-1 2,0 1,-2 0,-2 3,0 0,2 -1,2 3,0 2,-1 -1,-2 0,-2 1,-1 -1,-3 2,-2 1,-2 1,-2 -1,-2 1,-1 -1,-2 -2,-1 -2,1 1,3 -3,0 1,3 -3,0 -2,0 -1,2 0,2 3,0 2,-1 0,3 -2,1 -2,0 -1,2 -1,2 -3,1 -2,-1 2,-2 1,-2 1,-2 -1,-3 1,-3 1,-2 1,-1 1,-3 2,-1 0,-3 0,-2 0,-2 1,-1 2,-1 -3,-2 -1,-3 -1,1 -1,2 0,3 -1,2 1,2 -1,1 -1,2 -2,2 -2,2 0,3 0,3 0,3 -1,2 -2,2 -2,2 -2,2 -4,0 2,-3 3,-3 2,-2 1,-3 -1,-3 1,-2 -1,-3 1,-2 2,-1 2,-2 0,-3 2,-1 1,-2 -2,-1 2,-2 1,-2 2,-2 2,-1 2,-1 0,3 1,3 0,2 2,0 1,2 2,-1 0,-2"/>
    <path style="fill:none;stroke:#000000;stroke-width:1"
          d="m 173,127 -2,-1 2,-1 -2,-1 1,-2 0,-2 1,-1 3,0 -1,2 0,2 1,2 0,2 -1,2 0,2 -2,1 0,2 -2,0 -1,-2 -2,1 0,1 0,2 1,2 2,-2 1,2 2,1 0,-2 1,-2 1,-2 2,2 0,2 -1,1 1,2 -2,1 1,2 0,2 3,2 -1,1 -3,1 -1,1 -1,2 0,2 0,2 0,2 0,2 -1,2 -2,1 -3,0 -1,1 1,1 -1,2 0,2 0,2 -1,2 -1,-1 -1,-2 1,-2 0,-3 -1,-2 -2,1 1,2 -1,2 -1,2 1,2 -2,1 -1,-2 -1,2 -1,1 0,2 0,2 -3,0 0,2 -1,2 -1,3 -2,2 -3,-1 -2,2 -2,3 -2,-4 -2,1 -1,3 -3,-1 -1,3 -2,2 -3,0 0,3 3,1 3,0 2,-2 3,-1 2,-1 3,0 3,0 -1,-3 3,0 3,-1 2,-2 1,-3 2,-1 -1,-3 1,-1 3,2 0,-3 -1,-2 0,-2 1,-1 2,-1 2,1 0,2 -2,0 0,2 1,2 1,2 -1,1 -1,2 2,1 3,0 -1,-2 1,-2 -1,-2 -1,-2 1,-2 1,-2 1,-2 2,-1 -1,-2 0,-2 1,-1 0,-2 2,0 2,-1 2,1 -1,-3 1,-2 1,-1 -1,-2 2,-2 -2,-1 1,-2 2,-1 3,0 1,-3 1,-2 1,-2 2,1 3,-1 -1,-3 3,0 0,-3 3,-1 2,-3 1,-2 1,-1 0,-2 0,-2 0,-3 1,-2 2,-1 -2,-2 2,-1 0,-3 -3,0 0,-2 -3,0 -1,1 -1,3 3,0 0,2 -2,1 -2,1 -1,2 -1,2 -2,0 -1,1 1,2 0,2 -1,2 3,-1 1,-3 1,-1 1,-2 1,-2 2,-1 0,3 -1,2 0,2 -2,1 0,2 -1,2 -3,1 -2,2 -1,1 -1,2 0,2 -3,-1 -1,2 -3,1 0,-2 1,-2 1,-2 2,-1 -3,-2 2,-1 3,0 0,-2 0,-2 1,-1 0,-2 -2,-2 0,-2 2,0 3,0 1,-2 1,-2 1,-2 -2,-1 -3,0 1,2 1,1 -2,2 -1,-1 -2,1 -1,-2 2,-1 -1,-2 1,-2 1,-1 3,0 3,1 0,-3 -2,-2 -3,1 0,-2 1,-2 2,-1 1,-2 -1,-2 1,-2 1,-2 0,-2 2,-1 1,-2 1,-2 1,-2 1,-1 2,-2 1,-2 3,0 0,2 -2,2 -1,2 -2,2 0,2 -1,1 -1,2 2,1 -2,2 -2,-2 -1,2 -1,2 1,2 2,-2 2,2 0,2 -3,0 -1,1 -2,1 2,2 2,-1 0,3 2,-1 1,-2 2,-1 1,-2 -1,-2 -1,-2 1,-2 2,-1 0,3 2,-1 1,-2 1,-1 1,-2 0,-3 -2,1 -1,2 -3,0 0,-2 1,-2 2,-1 1,-2 2,1 3,1 0,2 0,2 1,2 1,2 -3,-1 0,2 0,2 -2,2 -1,-2 -1,2 -1,1 0,2 -1,2 -1,2 -1,2 2,1 3,0 1,-2 -2,-1 1,-2 2,0 0,-2 2,0 1,-1 -1,-2 2,-1 0,-2 2,0 3,-1 -2,-1 -1,-2 -1,-2 0,-2 0,-2 1,-1 2,-1 0,3 0,3 1,2 1,-2 1,-1 1,-2 -2,-2 1,-2 -3,-2 2,-1 3,0 3,1 0,4 -1,1 -1,3 3,0 0,3 -3,0 -2,1 0,2 -1,2 -2,1 -2,1 -1,1 0,2 0,2 -3,1 -1,2 -1,2 -2,2 -2,2 -1,1 0,3 -1,2 -2,1 -1,2 1,2 0,2 0,2 3,-3 -1,-3 3,0 1,-2 1,-2 1,-3 1,-2 1,-2 2,2 2,-2 -2,-1 0,-2 1,-1 2,-1 1,3 2,-1 1,-1 0,-2 1,-2 -4,0 1,-2 3,-1 1,-2 1,-3 3,0 -1,3 0,3 0,2 0,2 -1,1 0,2 -1,2 -3,1 -2,1 -1,2"/>
    <path style="fill:none;stroke:#000000;stroke-width:1"
          d="m 219,118 -2,1 -2,1 -1,2 -1,2 4,-1 3,-1 3,0 0,-3 2,-2 3,0 0,-2 3,0 3,-1 1,-3 -1,-3 -1,2 -1,2 -3,0 1,-3 1,-2 -1,-2 0,-3 1,-2 1,-2 -2,-2 1,-2 2,-1 3,0 1,-2 1,-2 3,0 1,4 -1,2 -1,1 -3,0 -3,0 1,3 0,2 -2,1 0,2 1,2 2,-1 1,-2 1,-2 0,-2 3,0 0,2 -1,3 -1,2 0,2 -2,1 2,2 -1,2 -2,2 -1,2 -2,1 1,3 3,-1 2,-2 1,-2 2,-2 0,-2 1,-2 2,1 3,-1 1,-2 2,1 1,-2 -2,-2 2,-1 1,-2 2,-1 0,3 0,2 3,0 0,-3 1,-2 2,-2 2,-1 1,-1 1,-2 1,-2 2,-1 -1,-2 0,-2 -1,-2 1,-1 1,-2 -1,-2 -1,-2 -2,2 0,2 -1,3 -3,1 4,2 0,2 -2,-1 0,3 -2,-1 0,3 -2,-1 -3,1 3,2 -2,2 -3,-1 -3,1 -1,2 -1,2 -2,2 -1,2 -3,0 1,-3 2,-2 0,-3 1,-2 1,-2 3,0 2,-2 1,-2 3,0 2,-2 -2,-1 1,-3 3,-1 1,-1 -1,-3 2,-1 2,-1 2,-2 0,-2 1,-1 1,-2 2,-1 1,-2 -1,-2 1,-1 -2,-2 2,-1 1,-2 0,-2 0,-2 1,-1 1,-2 2,-2 0,-2 -1,-2 0,-2 1,-2 2,-1 1,-2 -3,0 0,-2 -1,-2 1,-2 -1,-2 1,-1 2,0 -1,-2 0,-2 1,-2 2,2 1,-2 0,-2 0,-2 0,-2 -1,-2 -2,-1 -1,-2 -1,2 0,2 2,1 0,2 0,2 -2,-2 -1,2 0,2 -1,1 0,2 -1,2 -1,2 1,2 -1,2 1,2 0,2 1,2 -2,0 0,2 0,2 1,2 0,2 -1,2 -2,1 -1,1 0,2 0,2 0,2 -2,1 -2,0 -2,1 -2,1 -3,0 0,-3 -3,1 -1,-3 1,-2 3,1 -1,-3 2,-1 2,-2 1,-2 2,-1 -1,-2 0,-2 0,-2 0,-2 -1,-2 -1,2 -1,2 0,2 0,2 -1,2 -1,2 -2,1 -3,2 0,-4 -2,1 -2,2 -1,3 3,0 -1,3 -3,1 -3,1 0,-3 1,-2 0,-3 1,-2 1,-2 3,-1 -2,-1 -3,-1 -2,1 0,2 -1,2 -2,1 2,2 -2,1 0,2 0,3 0,2 -1,2 -2,0 -2,1 0,2 0,2 0,2 2,-1 2,0 1,-2 -2,-1 3,-1 2,-2 3,0 1,3 -3,1 -2,2 -2,2 -2,1 -1,2 0,2 0,2 -3,-1 -1,2 -1,2 3,0 2,-1 2,-1 1,-3 0,-2 3,0 1,-2 2,1 0,-3 2,-1 3,-1 -1,-3 0,-3 2,-1 1,4 3,0 -1,3 -1,3 -3,0 -1,2 -1,2 -1,2 -3,0 -1,1 -2,1 -1,3 3,0 3,1 1,-2 3,-1 1,-3 1,-2 3,-1 3,-1 -1,-4 2,-2 3,0 1,-2 3,-1 0,2 0,2 -2,2 -3,1 1,3 -1,2 -3,1 -3,1 1,3 -3,0 -1,3 -2,3 -2,1 -1,3 -3,0 0,-4 -3,-2 -3,1 -1,-3 -2,1 -1,2 -1,2 -1,2 -3,1 0,-3 2,-2 1,-2 -4,-1 -1,-3 1,-1 1,-2 2,-2 2,-1 1,-2 -3,-1 -1,1 -1,2 -2,1 -3,0 -1,3 -1,2 -3,1 -2,0 -2,1 -1,2 0,2 -2,1 -2,-2 -2,1 -1,-3 3,-1 2,-1 -1,-3 2,-1 2,2 2,-1 1,-1 2,-2 1,-2 2,-1 0,-2 0,-2 3,-1 0,5 0,-2 2,-1 2,-1 1,-1 0,-3 -3,1 -2,-1 -2,1 -2,1 -2,1 0,2 -2,2 -1,1 0,2 -2,1 -3,-1 1,-1 1,-2 1,-2 2,-1 1,-3 2,-1 1,-1 2,0 -1,-2"/>
    <path style="fill:none;stroke:#000000;stroke-width:1"
          d="m 223,61 0,-2 0,-2 -2,0 0,-2 -1,-2 0,-2 2,-1 1,2 0,2 2,1 0,2 1,2 0,2 3,1 1,-2 2,1 1,-2 2,2 2,-1 -1,-2 1,-2 0,-2 0,-3 0,-2 2,-1 0,-2 0,-2 1,-1 -1,-3 0,-3 -1,-3 2,-1 1,-2 -1,-3 1,-1 -1,-2 -3,0 1,-2 0,-2 1,-2 -1,-2 0,-2 -2,0 -2,1 0,2 2,1 -1,2 -2,-1 -1,2 3,1 -1,1 1,2 1,2 2,1 -1,2 -2,1 -1,-2 -1,-2 -1,-2 -1,-2 -2,1 1,2 1,2 1,2 0,2 1,2 2,-1 1,2 0,2 0,2 0,2 0,3 -2,1 -1,2 2,2 -1,2 0,3 -1,1 -2,1 -3,0 0,-2 2,-1 1,-2 0,-2 -1,-2 1,-2 1,-2 2,-1 -1,-2 0,-2 0,-2 -2,1 0,3 -1,1 -1,2 -2,0 0,-2 1,-2 1,-1 -2,-1 1,-2 2,-1 -1,-1 0,-2 0,-1 -1,-2 -2,1 -3,-1 1,-2 3,0 -1,-2 1,-2 2,-1 1,-2 0,-2 1,-1 0,-2 2,-1 1,-1 -2,-2 2,-1 1,-2 1,-2 0,-2 -1,-2 0,-2 3,0 0,2 1,2 0,2 -1,2 -1,2 -1,2 2,1 1,-2 2,-1 0,-2 1,-2 0,-2 -1,-2 2,-2 0,2 2,1 2,-2 1,2 1,2 0,2 -2,1 -1,-3 -1,1 -1,2 0,2 3,0 -1,2 1,2 -1,3 -2,1 0,-2 0,-2 -1,-2 -2,1 0,2 0,2 1,2 -1,2 0,2 2,2 1,-2 0,-2 2,-1 1,2 0,2 0,2 -2,1 -1,2 1,3 -1,2 -2,2 2,1 -1,2 -1,1 1,3 2,-1 3,1 -1,-3 0,-3 1,-2 0,-3 0,-2 1,-1 3,0 0,3 -1,2 3,-1 1,-2 0,-2 0,-3 -2,0 -3,0 1,-2 0,-2 1,-1 -3,-1 0,-2 0,-2 1,-2 -1,-2 1,-2 2,-1 0,-2 -1,-2 1,-2 -2,-1 0,-2 2,0 2,1 1,2 -1,2 1,2 0,2 0,2 -1,1 -2,0 1,2 3,1 -1,1 -3,0 0,2 3,0 0,2 0,2 0,2 2,-1 2,-1 -1,-2 0,-2 1,-1 0,-2 -1,-2 0,-2 0,-2 0,-2 -1,-2 1,-2 -1,-2 3,0 1,2 2,-1 0,-2 2,0 3,0 0,2 -2,1 -1,1 -2,1 -3,0 1,2 0,2 0,2 0,2 1,2 2,-1 0,-2 2,-1 -2,-1 0,-2 1,-1 2,0 1,-2 2,2 0,2 -2,1 2,1 1,2 -1,2 -2,-2 -1,1 0,2 -2,1 -2,0 -1,1 1,2 -2,0 1,2 -1,2 1,2 -3,-1 0,2 -1,1 0,2 0,2 0,2 -2,1 -2,1 -2,1 -1,1 -1,2 1,3 3,1 -1,2 3,1 1,-3 0,-2 -3,-1 1,-2 3,1 0,-2 1,-1 2,-1 0,-2 0,-2 0,-2 1,-2 1,2 2,-2 0,-2 -1,-2 1,-2 1,-2 1,-1 2,0 1,-2 1,2 -1,2 -2,1 -1,2 1,2 0,2 -1,2 -2,1 -1,2 1,2 -1,1 3,1 -2,1 1,2 0,2 0,2 0,2 1,2 -1,2 -2,1 -1,2 -1,2 -1,2 0,3 2,-1 2,-1 1,-1 0,-2 0,-2 2,-2 2,-1 0,-2 -1,-2 0,-2 0,-2 0,-2 1,-1 0,-2 0,-3 -2,1 -1,-2 2,-1 1,-2 1,-2 0,-2 -1,-2 2,-1 1,-2 1,-2 -1,-2 0,-2 1,-2 -1,-2 0,-2 0,-2 -1,-2 -2,-1 1,-2 1,-1 2,-1 4,1 -2,1 -2,1 1,2 2,0 2,0 1,-2 1,-2 2,-1 3,0 -1,2 -2,1 -1,2 3,0 0,2 0,2 1,2 2,-1 0,-2"/>
    <path style="fill:none;stroke:#000000;stroke-width:1"
          d="m 288,8 0,-2 -1,-2 1,-2 1,-2 3,0 -1,2 -1,2 1,2 0,2 0,2 -1,2 1,2 -3,-1 0,2 1,2 2,-1 3,0 0,-2 -1,-2 1,-2 0,-2 0,-2 -1,-2 1,-2 1,-2 3,0 -1,2 -1,2 3,0 -2,2 0,2 0,2 -1,2 3,0 -2,2 0,2 2,2 -3,0 1,2 0,2 2,2 -2,2 0,2 2,2 -2,1 0,2 0,2 0,2 0,2 -1,1 2,2 -1,2 2,2 -2,1 0,2 -2,-4 -1,2 0,2 -2,0 -1,1 1,2 -1,2 0,2 -1,2 0,2 1,2 0,2 -1,2 0,2 1,2 0,2 0,2 -1,2 -1,-2 -2,1 0,2 1,2 2,-1 1,2 -1,2 -3,-1 0,2 1,2 2,-1 2,1 -1,2 -2,0 -1,1 0,2 2,1 2,-1 2,1 0,-2 0,-2 1,-2 -1,-2 -2,-1 2,-2 -1,-2 0,-2 1,-2 0,-2 0,-2 -1,-2 2,-1 -2,-1 1,-2 0,-2 -1,-2 0,-2 1,-2 0,-2 1,-2 2,-1 0,2 0,2 0,2 -1,1 0,2 3,0 -2,2 0,2 0,2 2,2 -2,1 0,2 0,2 0,2 -1,1 0,2 3,0 -2,2 0,2 0,2 2,2 -2,1 0,2 0,2 0,2 0,2 0,2 -1,1 -1,2 -1,2 -2,1 -2,1 0,-3 2,-1 1,-2 1,-2 1,-2 -3,-1 -1,1 0,2 -1,2 -2,1 0,2 -1,2 1,2 -1,2 -1,1 0,2 -2,2 1,2 0,2 -2,1 -1,1 0,2 -2,1 -1,-2 -1,-2 2,-1 0,-2 2,0 -1,-2 2,-2 0,-2 0,-2 2,-1 -3,-1 2,-1 1,-2 0,-2 1,-2 2,-1 0,-2 -1,-2 -2,1 0,2 -2,2 -1,2 0,2 -2,1 -1,-2 0,-2 -1,-2 2,0 2,-1 -2,-1 2,-1 -2,-2 -1,-2 0,-2 1,-2 2,-1 0,3 0,2 1,2 2,-1 0,-2 -1,-2 1,-1 -1,-2 0,-2 1,-2 -1,-2 0,-2 1,-2 2,-1 1,-1 0,-2 -3,1 0,-2 0,-2 2,0 1,-2 0,-2 -1,-2 0,-2 1,-2 0,-2 1,-2 -1,-2 -1,-2 1,-1 2,0 2,-1 0,-2 1,-1 2,-1 -2,-2 -2,1 0,-3 1,-1 2,0 0,-2 -2,-1 2,-1 0,-2 1,-2 -1,-2 0,-2 2,-1 -2,-2 0,-2 -1,-2 -2,1 0,2 1,2 -1,2 -1,1 0,2 2,1 -1,2 -2,0 -1,1 1,2 0,2 -2,1 -1,-2 0,-2 -3,0 1,-2 2,-1 0,-2 2,0 -1,-2 0,-2 2,-1 -2,-1 0,-2 1,-1 -2,-2 -1,-2 0,-2 -2,-2 -1,-2 0,-2 -2,1 -2,0 -2,0 0,2 0,2 2,-1 2,0 2,2 -2,1 2,1 1,2 1,2 0,2 0,2 0,2 -1,2 0,2 -3,0 1,2 -1,2 -1,1 -1,2 1,2 2,-2 2,-1 1,2 -2,1 0,2 -1,2 -1,2 -2,1 0,2 2,0 2,-1 1,-2 1,-2 1,-1 1,-2 3,0 -1,2 1,2 -1,1 -2,0 -1,2 -1,2 -2,1 -1,1 -2,0 0,2 -2,1 -1,2 -1,2 0,2 1,2 0,2 -2,-1 0,2 0,2 0,2 2,0 -1,2 -2,1 -2,2 -1,2 -1,2 0,2 1,2 1,2 -1,3 0,2 0,2 1,2 -1,2 -2,1 2,2 -2,1 -1,2 -3,1 -2,2 -1,2 -1,2 -1,2 1,2 1,2 -1,2 0,2 -1,1 0,2 -3,0 0,-2 1,-2 1,-2 -2,-2 1,-1 -1,-3 -2,1 -1,3 -2,1 -3,0 -2,1 0,3 -3,0 1,3 -1,2 -3,0 -3,1 -2,1 -1,2 -1,2 -1,2 -3,1 -1,2 -1,2"/>
    <path style="fill:none;stroke:#000000;stroke-width:1"
          d="m 227,135 0,2 -4,-2 0,3 -2,2 -1,3 -2,-1 -1,3 -1,2 -3,1 0,-2 0,-2 1,-2 1,-2 3,-2 -3,-2 -3,2 -2,2 -1,2 0,2 0,2 -3,0 -1,2 -1,2 -1,3 -1,3 -3,0 1,-2 0,-2 1,-2 -2,-2 2,-1 -1,-3 3,0 2,-1 0,-3 2,-2 2,-2 2,-2 2,-2 2,-1 3,3 2,-1 3,-1 1,-2 1,-2 1,-1 3,0 1,-2 1,-2 0,-3 -3,0 -1,2 -1,2 -4,2 -3,0 1,3 -2,1 -3,-3 -2,1 -3,1 -1,2 -2,1 -1,2 -3,1 -2,2 -1,3 -3,2 -1,3 -2,-1 2,4 1,3 -1,1 0,2 -1,2 2,1 -1,2 -2,-1 -1,2 0,2 2,2 1,-2 2,-1 1,-2 2,-1 3,0 1,-2 1,-1 0,-3 2,-1 1,-2 3,1 -1,2 0,2 -2,1 0,2 -1,2 -2,1 2,1 -1,1 0,2 3,0 1,-2 0,-3 1,-2 2,2 1,-3 2,-1 0,3 3,0 1,-2 2,1 3,0 1,-2 1,-2 3,-1 0,3 -1,3 -1,2 0,3 2,3 -3,1 1,3 2,-1 3,-1 1,-1 3,-1 1,-1 -1,-3 -2,1 -3,1 0,-3 0,-3 3,1 -1,-3 3,0 1,-2 3,0 2,1 1,-2 1,-2 0,-3 2,-1 1,3 2,1 0,-2 0,-3 1,-2 1,-2 0,-3 0,-3 -1,-3 0,-2 2,-1 1,3 2,3 2,-2 1,-2 1,-3 -2,-1 -2,2 -2,-3 -3,0 -2,-1 -1,2 0,3 0,2 1,3 -1,2 0,3 -1,2 -1,1 -3,1 -1,3 -1,2 -3,1 -3,0 -2,2 -2,-4 3,-1 3,0 1,-1 1,-2 1,-2 2,-2 0,-3 2,1 0,-3 2,-1 -2,-2 1,-2 0,-3 -3,1 -2,1 1,3 -1,1 -1,2 -2,1 2,2 -2,2 -2,-2 -2,1 -1,2 3,1 -1,2 -3,0 -2,-1 -2,2 0,3 -3,1 -1,2 -1,2 -2,-3 -2,2 -2,-1 -3,1 1,-3 3,-1 2,-1 1,-2 3,1 0,-3 2,-2 1,-2 3,0 1,-2 0,-2 3,1 1,-2 -3,-2 3,-1 2,1 0,-3 1,-2 2,-2 2,-1 4,0 2,-2 0,-3 1,-3 3,-1 2,-1 -2,4 0,2 0,3 3,0 1,-1 2,-1 1,3 2,-2 1,-2 0,-2 1,-2 0,-2 1,-2 2,-1 0,-2 -3,1 -1,-2 2,-1 3,-1 -3,-1 1,-2 2,-1 3,-1 1,-2 2,0 0,-2 -1,-2 1,-2 1,-2 -1,-2 0,-2 0,-2 1,-1 1,-2 1,-2 2,-1 0,-2 1,-2 -2,0 -2,1 0,2 -2,2 -1,-2 0,-2 1,-2 2,-1 1,-1 1,-2 2,2 1,-2 -1,-2 0,-2 -2,-1 2,-1 0,-2 0,-2 -1,-2 0,-2 1,-2 2,-1 1,-1 2,-1 1,-2 1,2 -1,2 0,2 -1,2 -1,-2 -2,1 0,2 1,2 2,-1 1,2 0,2 -3,-1 0,2 0,2 0,2 1,2 -1,2 -1,2 0,2 1,2 -1,2 -1,1 -2,1 -1,2 -1,2 0,2 1,2 0,2 -1,1 -1,2 1,2 0,2 1,2 -2,1 -2,0 -2,2 -1,1 0,2 3,-1 2,-1 2,1 0,-2 2,-1 1,2 0,2 0,2 -2,1 -1,-2 -2,0 -2,1 -2,1 -2,-1 0,2 -1,2 -2,1 0,2 2,0 2,-1 1,-2 2,-1 2,-1 2,1 0,2 -2,0 -1,1 0,2 2,1 1,2 -1,2 -1,1 -2,1 1,2 0,2 -2,2 -1,2 -1,1 -1,2 0,2 2,1 -2,1 1,2 1,2 -3,0 -1,-2 -1,-2 0,-2 0,-2 1,-2 0,-2 0,-2 2,1 2,-2 0,-2 -2,0 -2,1 0,-2 0,-2"/>
    <path style="fill:none;stroke:#000000;stroke-width:1"
          d="m 267,124 2,0 1,-2 1,2 2,-2 0,-2 -1,-2 -2,1 -1,1 -2,1 -2,-2 0,2 -1,2 0,2 -1,1 1,2 0,2 0,2 0,2 -1,2 0,2 -3,0 -3,1 0,3 -1,2 1,3 -2,-1 -1,2 0,2 1,2 -2,1 2,2 -1,1 0,2 0,2 1,2 0,2 1,2 2,-1 1,-2 -2,-1 0,-2 2,-1 -2,-1 1,-2 -1,-2 2,0 -1,-3 -1,-1 2,-1 1,-2 -1,-2 0,-2 1,-2 3,-1 1,2 -2,1 0,2 3,-1 0,2 -2,1 -1,2 -1,2 0,2 1,2 -1,2 0,2 0,2 1,2 -1,2 0,2 0,2 -2,-1 -2,1 -2,-1 0,2 -1,2 1,2 1,2 -2,1 -1,1 0,2 2,1 1,-2 2,-1 1,-2 -1,-2 -1,-2 2,-1 2,0 1,2 -1,1 1,2 -1,2 -1,2 -2,1 0,2 3,-1 0,2 -2,1 0,2 -2,2 -1,2 -1,2 -1,1 -1,2 -2,2 0,2 0,3 2,-1 1,-2 0,-2 2,-1 1,-2 1,-2 1,-2 1,-2 2,-1 0,-2 3,0 -1,-2 0,-2 -1,-2 1,-2 1,-2 1,-1 2,0 2,-1 0,-2 2,0 1,-1 -2,-2 -1,-2 0,-2 1,-2 -1,-2 0,-2 0,-2 2,-1 -2,-2 0,-2 -1,-2 -2,1 0,2 1,2 -1,2 0,2 0,2 1,2 -1,2 0,2 1,2 -1,1 0,2 -2,1 -1,-2 0,-2 0,-2 0,-2 1,-2 -1,-2 0,-2 0,-2 1,-2 -1,-2 0,-2 1,-2 2,-1 1,-1 2,-1 1,2 0,2 2,2 1,2 0,2 -1,2 0,2 0,2 0,3 0,2 1,2 2,-1 0,-2 -1,-2 1,-2 0,-2 2,0 0,-3 -2,0 1,-2 0,-2 -1,-2 -2,-1 0,-2 -1,-2 1,-1 0,-2 -1,-2 0,-2 1,-2 -2,-1 2,-1 0,-2 1,-2 2,-1 2,1 1,-2 -1,-2 -2,1 0,-2 2,-1 0,-2 3,0 0,2 0,2 1,2 -1,2 0,2 1,2 0,2 -1,2 0,2 1,2 0,2 1,2 0,2 1,2 2,-1 0,-2 -1,-2 0,-2 -1,-2 0,-2 1,-1 0,-2 0,-2 -1,-2 0,-2 1,-2 -1,-2 0,-2 -1,-2 0,-2 1,-2 2,-1 1,-2 0,-2 -1,-2 2,-1 0,-2 1,-2 2,-1 2,1 0,-2 2,-1 1,-2 1,-2 1,4 -2,2 0,2 0,2 2,2 -2,1 0,2 0,2 0,2 0,2 -1,1 0,2 3,0 -2,2 0,2 2,2 -2,2 -1,-2 -2,2 0,2 -2,1 -1,-2 0,-2 2,-1 1,-2 0,-2 -1,-2 0,-2 -1,-2 2,-1 0,-2 0,-2 0,-2 1,-2 -1,-2 -2,0 0,2 -1,2 0,2 0,2 -1,1 -1,2 1,2 -3,-1 0,2 1,2 2,-1 1,2 0,2 -3,-1 1,2 -1,2 0,2 1,2 0,3 2,-1 0,2 1,2 -2,1 -1,-2 -1,2 1,2 2,1 -2,1 1,2 0,2 -1,2 -2,1 -1,1 0,2 2,1 1,-2 2,-1 1,-2 1,-2 0,-2 1,-1 0,-2 0,-2 1,-2 -1,-2 0,-2 2,-1 1,-2 2,2 -2,2 0,2 2,2 -2,1 0,2 0,2 0,2 -1,1 -1,2 -1,2 2,2 1,-2 1,-2 1,4 -2,2 0,2 -1,2 3,0 -2,2 0,2 2,2 -2,1 0,2 0,2 -1,2 3,1 -2,1 -2,1 0,2 3,0 -1,2 0,2 2,2 -3,0 1,2 0,2 -1,2 3,0 -2,2 0,2 -1,2 3,0 -2,2 0,2 -1,2 3,0 -2,2 0,2 2,2 -3,0 1,2 0,2 -1,2 3,0 -2,2 0,2 0,2 2,2 -2,1 0,2"/>
    <path style="fill:none;stroke:#000000;stroke-width:1"
          d="m 297,227 0,2 -3,0 0,-2 0,-2 1,-2 -1,-2 -2,-1 -2,0 1,-2 3,0 -1,-2 1,-2 0,-2 -1,-2 1,-2 0,-2 -1,-2 1,-2 0,-2 -1,-2 1,-2 0,-2 -1,-2 1,-2 0,-2 -1,-2 1,-2 0,-2 -3,0 1,-2 0,-2 1,-2 0,-2 1,-1 0,-2 0,-2 1,-2 -1,-2 0,-2 0,-3 0,-2 -1,-2 -2,1 0,2 1,2 -1,2 0,2 1,2 -1,2 0,2 -3,-1 0,-2 1,-1 -1,-2 0,-2 1,-2 -1,-2 -2,0 0,2 -1,2 0,2 0,2 0,2 -2,1 2,1 1,3 1,-1 2,-1 1,2 0,2 -2,0 1,2 0,2 -1,2 0,2 3,0 -1,2 1,2 0,2 -1,2 1,2 0,2 -1,2 1,2 0,2 -1,2 1,2 0,2 -1,2 1,2 0,2 -1,2 -2,1 -1,2 0,2 1,2 2,-1 2,1 -1,2 -2,0 -1,2 3,0 0,2 -3,0 -3,0 0,-2 1,-2 -1,-2 -2,0 0,2 -1,2 0,2 -3,0 0,-2 1,-2 0,-2 -2,0 -1,2 -1,2 0,2 -3,0 0,-2 -3,0 0,2 -3,0 0,-2 0,-2 2,0 0,-2 -2,-1 -1,-2 -1,-2 0,-2 1,-1 1,-2 1,-2 -1,-2 0,-2 0,-2 -1,-2 2,-1 2,1 -1,2 1,2 0,2 1,2 -1,2 0,2 -1,1 1,2 -2,0 1,2 2,1 1,2 0,2 2,0 1,-2 -1,-2 -1,-2 0,-2 0,-2 0,-2 1,-2 -1,-2 0,-2 -1,-2 1,-2 2,-1 2,-1 2,-2 0,2 1,2 2,-1 0,-2 -1,-2 1,-2 1,-2 1,-2 1,2 0,2 -1,2 1,2 0,2 -1,2 -2,1 0,2 3,-1 0,2 -2,1 -1,2 0,2 1,2 -1,1 -1,2 -2,0 0,-2 0,-2 -1,-2 1,-1 1,-2 -1,-2 0,-2 -2,-1 -2,1 2,2 -1,1 0,2 0,3 0,2 0,2 0,2 1,2 2,-1 2,1 3,0 0,-2 1,-2 1,-2 2,-1 0,-2 -3,1 0,-2 2,-1 1,-2 0,-2 -1,-2 1,-2 0,-2 -1,-2 1,-2 0,-2 -1,-2 -1,-2 2,0 0,-2 -1,-2 -2,1 -1,1 -1,2 -2,1 -1,1 0,2 -1,2 -2,1 -2,-1 -2,0 0,2 2,1 -2,1 -2,1 -2,-1 0,-2 1,-1 0,-2 -2,-2 -1,2 -1,1 0,2 0,2 -2,1 -1,2 1,2 0,2 -2,-1 -2,1 -2,0 -1,-2 2,-1 1,-1 1,-2 2,-2 0,-2 0,-2 1,-2 2,-1 2,-1 1,-2 2,-1 0,-2 -1,-2 1,-1 -2,-2 2,-1 2,-1 0,2 0,2 1,3 0,2 -1,2 -2,1 0,2 3,-1 0,2 3,0 0,-2 -1,-2 1,-1 2,0 2,-1 0,-2 2,-1 2,-1 -3,-1 0,-2 2,-1 1,2 1,-2 0,-2 -1,-2 -2,1 -1,1 -2,1 -1,1 0,2 0,2 -1,2 -2,0 0,-2 0,-2 0,-2 -1,-2 1,-1 2,0 1,-2 2,0 2,-1 -1,-2 -1,-2 1,-3 0,-2 0,-2 1,-2 0,-2 1,-2 -1,-2 0,-2 -1,-2 -1,-2 0,-2 -1,-2 0,-2 -1,-2 0,-2 1,-2 0,-2 -1,-2 -2,0 0,2 0,2 -1,2 0,2 1,2 0,2 1,2 -2,1 2,1 1,2 1,2 0,2 1,2 -1,2 0,2 -1,2 -1,1 1,2 0,2 -1,2 1,2 -3,-1 1,2 -1,1 -2,1 -2,0 -1,2 -2,0 -2,1 -1,2 1,2 0,2 1,2 -1,2 -2,1 -1,1 -2,1 -1,2 -1,2 0,2 0,2 -2,0 -1,1 0,2 -2,1 -1,2 -2,0 -1,1 0,2 2,1 2,-2 1,2 0,2 1,2"/>
    <path style="fill:none;stroke:#000000;stroke-width:1"
          d="m 257,213 2,-1 0,-2 2,0 1,-1 2,0 1,2 -1,2 -2,0 -1,1 1,2 0,2 1,2 0,2 2,1 -1,2 0,2 0,2 -3,0 0,-2 1,-2 -1,-2 -1,-2 0,-2 -1,-2 0,-2 -3,0 0,2 1,2 0,2 1,2 1,2 -2,0 1,2 0,2 -3,0 -3,0 1,-2 2,0 -1,-2 1,-2 -1,-2 0,-2 -1,-2 0,-2 1,-2 -1,-2 -2,0 0,2 -1,2 0,2 1,2 0,2 1,2 -1,2 -1,2 -1,2 -3,0 1,-2 1,-2 1,-2 -2,0 -2,0 0,2 -2,1 1,1 -1,2 -3,0 1,-2 -1,-2 -1,-2 -1,2 0,2 -1,2 -3,0 -3,0 -3,0 0,-2 2,0 0,-2 -2,-1 -2,1 -1,2 0,2 -3,0 1,-2 -1,-2 2,-1 1,-2 -1,-2 1,-2 0,-2 0,-2 -2,0 -1,2 0,2 -1,2 1,2 -2,1 -1,1 0,2 1,1 -1,2 -2,-2 -1,2 -3,0 1,-2 0,-2 2,0 -1,-2 2,-1 1,-2 1,-2 0,-2 1,-2 0,-2 2,-1 1,-2 2,0 0,-2 1,-2 -1,-2 1,-2 -1,-2 1,-2 2,-1 0,-2 -3,1 0,-2 0,-2 3,1 -1,-2 1,-1 2,0 1,2 2,-2 0,-2 2,-1 1,2 0,2 -2,1 -1,2 -2,1 0,2 2,-1 1,2 1,2 -1,2 -1,2 0,2 0,2 1,2 -1,2 0,2 1,2 0,2 1,2 -3,0 -1,-2 0,-2 -1,-2 0,-2 1,-2 0,-2 0,-3 0,-3 1,-2 -2,-1 -2,1 1,2 -1,2 1,2 -1,2 0,2 -1,2 -2,1 2,1 1,2 0,2 1,2 -2,1 1,2 2,-1 3,0 -1,2 1,2 0,2 2,0 1,-2 -1,-2 1,-2 2,0 1,-2 -2,-1 0,-2 2,0 2,1 0,-2 0,-2 1,-2 1,-2 -1,-2 0,-2 0,-2 1,-2 0,-2 2,0 1,2 -1,2 0,2 0,2 1,2 -1,2 0,2 -1,1 0,2 0,2 -2,1 -1,2 1,2 2,-2 2,-1 2,1 0,-2 -1,-2 0,-2 1,-2 0,-2 1,-2 -1,-2 0,-2 0,-2 1,-2 -1,-2 0,-2 2,-1 1,-2 0,-2 2,-1 1,-2 2,-2 0,-2 -1,-2 -2,0 0,2 0,2 -2,1 -1,2 -2,2 0,2 -2,1 -1,2 -2,-1 -2,1 -1,2 0,2 -1,2 0,2 0,2 1,2 -1,2 -1,2 -2,0 0,-2 1,-2 -1,-2 0,-2 0,-2 1,-2 1,-2 -1,-2 2,-1 0,-2 -3,1 0,-2 2,-1 1,-2 0,-2 1,-2 1,2 2,-2 -1,-2 0,-2 0,-2 0,-2 2,-1 2,0 1,2 -2,1 0,2 3,-1 -1,2 -2,1 1,2 -1,2 -2,1 -1,2 -1,1 1,2 3,-1 0,-2 2,-1 1,-2 1,-2 1,-1 0,-2 1,-2 -1,-2 -1,-2 2,-1 1,-2 -1,-2 1,-2 0,-2 1,-2 -1,-2 0,-2 -1,-2 0,-2 0,-2 -1,-3 -1,1 -1,2 0,2 0,2 1,2 0,2 1,2 -1,2 0,2 -1,2 1,2 -2,1 -2,-1 0,-2 1,-2 0,-2 -1,-2 2,0 -1,-2 0,-2 -1,-2 0,-2 -3,0 -2,1 0,2 3,0 0,2 -1,1 0,2 1,2 0,2 -1,2 0,2 0,2 -3,0 0,2 0,2 0,2 0,2 -2,1 -1,-2 0,-2 0,-2 0,-2 0,-2 2,-1 1,-1 1,-4 -1,1 -2,1 -3,0 -1,2 0,3 0,2 0,2 0,2 0,2 -2,1 -1,2 -2,-1 0,-2 0,-2 2,0 0,-2 0,-2 -3,1 -2,2 0,2 -1,1 -2,1 0,2 3,-1 0,2 -2,1 -1,2 0,2 0,2 1,2 -1,2 1,2 -2,1"/>
    <path style="fill:none;stroke:#000000;stroke-width:1"
          d="m 221,202 1,2 1,2 -2,1 -1,2 -1,1 -1,-3 1,-2 0,-2 -2,1 -1,2 -1,2 -1,-2 -2,1 0,2 -2,-1 0,2 0,2 -2,1 -1,-2 0,-2 0,-2 0,-2 1,-2 -1,-2 0,-2 0,-2 -1,-2 1,-2 2,-1 2,-1 1,-2 2,0 -1,-2 0,-2 1,-2 0,-3 1,-2 3,0 2,1 -2,2 -1,2 -1,2 0,2 1,2 -1,2 -1,1 1,2 0,2 0,2 -2,1 -1,-2 0,-2 0,-2 -2,1 -2,1 2,2 -1,1 0,2 2,1 -2,1 0,3 2,-1 2,-1 1,-2 2,0 2,-1 0,-2 1,-1 -1,-2 0,-2 0,-2 1,-2 -1,-2 0,-2 1,-2 2,-1 1,-2 1,-2 1,-1 1,-2 3,0 1,-2 -3,-1 -3,1 0,-3 1,-1 0,-3 1,-2 0,-3 -3,0 -1,3 0,3 -3,0 0,2 2,2 -1,2 2,2 -2,1 -3,-1 0,-2 0,-2 -1,-3 0,-3 3,-1 0,-3 -3,0 -2,1 -1,2 0,2 0,2 1,3 -1,1 1,3 -3,0 -1,2 1,4 -1,3 0,3 -1,2 -2,1 -2,1 -1,2 -1,2 1,2 0,2 -2,-1 -2,1 -1,2 0,2 -1,2 0,2 0,2 0,2 1,2 1,2 2,-2 -1,-2 0,-2 0,-2 0,-2 1,-2 0,-2 2,0 1,2 -1,2 0,2 0,2 0,2 1,2 -1,2 -1,1 -2,1 -1,2 -1,1 0,2 2,1 2,2 1,-2 -1,-2 0,-2 2,-1 2,-1 0,-2 3,0 0,2 -2,2 -2,1 0,2 0,3 2,-1 1,-1 1,-2 1,-2 2,-1 0,-2 -1,-2 1,-2 1,-1 2,-1 1,2 0,2 -2,0 1,2 0,2 -1,2 -2,1 -1,2 -1,2 0,2 -1,2 -1,-2 -2,0 0,2 -3,0 0,-2 -2,0 -1,2 -3,0 1,-2 1,-2 -2,0 -1,-2 -1,-2 0,-2 -1,-2 3,0 -1,-2 -2,0 1,-2 -1,-2 0,-2 0,-2 0,-2 1,-2 1,-2 -1,-2 2,-1 1,-2 1,-1 1,-2 1,-2 0,-3 2,1 0,-3 2,1 1,-2 0,-4 -3,0 -2,-2 2,-1 3,0 -1,-2 0,-2 2,-1 2,-1 1,-2 -1,-2 0,-2 -3,1 1,3 -3,1 -3,2 -1,2 -3,-1 0,3 -1,2 0,2 3,0 2,2 -2,2 -3,-1 -2,2 -1,3 5,0 -1,2 -1,2 -2,1 0,2 -2,1 0,2 1,2 -1,2 -1,2 0,2 0,2 0,2 1,2 -1,2 0,2 1,2 0,2 1,2 1,2 1,2 -1,2 -1,-2 -2,0 0,2 -2,-2 -1,2 -2,-2 -1,2 -1,-2 1,-2 -2,-1 0,-2 1,-2 1,2 2,1 1,2 2,-1 1,-1 -2,-2 0,-2 -2,1 -1,-2 0,-2 2,0 0,-2 1,-1 0,-3 -2,1 -2,1 0,2 -2,2 0,2 -2,1 -1,2 0,2 1,2 1,2 0,2 -3,0 -3,0 1,-2 2,0 -1,-2 -1,-2 0,-2 1,-2 -1,-2 3,0 0,-2 2,-1 0,-2 1,-2 2,-1 2,-1 1,-1 0,-2 0,-2 1,-2 -2,-1 2,-1 -1,-3 1,-1 2,-3 -3,0 -2,1 -2,0 1,3 -1,2 -1,2 -1,2 3,0 0,3 -2,2 -1,-3 -2,1 0,2 -1,3 -1,2 -1,2 -2,1 -2,1 -2,2 3,1 0,2 0,2 1,2 -1,2 -1,2 -1,-2 -2,2 0,-2 0,-2 2,-1 -1,-3 -1,1 -2,1 -1,2 0,2 0,2 -3,0 1,-2 -1,-2 1,-2 0,-2 2,-2 0,-3 2,-2 2,-2 2,-1 1,-2 1,-3 2,1 0,-3 1,-2 0,-2 2,-1 -2,-1 2,-1 2,-1 0,-2 0,-3 2,-1 1,-1 3,0 1,-2 1,-3 2,-2"/>
    <path style="fill:none;stroke:#000000;stroke-width:1"
          d="m 193,182 1,-2 -1,-3 -2,-1 3,-2 1,-3 3,-1 2,-1 3,-1 1,-2 0,-2 0,-2 -1,-2 -2,1 0,2 -1,2 -2,-2 -1,2 -2,1 0,2 -3,0 0,3 -3,0 -2,3 -1,3 4,2 -1,2 -3,0 -1,1 2,2 -1,2 -2,1 -1,-3 -1,-2 -1,2 0,2 -1,2 -1,2 -2,2 3,1 -1,2 -3,0 -1,2 -2,-1 0,-2 1,-2 1,-3 1,-3 1,-2 1,-1 1,-2 2,-1 2,-1 0,-2 -1,-3 -3,1 1,2 -2,2 -1,-2 -1,-2 1,-2 2,-1 1,-1 3,0 2,-2 -2,-1 1,-2 1,-1 2,-1 1,3 4,-2 -2,-1 -1,-3 -4,0 0,-3 3,0 3,0 1,-3 -2,0 -3,0 1,-2 3,-1 1,-1 -1,-3 1,-1 -4,2 -2,2 -1,2 -2,1 -1,2 -1,2 1,3 -1,1 -2,1 2,2 -1,1 0,2 -2,1 -1,-2 -2,0 -1,1 -1,2 2,0 -1,2 -1,2 -2,1 -1,2 -1,2 0,2 2,0 1,-2 0,-2 2,0 1,2 1,2 -2,0 -1,2 -2,0 -1,2 3,1 -1,2 -1,2 -1,3 -1,2 -1,2 -3,0 -1,2 -2,2 -2,2 -3,-1 -1,2 -3,0 0,-3 3,-2 3,0 2,-2 2,-3 3,0 1,-4 -3,0 -3,-2 -2,2 -1,3 -2,2 -3,0 -1,2 -3,2 -1,1 -3,0 -1,3 -3,-3 -3,1 2,2 -2,2 -3,0 0,-3 -3,1 -1,2 -2,-4 -2,2 -1,2 -2,0 -3,0 0,-2 -2,-2 -1,1 0,2 -2,1 3,2 -2,1 -1,2 -1,2 -1,2 -1,3 1,4 3,-1 0,-3 2,-2 1,-3 2,-2 1,-2 3,0 3,-1 0,2 -1,2 -2,1 -3,2 -1,4 3,0 3,0 0,-3 3,-1 1,-2 0,-2 1,-2 2,1 3,0 -1,3 -2,2 2,1 3,0 1,-3 0,-4 2,-1 4,0 2,-3 2,4 3,-1 0,3 -4,1 -2,2 -3,-1 -1,3 -1,2 0,2 1,2 2,-2 1,-2 2,2 2,-1 1,-2 2,-2 3,1 0,-3 1,-2 0,-3 3,-1 0,3 3,-3 1,-3 3,0 0,-3 2,-1 1,-2 2,2 3,0 0,2 -1,2 -2,-1 -1,3 -3,2 -1,3 -3,0 0,3 -3,0 -1,2 4,2 -2,2 -1,2 1,2 -1,2 1,2 -1,2 -1,-2 -2,0 0,2 -3,0 0,-2 1,-2 2,-1 0,-2 -1,-4 -3,0 0,3 -1,2 -1,4 0,2 -3,0 -3,0 0,-2 3,0 1,-3 0,-3 -3,1 -1,2 -3,1 -1,2 1,2 -3,0 -3,0 1,-2 0,-2 1,-2 1,-2 -1,-3 -2,1 -3,0 0,-3 -3,1 0,4 0,3 4,-2 -1,2 1,3 -1,2 -1,-2 -2,0 0,2 -3,0 1,-2 -1,-2 -1,-2 -2,-1 -3,-1 -3,0 0,2 -1,2 3,0 2,-1 2,1 1,2 -1,2 -1,-2 -2,0 0,2 -3,0 0,-2 -2,0 -1,2 -3,0 -1,-2 2,0 1,-2 1,-2 -3,1 -2,1 -1,2 0,2 -3,0 1,-2 -1,-2 1,-2 1,-2 0,-2 0,-3 1,-2 0,-3 1,-3 1,-3 1,-3 1,-2 1,-1 2,-1 1,-2 -1,-2 0,-2 0,-2 2,1 0,-3 -1,-3 -3,0 -1,1 0,3 -1,1 1,2 0,2 1,2 -3,0 -1,-2 0,-2 -1,-2 0,-3 -3,0 -1,1 0,2 0,2 3,0 -1,2 -2,0 0,2 -2,1 -3,0 0,-2 2,-1 0,-3 -2,-1 0,2 -2,1 -1,2 -1,1 1,2 2,3 -3,0 -1,1 -1,2 -1,4 4,-2 4,2 -1,-4 2,-1 0,-3 3,1 1,-2 2,-2 3,1 -1,2 -1,2 -1,2 -2,2 0,4 -1,3 0,3"/>
    <path style="fill:none;stroke:#000000;stroke-width:1"
          d="m 107,216 -1,2 0,3 -1,2 0,2 1,2 -1,2 -1,-2 -2,0 0,2 -3,0 1,-2 0,-2 2,-1 0,-2 1,-3 -1,-2 1,-2 0,-3 -4,-1 -4,2 -3,-3 -2,2 -1,2 -2,1 -2,0 0,-3 2,-2 -2,-4 1,-3 0,-3 2,-2 3,1 -1,2 0,4 3,-1 1,-2 0,-2 0,-2 2,0 -1,-2 0,-2 -3,1 -1,1 1,-4 1,-1 0,-2 1,-2 1,-2 1,-2 -1,-2 1,-2 1,-2 3,-1 0,3 -2,2 3,1 -1,2 -2,1 -1,2 -1,2 0,2 1,2 2,-2 0,-2 1,-2 3,1 1,-2 1,-4 -1,-5 3,-4 1,-4 3,-3 4,0 3,-3 2,-2 0,-3 1,-1 3,-2 -1,-2 2,-1 2,1 1,-2 1,-3 -4,1 -1,-2 -2,1 -1,-3 -2,1 -3,0 -3,0 0,-2 2,-2 3,1 0,-4 3,0 2,4 4,0 -1,-5 3,-2 5,0 3,-2 0,-3 -3,-1 -2,2 -4,-2 1,-4 2,-1 0,-4 -3,-4 2,-3 3,-2 0,-4 2,-1 1,-3 3,0 0,-2 2,-1 -1,-3 2,-1 2,-2 0,-3 -4,1 -4,-1 0,3 -2,2 3,2 -2,1 -2,2 -3,1 -2,5 -3,2 -2,3 -3,0 -2,0 0,2 -2,1 0,4 -2,3 -4,-1 1,3 -2,2 2,4 2,-2 3,0 2,-2 1,-3 1,-3 2,-2 2,-2 2,4 -2,4 0,5 -2,3 -3,1 -4,0 -3,2 -2,3 -1,4 0,3 -3,1 -1,3 2,0 2,-1 3,0 0,3 2,0 2,0 1,-2 2,-1 3,1 -1,2 -2,0 1,2 -3,1 -2,2 2,2 -2,2 -2,1 -3,0 -1,-3 3,0 1,-3 -3,0 -1,-3 -3,0 -2,2 3,1 0,2 -1,2 -1,2 -1,-4 -4,1 -3,2 1,4 4,-1 0,5 -1,3 -4,2 -3,1 0,3 -2,1 0,2 1,2 -1,2 -1,2 -2,-1 -2,1 -1,-2 3,-1 1,-1 -1,-2 0,-2 1,-2 1,-2 1,-2 2,-1 1,-2 2,-1 -4,-2 1,-3 -3,0 -1,2 0,2 1,2 -2,1 -1,2 -1,2 -1,2 0,2 0,2 -1,1 -2,0 0,2 0,2 -1,2 2,1 2,0 3,0 0,3 -3,0 0,3 -2,-1 -1,3 -2,1 1,3 -2,2 1,3 2,3 -3,0 -1,1 1,2 2,1 0,2 1,2 0,2 1,2 2,-1 0,-2 2,0 1,-1 2,0 2,-1 0,3 -1,1 0,2 0,2 3,1 -1,-2 2,-1 0,-2 0,-2 1,-1 2,-2 1,4 -1,2 -1,2 -1,2 0,2 -1,2 -3,0 1,-2 -2,0 -2,0 0,2 -3,0 1,-2 0,-2 2,-1 -1,-3 -1,1 -2,1 -1,2 0,2 -1,2 -1,-2 -2,0 0,2 -3,0 1,-2 0,-2 2,-1 2,-1 -2,-1 -1,-2 0,-2 -1,-2 1,-1 -3,-1 0,-2 -1,-2 0,-2 1,-2 0,-3 1,-4 -3,-1 -1,2 -1,2 0,3 0,3 -3,-1 -1,2 -1,1 0,2 0,2 -2,1 -1,2 0,2 1,2 1,2 1,2 3,1 1,-1 2,-1 1,-2 -1,-2 1,-1 -2,-2 -2,1 0,2 1,2 -2,1 -1,-2 -1,-2 0,-2 2,-1 1,-1 0,-2 0,-2 2,-1 1,2 0,2 1,2 2,1 0,2 1,2 0,2 -2,2 0,2 -1,2 -1,-2 -2,2 -1,-1 -2,1 -1,-2 -2,0 0,2 -2,-2 -1,2 -1,-2 -2,0 0,2 -3,0 1,-2 0,-2 2,-1 2,0 2,0 0,-1 -1,-2 -3,1 0,-2 0,-2 2,1 0,-2 1,-2 0,-2 2,0 0,-2 -2,-1 -2,1 -1,2 0,2 -2,0 -1,2 0,2 0,2 0,2 -2,2 0,2 -1,2 -1,-2"/>
    <path style="fill:none;stroke:#000000;stroke-width:1"
          d="m 53,227 -2,0 0,2 -3,0 -1,-1 1,-1 0,-2 1,-2 -1,-2 2,-1 1,2 0,3 2,-1 1,-2 -1,-2 1,-1 0,-2 -3,1 1,-2 1,-2 2,1 1,-2 2,-1 1,-2 1,-2 1,-2 1,-2 1,-2 1,-2 2,1 0,3 -2,1 -1,3 2,0 1,-1 2,-1 1,-2 1,-1 0,-3 0,-3 -3,0 -2,1 -1,-3 3,-1 -1,-3 1,-2 0,-3 -3,1 -1,1 -2,1 2,2 -1,2 -1,1 0,2 1,2 -1,2 -1,2 -1,2 -1,2 -1,2 -1,2 -2,1 -2,1 -1,-2 1,-1 2,-1 1,-2 1,-2 1,-2 1,-2 1,-2 -1,-2 0,-2 1,-3 -2,0 -1,1 -1,2 0,2 1,2 -2,0 1,2 -1,2 -1,2 -1,2 -2,1 -2,1 0,2 1,2 1,2 -1,2 -1,2 -2,1 -1,2 1,2 -1,2 -1,2 1,2 -3,0 0,-2 -1,-2 2,-1 0,-2 0,-2 0,-2 1,-1 2,-1 1,-2 -1,-2 -1,-2 0,-2 1,-2 2,-1 2,-1 1,-2 1,-2 -1,-2 1,-2 0,-2 1,-2 0,-2 1,-2 2,1 2,-1 0,-2 1,-2 2,-2 2,1 3,-1 3,-1 3,-1 1,-2 -1,-4 3,-2 2,4 -1,2 0,3 0,4 -3,-1 -2,2 -1,3 3,0 3,-1 0,3 -3,1 -3,0 1,3 4,0 3,0 3,-1 1,-3 -3,0 0,-3 0,-3 0,-2 0,-3 1,-2 2,1 1,-2 -3,-3 3,0 1,-1 1,-2 2,-2 0,-2 -1,-2 1,-2 -1,-2 0,-2 0,-2 1,-2 -1,-2 -1,-2 1,-2 1,-2 2,-1 2,2 -2,1 0,2 3,0 0,2 -1,2 -1,1 -1,2 0,3 3,-1 3,-3 2,-2 2,-2 2,-3 -4,-1 -1,-1 -1,3 -1,-2 -1,-2 1,-3 1,-2 3,0 -1,2 0,2 4,-2 3,-1 2,-3 -3,-2 3,-2 2,-2 -1,-4 -3,1 -3,1 -3,5 -2,2 -3,0 -1,2 -2,0 0,2 -1,1 -1,-2 -1,-2 -1,-2 -1,-2 2,-1 1,2 1,2 2,-1 -1,-2 -1,-2 -1,-2 -1,-2 -2,1 1,2 -2,1 -2,1 1,2 1,2 -1,2 2,0 1,2 0,1 -2,0 1,2 -2,0 0,2 0,2 0,3 1,2 -1,2 0,2 0,2 1,2 -1,2 1,2 -1,1 -2,1 -2,-1 0,-2 2,-1 0,-2 -1,-2 0,-2 -2,-1 1,-2 2,-1 -2,-2 2,-1 -1,-2 0,-2 -1,-2 2,0 -1,-2 1,-1 0,-2 0,-2 -1,-2 -1,-2 1,-2 2,-1 0,-2 1,-1 3,-1 1,-1 1,-2 2,-1 1,1 0,2 -2,0 1,2 -1,1 2,2 0,2 2,1 2,-2 -2,-4 1,-3 2,-2 3,-1 2,-2 3,-1 -1,3 0,3 2,-1 2,-1 0,-2 0,-4 4,0 0,-3 2,-1 2,-1 0,-2 -3,0 -2,0 -1,2 -2,2 0,-4 -1,1 -2,1 -2,2 -4,0 1,-2 -1,-2 1,-2 2,2 1,-2 0,-2 3,1 1,-2 3,1 3,0 0,-3 4,0 -1,4 3,1 2,-2 2,-4 4,0 -1,-5 3,0 3,0 0,-2 -1,-2 1,-2 2,1 -1,-3 2,-1 0,-2 1,-2 -1,-1 1,-1 0,-2 0,-2 -2,1 -1,2 -2,1 -1,1 1,1 2,0 0,2 -1,1 -1,2 -2,0 0,2 -1,2 -3,-1 2,-1 0,-2 2,-2 0,-2 -2,0 -1,2 -1,-2 -2,1 1,2 0,1 -2,0 0,2 -2,3 -3,-1 -4,2 -1,-4 -2,1 -1,2 0,2 -1,1 -1,2 2,2 -3,1 -1,-2 -1,2 -1,2 -3,0 0,2 -2,0 -1,2 -1,2 1,2 -1,1 0,2 2,1 -1,2 -2,0 0,2 -1,2 -2,-1 0,-2"/>
    <path style="fill:none;stroke:#000000;stroke-width:1"
          d="m 91,120 0,-2 2,-1 -2,-1 -3,1 0,2 1,3 -3,1 -1,-2 0,-2 -1,-2 -2,3 1,3 1,2 -2,1 -2,1 -1,2 -1,2 -1,2 -1,2 -2,2 -1,2 -1,2 -2,1 0,2 0,2 -1,2 -3,0 1,2 0,3 1,3 2,-1 0,-3 1,-2 2,1 0,-3 1,-1 -1,-3 1,-1 1,-2 1,-2 1,-2 1,2 0,2 -1,2 -1,2 1,2 0,2 0,2 -1,2 -2,2 1,3 -3,1 -4,1 -3,1 -1,-3 1,-2 -1,-3 -2,1 -2,2 1,3 -2,2 -1,1 0,3 -2,-1 0,3 -1,2 -2,2 -1,1 -2,2 -3,1 -3,1 3,3 -1,2 3,1 2,2 1,-2 -1,-2 -1,-3 3,0 1,-2 2,-2 3,-1 2,-2 1,-1 0,-3 0,-2 1,-2 2,2 0,4 2,-1 3,-2 3,-1 2,-2 2,-1 1,2 -1,1 -1,2 0,3 -3,-1 -2,2 -3,1 -2,1 2,2 0,3 -3,-2 -1,2 -1,1 -4,-1 -3,1 -2,2 2,1 -1,2 0,2 -1,1 -3,0 0,2 -1,2 0,2 -1,2 0,2 0,2 0,2 -1,2 -2,1 -1,1 -3,0 1,2 -2,0 1,2 0,2 1,2 1,2 -2,1 -1,-2 -1,-2 -1,-2 0,-2 -1,-2 1,-2 2,-1 1,-1 2,0 2,-1 0,-2 0,-2 0,-2 1,-2 0,-2 -1,-2 2,0 0,-2 0,-2 -3,1 -3,1 0,-2 1,-2 -1,-3 -1,-3 -1,-3 3,-1 2,-2 3,-1 3,-3 0,-3 2,-3 3,-3 0,-3 1,-2 0,-3 -1,-4 -2,1 0,3 -2,1 0,3 0,3 -3,1 -2,1 -1,3 0,4 -4,-1 0,3 -2,2 -2,2 -2,-1 0,3 -2,-1 -2,1 -1,2 2,2 -1,1 -2,1 0,2 3,-1 0,2 -2,1 0,2 1,2 1,2 2,-1 -1,-2 0,-2 2,-1 0,-2 0,-2 -1,-2 0,-2 3,0 0,2 1,2 0,3 0,2 0,2 -2,0 1,2 -1,2 -2,1 -1,1 0,2 0,2 -2,1 -1,-2 0,-2 0,-2 -1,-2 -1,-2 -1,-2 0,-2 -1,-2 -2,0 0,2 0,2 1,2 1,2 1,2 0,2 -2,-1 -2,1 -1,-3 1,-1 -1,-2 -2,1 -3,0 -1,-2 1,-1 2,0 2,0 0,-2 0,-2 -1,-2 2,0 2,-1 2,1 1,-2 -2,-1 2,-1 1,-2 1,-2 2,-1 1,-2 1,-1 3,0 1,-2 -2,-1 -3,0 -2,1 -2,1 1,2 -2,1 -1,2 -2,2 -2,-1 1,-2 1,-1 1,-2 -2,-1 -2,1 -1,2 -2,-1 -2,1 -1,2 0,2 1,2 2,-1 0,-3 2,2 2,2 -2,1 -2,1 0,2 0,2 -1,1 -2,0 -1,2 -1,2 1,2 1,2 -1,2 -2,0 0,-2 -1,-2 -2,1 0,2 0,2 3,1 -2,1 -1,2 -1,2 1,2 2,-1 1,-1 0,-2 2,-1 1,-1 2,-1 0,-2 1,-2 2,1 1,2 -1,1 1,2 1,2 -1,2 0,2 -1,2 1,2 1,2 -1,2 1,2 -1,2 -2,1 -1,1 0,2 2,1 1,-2 2,-1 1,-2 1,-2 -1,-2 0,-2 0,-2 -1,-2 1,-2 2,1 1,-2 -3,-1 1,-2 -1,-2 1,-1 2,0 1,2 -1,2 3,0 0,2 -1,2 -1,2 -1,1 0,2 0,2 1,2 -1,2 0,2 -2,1 0,2 -2,0 -1,2 0,2 1,2 0,2 2,0 2,-2 -2,-1 0,-2 2,0 0,-3 2,-1 1,-2 0,-2 2,-1 2,0 -1,-2 -1,-2 -2,2 -1,-2 1,-2 1,-2 1,-2 1,-2 0,-2 2,0 0,-2 1,-2 0,-2 3,1 -1,-2 1,-2 1,-1 2,-1 1,2 0,2 -2,0 1,2"/>
    <path style="fill:none;stroke:#000000;stroke-width:1"
          d="m 43,194 0,2 0,2 -2,0 -1,-2 -1,2 0,2 -2,1 -1,2 -1,2 -1,2 2,0 0,2 1,2 1,2 1,2 1,2 0,2 0,2 0,2 -3,0 1,2 1,2 -1,1 1,1 -3,0 -3,0 0,-2 2,0 0,-2 -2,-1 0,-2 2,-1 2,0 0,-2 0,-2 -1,-2 -2,1 1,2 -2,1 -1,1 -2,1 0,2 1,2 -1,2 -1,1 1,1 -3,0 -3,0 -3,0 -1,-1 1,-1 0,-2 -1,-2 0,-2 -2,0 -2,1 0,2 2,1 -1,2 1,2 -3,0 0,-2 -1,-2 -1,-2 0,-2 2,-1 2,-1 -1,-2 0,-2 -1,-2 2,-2 1,2 2,-1 -1,-2 1,-2 -1,-2 -1,-2 1,-2 0,-2 1,-2 -1,-2 -1,2 -2,1 0,1 0,2 -1,2 -1,-2 -2,1 1,2 1,2 2,-1 1,2 -2,1 -1,2 -1,2 0,2 -1,1 -2,1 3,1 -2,1 -1,2 0,2 1,2 1,2 -1,1 1,1 -3,0 -1,-2 0,-2 -1,-2 -2,-1 0,2 -2,1 1,2 2,0 0,2 -3,0 -3,0"/>
  </g>
</svg>
