<?xml version="1.0" encoding="utf-8" standalone="no"?>
<!DOCTYPE svg PUBLIC "-//W3C//DTD SVG 1.1//EN"
  "http://www.w3.org/Graphics/SVG/1.1/DTD/svg11.dtd">
<!-- Created with matplotlib (https://matplotlib.org/) -->
<svg height="432pt" version="1.1" viewBox="0 0 1080 432" width="1080pt" xmlns="http://www.w3.org/2000/svg" xmlns:xlink="http://www.w3.org/1999/xlink">
 <defs>
  <style type="text/css">
*{stroke-linecap:butt;stroke-linejoin:round;}
  </style>
 </defs>
 <g id="figure_1">
  <g id="patch_1">
   <path d="M 0 432 
L 1080 432 
L 1080 0 
L 0 0 
z
" style="fill:#ffffff;"/>
  </g>
  <g id="axes_1">
   <g id="patch_2">
    <path d="M 135 378 
L 972 378 
L 972 51.84 
L 135 51.84 
z
" style="fill:#ffffff;"/>
   </g>
   <g id="matplotlib.axis_1"/>
   <g id="matplotlib.axis_2">
    <g id="ytick_1">
     <g id="line2d_1">
      <defs>
       <path d="M 0 0 
L -12 0 
" id="mce032cb997" style="stroke:#262626;stroke-width:2.5;"/>
      </defs>
      <g>
       <use style="fill:#262626;stroke:#262626;stroke-width:2.5;" x="135" xlink:href="#mce032cb997" y="378"/>
      </g>
     </g>
     <g id="text_1">
      <!-- 0% -->
      <defs>
       <path d="M 4.15625 35.296875 
Q 4.15625 48 6.765625 55.734375 
Q 9.375 63.484375 14.515625 67.671875 
Q 19.671875 71.875 27.484375 71.875 
Q 33.25 71.875 37.59375 69.546875 
Q 41.9375 67.234375 44.765625 62.859375 
Q 47.609375 58.5 49.21875 52.21875 
Q 50.828125 45.953125 50.828125 35.296875 
Q 50.828125 22.703125 48.234375 14.96875 
Q 45.65625 7.234375 40.5 3 
Q 35.359375 -1.21875 27.484375 -1.21875 
Q 17.140625 -1.21875 11.234375 6.203125 
Q 4.15625 15.140625 4.15625 35.296875 
z
M 13.1875 35.296875 
Q 13.1875 17.671875 17.3125 11.828125 
Q 21.4375 6 27.484375 6 
Q 33.546875 6 37.671875 11.859375 
Q 41.796875 17.71875 41.796875 35.296875 
Q 41.796875 52.984375 37.671875 58.78125 
Q 33.546875 64.59375 27.390625 64.59375 
Q 21.34375 64.59375 17.71875 59.46875 
Q 13.1875 52.9375 13.1875 35.296875 
z
" id="ArialMT-48"/>
       <path d="M 5.8125 54.390625 
Q 5.8125 62.0625 9.671875 67.421875 
Q 13.53125 72.796875 20.84375 72.796875 
Q 27.59375 72.796875 32 67.984375 
Q 36.421875 63.1875 36.421875 53.859375 
Q 36.421875 44.78125 31.953125 39.875 
Q 27.484375 34.96875 20.953125 34.96875 
Q 14.453125 34.96875 10.125 39.796875 
Q 5.8125 44.625 5.8125 54.390625 
z
M 21.09375 66.75 
Q 17.828125 66.75 15.65625 63.90625 
Q 13.484375 61.078125 13.484375 53.515625 
Q 13.484375 46.625 15.671875 43.8125 
Q 17.875 41.015625 21.09375 41.015625 
Q 24.421875 41.015625 26.59375 43.84375 
Q 28.765625 46.6875 28.765625 54.203125 
Q 28.765625 61.140625 26.5625 63.9375 
Q 24.359375 66.75 21.09375 66.75 
z
M 21.140625 -2.640625 
L 60.296875 72.796875 
L 67.4375 72.796875 
L 28.421875 -2.640625 
z
M 52.09375 16.796875 
Q 52.09375 24.515625 55.953125 29.859375 
Q 59.8125 35.203125 67.1875 35.203125 
Q 73.921875 35.203125 78.34375 30.390625 
Q 82.765625 25.59375 82.765625 16.265625 
Q 82.765625 7.171875 78.296875 2.265625 
Q 73.828125 -2.640625 67.234375 -2.640625 
Q 60.75 -2.640625 56.421875 2.21875 
Q 52.09375 7.078125 52.09375 16.796875 
z
M 67.4375 29.15625 
Q 64.109375 29.15625 61.9375 26.3125 
Q 59.765625 23.484375 59.765625 15.921875 
Q 59.765625 9.078125 61.953125 6.25 
Q 64.15625 3.421875 67.390625 3.421875 
Q 70.75 3.421875 72.921875 6.25 
Q 75.09375 9.078125 75.09375 16.609375 
Q 75.09375 23.53125 72.890625 26.34375 
Q 70.703125 29.15625 67.4375 29.15625 
z
" id="ArialMT-37"/>
      </defs>
      <g style="fill:#262626;" transform="translate(87.703125 385.873594)scale(0.22 -0.22)">
       <use xlink:href="#ArialMT-48"/>
       <use x="55.615234" xlink:href="#ArialMT-37"/>
      </g>
     </g>
    </g>
    <g id="ytick_2">
     <g id="line2d_2">
      <g>
       <use style="fill:#262626;stroke:#262626;stroke-width:2.5;" x="135" xlink:href="#mce032cb997" y="214.92"/>
      </g>
     </g>
     <g id="text_2">
      <!-- 50% -->
      <defs>
       <path d="M 4.15625 18.75 
L 13.375 19.53125 
Q 14.40625 12.796875 18.140625 9.390625 
Q 21.875 6 27.15625 6 
Q 33.5 6 37.890625 10.78125 
Q 42.28125 15.578125 42.28125 23.484375 
Q 42.28125 31 38.0625 35.34375 
Q 33.84375 39.703125 27 39.703125 
Q 22.75 39.703125 19.328125 37.765625 
Q 15.921875 35.84375 13.96875 32.765625 
L 5.71875 33.84375 
L 12.640625 70.609375 
L 48.25 70.609375 
L 48.25 62.203125 
L 19.671875 62.203125 
L 15.828125 42.96875 
Q 22.265625 47.46875 29.34375 47.46875 
Q 38.71875 47.46875 45.15625 40.96875 
Q 51.609375 34.46875 51.609375 24.265625 
Q 51.609375 14.546875 45.953125 7.46875 
Q 39.0625 -1.21875 27.15625 -1.21875 
Q 17.390625 -1.21875 11.203125 4.25 
Q 5.03125 9.71875 4.15625 18.75 
z
" id="ArialMT-53"/>
      </defs>
      <g style="fill:#262626;" transform="translate(75.469063 222.793594)scale(0.22 -0.22)">
       <use xlink:href="#ArialMT-53"/>
       <use x="55.615234" xlink:href="#ArialMT-48"/>
       <use x="111.230469" xlink:href="#ArialMT-37"/>
      </g>
     </g>
    </g>
    <g id="ytick_3">
     <g id="line2d_3">
      <g>
       <use style="fill:#262626;stroke:#262626;stroke-width:2.5;" x="135" xlink:href="#mce032cb997" y="51.84"/>
      </g>
     </g>
     <g id="text_3">
      <!-- 100% -->
      <defs>
       <path d="M 37.25 0 
L 28.46875 0 
L 28.46875 56 
Q 25.296875 52.984375 20.140625 49.953125 
Q 14.984375 46.921875 10.890625 45.40625 
L 10.890625 53.90625 
Q 18.265625 57.375 23.78125 62.296875 
Q 29.296875 67.234375 31.59375 71.875 
L 37.25 71.875 
z
" id="ArialMT-49"/>
      </defs>
      <g style="fill:#262626;" transform="translate(63.235 59.713594)scale(0.22 -0.22)">
       <use xlink:href="#ArialMT-49"/>
       <use x="55.615234" xlink:href="#ArialMT-48"/>
       <use x="111.230469" xlink:href="#ArialMT-48"/>
       <use x="166.845703" xlink:href="#ArialMT-37"/>
      </g>
     </g>
    </g>
   </g>
   <g id="patch_3">
    <path clip-path="url(#pf7587a248c)" d="M 135 378 
L 154.022727 378 
L 154.022727 186.141176 
L 135 186.141176 
z
" style="fill:#61bd4f;stroke:#ffffff;stroke-linejoin:miter;stroke-width:2;"/>
   </g>
   <g id="patch_4">
    <path clip-path="url(#pf7587a248c)" d="M 154.022727 378 
L 173.045455 378 
L 173.045455 231.790345 
L 154.022727 231.790345 
z
" style="fill:#61bd4f;stroke:#ffffff;stroke-linejoin:miter;stroke-width:2;"/>
   </g>
   <g id="patch_5">
    <path clip-path="url(#pf7587a248c)" d="M 173.045455 378 
L 192.068182 378 
L 192.068182 327.821538 
L 173.045455 327.821538 
z
" style="fill:#61bd4f;stroke:#ffffff;stroke-linejoin:miter;stroke-width:2;"/>
   </g>
   <g id="patch_6">
    <path clip-path="url(#pf7587a248c)" d="M 192.068182 378 
L 211.090909 378 
L 211.090909 291.663529 
L 192.068182 291.663529 
z
" style="fill:#61bd4f;stroke:#ffffff;stroke-linejoin:miter;stroke-width:2;"/>
   </g>
   <g id="patch_7">
    <path clip-path="url(#pf7587a248c)" d="M 211.090909 378 
L 230.113636 378 
L 230.113636 242.1 
L 211.090909 242.1 
z
" style="fill:#61bd4f;stroke:#ffffff;stroke-linejoin:miter;stroke-width:2;"/>
   </g>
   <g id="patch_8">
    <path clip-path="url(#pf7587a248c)" d="M 230.113636 378 
L 249.136364 378 
L 249.136364 296.46 
L 230.113636 296.46 
z
" style="fill:#61bd4f;stroke:#ffffff;stroke-linejoin:miter;stroke-width:2;"/>
   </g>
   <g id="patch_9">
    <path clip-path="url(#pf7587a248c)" d="M 249.136364 378 
L 268.159091 378 
L 268.159091 223.815273 
L 249.136364 223.815273 
z
" style="fill:#61bd4f;stroke:#ffffff;stroke-linejoin:miter;stroke-width:2;"/>
   </g>
   <g id="patch_10">
    <path clip-path="url(#pf7587a248c)" d="M 268.159091 378 
L 287.181818 378 
L 287.181818 182.304 
L 268.159091 182.304 
z
" style="fill:#61bd4f;stroke:#ffffff;stroke-linejoin:miter;stroke-width:2;"/>
   </g>
   <g id="patch_11">
    <path clip-path="url(#pf7587a248c)" d="M 287.181818 378 
L 306.204545 378 
L 306.204545 207.507273 
L 287.181818 207.507273 
z
" style="fill:#61bd4f;stroke:#ffffff;stroke-linejoin:miter;stroke-width:2;"/>
   </g>
   <g id="patch_12">
    <path clip-path="url(#pf7587a248c)" d="M 306.204545 378 
L 325.227273 378 
L 325.227273 136.925217 
L 306.204545 136.925217 
z
" style="fill:#61bd4f;stroke:#ffffff;stroke-linejoin:miter;stroke-width:2;"/>
   </g>
   <g id="patch_13">
    <path clip-path="url(#pf7587a248c)" d="M 325.227273 378 
L 344.25 378 
L 344.25 200.094545 
L 325.227273 200.094545 
z
" style="fill:#61bd4f;stroke:#ffffff;stroke-linejoin:miter;stroke-width:2;"/>
   </g>
   <g id="patch_14">
    <path clip-path="url(#pf7587a248c)" d="M 344.25 378 
L 363.272727 378 
L 363.272727 302.732308 
L 344.25 302.732308 
z
" style="fill:#61bd4f;stroke:#ffffff;stroke-linejoin:miter;stroke-width:2;"/>
   </g>
   <g id="patch_15">
    <path clip-path="url(#pf7587a248c)" d="M 363.272727 378 
L 382.295455 378 
L 382.295455 291.024 
L 363.272727 291.024 
z
" style="fill:#61bd4f;stroke:#ffffff;stroke-linejoin:miter;stroke-width:2;"/>
   </g>
   <g id="patch_16">
    <path clip-path="url(#pf7587a248c)" d="M 382.295455 378 
L 401.318182 378 
L 401.318182 247.536 
L 382.295455 247.536 
z
" style="fill:#61bd4f;stroke:#ffffff;stroke-linejoin:miter;stroke-width:2;"/>
   </g>
   <g id="patch_17">
    <path clip-path="url(#pf7587a248c)" d="M 401.318182 378 
L 420.340909 378 
L 420.340909 251.16 
L 401.318182 251.16 
z
" style="fill:#61bd4f;stroke:#ffffff;stroke-linejoin:miter;stroke-width:2;"/>
   </g>
   <g id="patch_18">
    <path clip-path="url(#pf7587a248c)" d="M 420.340909 378 
L 439.363636 378 
L 439.363636 234.105882 
L 420.340909 234.105882 
z
" style="fill:#61bd4f;stroke:#ffffff;stroke-linejoin:miter;stroke-width:2;"/>
   </g>
   <g id="patch_19">
    <path clip-path="url(#pf7587a248c)" d="M 439.363636 378 
L 458.386364 378 
L 458.386364 278.34 
L 439.363636 278.34 
z
" style="fill:#61bd4f;stroke:#ffffff;stroke-linejoin:miter;stroke-width:2;"/>
   </g>
   <g id="patch_20">
    <path clip-path="url(#pf7587a248c)" d="M 458.386364 378 
L 477.409091 378 
L 477.409091 257.571692 
L 458.386364 257.571692 
z
" style="fill:#61bd4f;stroke:#ffffff;stroke-linejoin:miter;stroke-width:2;"/>
   </g>
   <g id="patch_21">
    <path clip-path="url(#pf7587a248c)" d="M 477.409091 378 
L 496.431818 378 
L 496.431818 214.92 
L 477.409091 214.92 
z
" style="fill:#61bd4f;stroke:#ffffff;stroke-linejoin:miter;stroke-width:2;"/>
   </g>
   <g id="patch_22">
    <path clip-path="url(#pf7587a248c)" d="M 496.431818 378 
L 515.454545 378 
L 515.454545 288.024828 
L 496.431818 288.024828 
z
" style="fill:#61bd4f;stroke:#ffffff;stroke-linejoin:miter;stroke-width:2;"/>
   </g>
   <g id="patch_23">
    <path clip-path="url(#pf7587a248c)" d="M 515.454545 378 
L 534.477273 378 
L 534.477273 319.458462 
L 515.454545 319.458462 
z
" style="fill:#61bd4f;stroke:#ffffff;stroke-linejoin:miter;stroke-width:2;"/>
   </g>
   <g id="patch_24">
    <path clip-path="url(#pf7587a248c)" d="M 534.477273 378 
L 553.5 378 
L 553.5 211.954909 
L 534.477273 211.954909 
z
" style="fill:#61bd4f;stroke:#ffffff;stroke-linejoin:miter;stroke-width:2;"/>
   </g>
   <g id="patch_25">
    <path clip-path="url(#pf7587a248c)" d="M 553.5 378 
L 572.522727 378 
L 572.522727 293.829677 
L 553.5 293.829677 
z
" style="fill:#61bd4f;stroke:#ffffff;stroke-linejoin:miter;stroke-width:2;"/>
   </g>
   <g id="patch_26">
    <path clip-path="url(#pf7587a248c)" d="M 572.522727 378 
L 591.545455 378 
L 591.545455 225.1125 
L 572.522727 225.1125 
z
" style="fill:#61bd4f;stroke:#ffffff;stroke-linejoin:miter;stroke-width:2;"/>
   </g>
   <g id="patch_27">
    <path clip-path="url(#pf7587a248c)" d="M 591.545455 378 
L 610.568182 378 
L 610.568182 214.92 
L 591.545455 214.92 
z
" style="fill:#61bd4f;stroke:#ffffff;stroke-linejoin:miter;stroke-width:2;"/>
   </g>
   <g id="patch_28">
    <path clip-path="url(#pf7587a248c)" d="M 610.568182 378 
L 629.590909 378 
L 629.590909 314.715224 
L 610.568182 314.715224 
z
" style="fill:#61bd4f;stroke:#ffffff;stroke-linejoin:miter;stroke-width:2;"/>
   </g>
   <g id="patch_29">
    <path clip-path="url(#pf7587a248c)" d="M 629.590909 378 
L 648.613636 378 
L 648.613636 299.7216 
L 629.590909 299.7216 
z
" style="fill:#61bd4f;stroke:#ffffff;stroke-linejoin:miter;stroke-width:2;"/>
   </g>
   <g id="patch_30">
    <path clip-path="url(#pf7587a248c)" d="M 648.613636 378 
L 667.636364 378 
L 667.636364 196.8 
L 648.613636 196.8 
z
" style="fill:#61bd4f;stroke:#ffffff;stroke-linejoin:miter;stroke-width:2;"/>
   </g>
   <g id="patch_31">
    <path clip-path="url(#pf7587a248c)" d="M 667.636364 378 
L 686.659091 378 
L 686.659091 359.183077 
L 667.636364 359.183077 
z
" style="fill:#61bd4f;stroke:#ffffff;stroke-linejoin:miter;stroke-width:2;"/>
   </g>
   <g id="patch_32">
    <path clip-path="url(#pf7587a248c)" d="M 686.659091 378 
L 705.681818 378 
L 705.681818 281.634545 
L 686.659091 281.634545 
z
" style="fill:#61bd4f;stroke:#ffffff;stroke-linejoin:miter;stroke-width:2;"/>
   </g>
   <g id="patch_33">
    <path clip-path="url(#pf7587a248c)" d="M 705.681818 378 
L 724.704545 378 
L 724.704545 310.05 
L 705.681818 310.05 
z
" style="fill:#61bd4f;stroke:#ffffff;stroke-linejoin:miter;stroke-width:2;"/>
   </g>
   <g id="patch_34">
    <path clip-path="url(#pf7587a248c)" d="M 724.704545 378 
L 743.727273 378 
L 743.727273 251.744516 
L 724.704545 251.744516 
z
" style="fill:#61bd4f;stroke:#ffffff;stroke-linejoin:miter;stroke-width:2;"/>
   </g>
   <g id="patch_35">
    <path clip-path="url(#pf7587a248c)" d="M 743.727273 378 
L 762.75 378 
L 762.75 281.033514 
L 743.727273 281.033514 
z
" style="fill:#61bd4f;stroke:#ffffff;stroke-linejoin:miter;stroke-width:2;"/>
   </g>
   <g id="patch_36">
    <path clip-path="url(#pf7587a248c)" d="M 762.75 378 
L 781.772727 378 
L 781.772727 214.92 
L 762.75 214.92 
z
" style="fill:#61bd4f;stroke:#ffffff;stroke-linejoin:miter;stroke-width:2;"/>
   </g>
   <g id="patch_37">
    <path clip-path="url(#pf7587a248c)" d="M 781.772727 378 
L 800.795455 378 
L 800.795455 326.837647 
L 781.772727 326.837647 
z
" style="fill:#61bd4f;stroke:#ffffff;stroke-linejoin:miter;stroke-width:2;"/>
   </g>
   <g id="patch_38">
    <path clip-path="url(#pf7587a248c)" d="M 800.795455 378 
L 819.818182 378 
L 819.818182 282.87 
L 800.795455 282.87 
z
" style="fill:#61bd4f;stroke:#ffffff;stroke-linejoin:miter;stroke-width:2;"/>
   </g>
   <g id="patch_39">
    <path clip-path="url(#pf7587a248c)" d="M 819.818182 378 
L 838.840909 378 
L 838.840909 281.36 
L 819.818182 281.36 
z
" style="fill:#61bd4f;stroke:#ffffff;stroke-linejoin:miter;stroke-width:2;"/>
   </g>
   <g id="patch_40">
    <path clip-path="url(#pf7587a248c)" d="M 838.840909 378 
L 857.863636 378 
L 857.863636 225.329362 
L 838.840909 225.329362 
z
" style="fill:#61bd4f;stroke:#ffffff;stroke-linejoin:miter;stroke-width:2;"/>
   </g>
   <g id="patch_41">
    <path clip-path="url(#pf7587a248c)" d="M 857.863636 378 
L 876.886364 378 
L 876.886364 321.276522 
L 857.863636 321.276522 
z
" style="fill:#61bd4f;stroke:#ffffff;stroke-linejoin:miter;stroke-width:2;"/>
   </g>
   <g id="patch_42">
    <path clip-path="url(#pf7587a248c)" d="M 876.886364 378 
L 895.909091 378 
L 895.909091 283.308387 
L 876.886364 283.308387 
z
" style="fill:#61bd4f;stroke:#ffffff;stroke-linejoin:miter;stroke-width:2;"/>
   </g>
   <g id="patch_43">
    <path clip-path="url(#pf7587a248c)" d="M 895.909091 378 
L 914.931818 378 
L 914.931818 301.256471 
L 895.909091 301.256471 
z
" style="fill:#61bd4f;stroke:#ffffff;stroke-linejoin:miter;stroke-width:2;"/>
   </g>
   <g id="patch_44">
    <path clip-path="url(#pf7587a248c)" d="M 914.931818 378 
L 933.954545 378 
L 933.954545 331.405714 
L 914.931818 331.405714 
z
" style="fill:#61bd4f;stroke:#ffffff;stroke-linejoin:miter;stroke-width:2;"/>
   </g>
   <g id="patch_45">
    <path clip-path="url(#pf7587a248c)" d="M 933.954545 378 
L 952.977273 378 
L 952.977273 301.256471 
L 933.954545 301.256471 
z
" style="fill:#61bd4f;stroke:#ffffff;stroke-linejoin:miter;stroke-width:2;"/>
   </g>
   <g id="patch_46">
    <path clip-path="url(#pf7587a248c)" d="M 952.977273 378 
L 972 378 
L 972 340.366154 
L 952.977273 340.366154 
z
" style="fill:#61bd4f;stroke:#ffffff;stroke-linejoin:miter;stroke-width:2;"/>
   </g>
   <g id="patch_47">
    <path clip-path="url(#pf7587a248c)" d="M 135 186.141176 
L 154.022727 186.141176 
L 154.022727 80.618824 
L 135 80.618824 
z
" style="fill:#f2d600;stroke:#ffffff;stroke-linejoin:miter;stroke-width:2;"/>
   </g>
   <g id="patch_48">
    <path clip-path="url(#pf7587a248c)" d="M 154.022727 231.790345 
L 173.045455 231.790345 
L 173.045455 141.815172 
L 154.022727 141.815172 
z
" style="fill:#f2d600;stroke:#ffffff;stroke-linejoin:miter;stroke-width:2;"/>
   </g>
   <g id="patch_49">
    <path clip-path="url(#pf7587a248c)" d="M 173.045455 327.821538 
L 192.068182 327.821538 
L 192.068182 102.018462 
L 173.045455 102.018462 
z
" style="fill:#f2d600;stroke:#ffffff;stroke-linejoin:miter;stroke-width:2;"/>
   </g>
   <g id="patch_50">
    <path clip-path="url(#pf7587a248c)" d="M 192.068182 291.663529 
L 211.090909 291.663529 
L 211.090909 147.769412 
L 192.068182 147.769412 
z
" style="fill:#f2d600;stroke:#ffffff;stroke-linejoin:miter;stroke-width:2;"/>
   </g>
   <g id="patch_51">
    <path clip-path="url(#pf7587a248c)" d="M 211.090909 242.1 
L 230.113636 242.1 
L 230.113636 187.74 
L 211.090909 187.74 
z
" style="fill:#f2d600;stroke:#ffffff;stroke-linejoin:miter;stroke-width:2;"/>
   </g>
   <g id="patch_52">
    <path clip-path="url(#pf7587a248c)" d="M 230.113636 296.46 
L 249.136364 296.46 
L 249.136364 193.176 
L 230.113636 193.176 
z
" style="fill:#f2d600;stroke:#ffffff;stroke-linejoin:miter;stroke-width:2;"/>
   </g>
   <g id="patch_53">
    <path clip-path="url(#pf7587a248c)" d="M 249.136364 223.815273 
L 268.159091 223.815273 
L 268.159091 164.513455 
L 249.136364 164.513455 
z
" style="fill:#f2d600;stroke:#ffffff;stroke-linejoin:miter;stroke-width:2;"/>
   </g>
   <g id="patch_54">
    <path clip-path="url(#pf7587a248c)" d="M 268.159091 182.304 
L 287.181818 182.304 
L 287.181818 79.796571 
L 268.159091 79.796571 
z
" style="fill:#f2d600;stroke:#ffffff;stroke-linejoin:miter;stroke-width:2;"/>
   </g>
   <g id="patch_55">
    <path clip-path="url(#pf7587a248c)" d="M 287.181818 207.507273 
L 306.204545 207.507273 
L 306.204545 148.205455 
L 287.181818 148.205455 
z
" style="fill:#f2d600;stroke:#ffffff;stroke-linejoin:miter;stroke-width:2;"/>
   </g>
   <g id="patch_56">
    <path clip-path="url(#pf7587a248c)" d="M 306.204545 136.925217 
L 325.227273 136.925217 
L 325.227273 94.382609 
L 306.204545 94.382609 
z
" style="fill:#f2d600;stroke:#ffffff;stroke-linejoin:miter;stroke-width:2;"/>
   </g>
   <g id="patch_57">
    <path clip-path="url(#pf7587a248c)" d="M 325.227273 200.094545 
L 344.25 200.094545 
L 344.25 81.490909 
L 325.227273 81.490909 
z
" style="fill:#f2d600;stroke:#ffffff;stroke-linejoin:miter;stroke-width:2;"/>
   </g>
   <g id="patch_58">
    <path clip-path="url(#pf7587a248c)" d="M 344.25 302.732308 
L 363.272727 302.732308 
L 363.272727 93.655385 
L 344.25 93.655385 
z
" style="fill:#f2d600;stroke:#ffffff;stroke-linejoin:miter;stroke-width:2;"/>
   </g>
   <g id="patch_59">
    <path clip-path="url(#pf7587a248c)" d="M 363.272727 291.024 
L 382.295455 291.024 
L 382.295455 165.996 
L 363.272727 165.996 
z
" style="fill:#f2d600;stroke:#ffffff;stroke-linejoin:miter;stroke-width:2;"/>
   </g>
   <g id="patch_60">
    <path clip-path="url(#pf7587a248c)" d="M 382.295455 247.536 
L 401.318182 247.536 
L 401.318182 86.964923 
L 382.295455 86.964923 
z
" style="fill:#f2d600;stroke:#ffffff;stroke-linejoin:miter;stroke-width:2;"/>
   </g>
   <g id="patch_61">
    <path clip-path="url(#pf7587a248c)" d="M 401.318182 251.16 
L 420.340909 251.16 
L 420.340909 88.08 
L 401.318182 88.08 
z
" style="fill:#f2d600;stroke:#ffffff;stroke-linejoin:miter;stroke-width:2;"/>
   </g>
   <g id="patch_62">
    <path clip-path="url(#pf7587a248c)" d="M 420.340909 234.105882 
L 439.363636 234.105882 
L 439.363636 75.822353 
L 420.340909 75.822353 
z
" style="fill:#f2d600;stroke:#ffffff;stroke-linejoin:miter;stroke-width:2;"/>
   </g>
   <g id="patch_63">
    <path clip-path="url(#pf7587a248c)" d="M 439.363636 278.34 
L 458.386364 278.34 
L 458.386364 115.26 
L 439.363636 115.26 
z
" style="fill:#f2d600;stroke:#ffffff;stroke-linejoin:miter;stroke-width:2;"/>
   </g>
   <g id="patch_64">
    <path clip-path="url(#pf7587a248c)" d="M 458.386364 257.571692 
L 477.409091 257.571692 
L 477.409091 127.107692 
L 458.386364 127.107692 
z
" style="fill:#f2d600;stroke:#ffffff;stroke-linejoin:miter;stroke-width:2;"/>
   </g>
   <g id="patch_65">
    <path clip-path="url(#pf7587a248c)" d="M 477.409091 214.92 
L 496.431818 214.92 
L 496.431818 111.636 
L 477.409091 111.636 
z
" style="fill:#f2d600;stroke:#ffffff;stroke-linejoin:miter;stroke-width:2;"/>
   </g>
   <g id="patch_66">
    <path clip-path="url(#pf7587a248c)" d="M 496.431818 288.024828 
L 515.454545 288.024828 
L 515.454545 141.815172 
L 496.431818 141.815172 
z
" style="fill:#f2d600;stroke:#ffffff;stroke-linejoin:miter;stroke-width:2;"/>
   </g>
   <g id="patch_67">
    <path clip-path="url(#pf7587a248c)" d="M 515.454545 319.458462 
L 534.477273 319.458462 
L 534.477273 168.923077 
L 515.454545 168.923077 
z
" style="fill:#f2d600;stroke:#ffffff;stroke-linejoin:miter;stroke-width:2;"/>
   </g>
   <g id="patch_68">
    <path clip-path="url(#pf7587a248c)" d="M 534.477273 211.954909 
L 553.5 211.954909 
L 553.5 75.560727 
L 534.477273 75.560727 
z
" style="fill:#f2d600;stroke:#ffffff;stroke-linejoin:miter;stroke-width:2;"/>
   </g>
   <g id="patch_69">
    <path clip-path="url(#pf7587a248c)" d="M 553.5 293.829677 
L 572.522727 293.829677 
L 572.522727 136.010323 
L 553.5 136.010323 
z
" style="fill:#f2d600;stroke:#ffffff;stroke-linejoin:miter;stroke-width:2;"/>
   </g>
   <g id="patch_70">
    <path clip-path="url(#pf7587a248c)" d="M 572.522727 225.1125 
L 591.545455 225.1125 
L 591.545455 112.995 
L 572.522727 112.995 
z
" style="fill:#f2d600;stroke:#ffffff;stroke-linejoin:miter;stroke-width:2;"/>
   </g>
   <g id="patch_71">
    <path clip-path="url(#pf7587a248c)" d="M 591.545455 214.92 
L 610.568182 214.92 
L 610.568182 119.321379 
L 591.545455 119.321379 
z
" style="fill:#f2d600;stroke:#ffffff;stroke-linejoin:miter;stroke-width:2;"/>
   </g>
   <g id="patch_72">
    <path clip-path="url(#pf7587a248c)" d="M 610.568182 314.715224 
L 629.590909 314.715224 
L 629.590909 197.881791 
L 610.568182 197.881791 
z
" style="fill:#f2d600;stroke:#ffffff;stroke-linejoin:miter;stroke-width:2;"/>
   </g>
   <g id="patch_73">
    <path clip-path="url(#pf7587a248c)" d="M 629.590909 299.7216 
L 648.613636 299.7216 
L 648.613636 175.7808 
L 629.590909 175.7808 
z
" style="fill:#f2d600;stroke:#ffffff;stroke-linejoin:miter;stroke-width:2;"/>
   </g>
   <g id="patch_74">
    <path clip-path="url(#pf7587a248c)" d="M 648.613636 196.8 
L 667.636364 196.8 
L 667.636364 112.24 
L 648.613636 112.24 
z
" style="fill:#f2d600;stroke:#ffffff;stroke-linejoin:miter;stroke-width:2;"/>
   </g>
   <g id="patch_75">
    <path clip-path="url(#pf7587a248c)" d="M 667.636364 359.183077 
L 686.659091 359.183077 
L 686.659091 315.276923 
L 667.636364 315.276923 
z
" style="fill:#f2d600;stroke:#ffffff;stroke-linejoin:miter;stroke-width:2;"/>
   </g>
   <g id="patch_76">
    <path clip-path="url(#pf7587a248c)" d="M 686.659091 281.634545 
L 705.681818 281.634545 
L 705.681818 148.205455 
L 686.659091 148.205455 
z
" style="fill:#f2d600;stroke:#ffffff;stroke-linejoin:miter;stroke-width:2;"/>
   </g>
   <g id="patch_77">
    <path clip-path="url(#pf7587a248c)" d="M 705.681818 310.05 
L 724.704545 310.05 
L 724.704545 133.38 
L 705.681818 133.38 
z
" style="fill:#f2d600;stroke:#ffffff;stroke-linejoin:miter;stroke-width:2;"/>
   </g>
   <g id="patch_78">
    <path clip-path="url(#pf7587a248c)" d="M 724.704545 251.744516 
L 743.727273 251.744516 
L 743.727273 125.489032 
L 724.704545 125.489032 
z
" style="fill:#f2d600;stroke:#ffffff;stroke-linejoin:miter;stroke-width:2;"/>
   </g>
   <g id="patch_79">
    <path clip-path="url(#pf7587a248c)" d="M 743.727273 281.033514 
L 762.75 281.033514 
L 762.75 95.915676 
L 743.727273 95.915676 
z
" style="fill:#f2d600;stroke:#ffffff;stroke-linejoin:miter;stroke-width:2;"/>
   </g>
   <g id="patch_80">
    <path clip-path="url(#pf7587a248c)" d="M 762.75 214.92 
L 781.772727 214.92 
L 781.772727 90.9792 
L 762.75 90.9792 
z
" style="fill:#f2d600;stroke:#ffffff;stroke-linejoin:miter;stroke-width:2;"/>
   </g>
   <g id="patch_81">
    <path clip-path="url(#pf7587a248c)" d="M 781.772727 326.837647 
L 800.795455 326.837647 
L 800.795455 128.583529 
L 781.772727 128.583529 
z
" style="fill:#f2d600;stroke:#ffffff;stroke-linejoin:miter;stroke-width:2;"/>
   </g>
   <g id="patch_82">
    <path clip-path="url(#pf7587a248c)" d="M 800.795455 282.87 
L 819.818182 282.87 
L 819.818182 99.405 
L 800.795455 99.405 
z
" style="fill:#f2d600;stroke:#ffffff;stroke-linejoin:miter;stroke-width:2;"/>
   </g>
   <g id="patch_83">
    <path clip-path="url(#pf7587a248c)" d="M 819.818182 281.36 
L 838.840909 281.36 
L 838.840909 130.36 
L 819.818182 130.36 
z
" style="fill:#f2d600;stroke:#ffffff;stroke-linejoin:miter;stroke-width:2;"/>
   </g>
   <g id="patch_84">
    <path clip-path="url(#pf7587a248c)" d="M 838.840909 225.329362 
L 857.863636 225.329362 
L 857.863636 65.719149 
L 838.840909 65.719149 
z
" style="fill:#f2d600;stroke:#ffffff;stroke-linejoin:miter;stroke-width:2;"/>
   </g>
   <g id="patch_85">
    <path clip-path="url(#pf7587a248c)" d="M 857.863636 321.276522 
L 876.886364 321.276522 
L 876.886364 103.836522 
L 857.863636 103.836522 
z
" style="fill:#f2d600;stroke:#ffffff;stroke-linejoin:miter;stroke-width:2;"/>
   </g>
   <g id="patch_86">
    <path clip-path="url(#pf7587a248c)" d="M 876.886364 283.308387 
L 895.909091 283.308387 
L 895.909091 78.143226 
L 876.886364 78.143226 
z
" style="fill:#f2d600;stroke:#ffffff;stroke-linejoin:miter;stroke-width:2;"/>
   </g>
   <g id="patch_87">
    <path clip-path="url(#pf7587a248c)" d="M 895.909091 301.256471 
L 914.931818 301.256471 
L 914.931818 115.792941 
L 895.909091 115.792941 
z
" style="fill:#f2d600;stroke:#ffffff;stroke-linejoin:miter;stroke-width:2;"/>
   </g>
   <g id="patch_88">
    <path clip-path="url(#pf7587a248c)" d="M 914.931818 331.405714 
L 933.954545 331.405714 
L 933.954545 105.090612 
L 914.931818 105.090612 
z
" style="fill:#f2d600;stroke:#ffffff;stroke-linejoin:miter;stroke-width:2;"/>
   </g>
   <g id="patch_89">
    <path clip-path="url(#pf7587a248c)" d="M 933.954545 301.256471 
L 952.977273 301.256471 
L 952.977273 103.002353 
L 933.954545 103.002353 
z
" style="fill:#f2d600;stroke:#ffffff;stroke-linejoin:miter;stroke-width:2;"/>
   </g>
   <g id="patch_90">
    <path clip-path="url(#pf7587a248c)" d="M 952.977273 340.366154 
L 972 340.366154 
L 972 127.107692 
L 952.977273 127.107692 
z
" style="fill:#f2d600;stroke:#ffffff;stroke-linejoin:miter;stroke-width:2;"/>
   </g>
   <g id="patch_91">
    <path clip-path="url(#pf7587a248c)" d="M 135 80.618824 
L 154.022727 80.618824 
L 154.022727 61.432941 
L 135 61.432941 
z
" style="fill:#ffab4a;stroke:#ffffff;stroke-linejoin:miter;stroke-width:2;"/>
   </g>
   <g id="patch_92">
    <path clip-path="url(#pf7587a248c)" d="M 154.022727 141.815172 
L 173.045455 141.815172 
L 173.045455 96.827586 
L 154.022727 96.827586 
z
" style="fill:#ffab4a;stroke:#ffffff;stroke-linejoin:miter;stroke-width:2;"/>
   </g>
   <g id="patch_93">
    <path clip-path="url(#pf7587a248c)" d="M 173.045455 378 
L 192.068182 378 
L 192.068182 378 
L 173.045455 378 
z
" style="fill:#ffab4a;stroke:#ffffff;stroke-linejoin:miter;stroke-width:2;"/>
   </g>
   <g id="patch_94">
    <path clip-path="url(#pf7587a248c)" d="M 192.068182 147.769412 
L 211.090909 147.769412 
L 211.090909 71.025882 
L 192.068182 71.025882 
z
" style="fill:#ffab4a;stroke:#ffffff;stroke-linejoin:miter;stroke-width:2;"/>
   </g>
   <g id="patch_95">
    <path clip-path="url(#pf7587a248c)" d="M 211.090909 187.74 
L 230.113636 187.74 
L 230.113636 151.5 
L 211.090909 151.5 
z
" style="fill:#ffab4a;stroke:#ffffff;stroke-linejoin:miter;stroke-width:2;"/>
   </g>
   <g id="patch_96">
    <path clip-path="url(#pf7587a248c)" d="M 230.113636 193.176 
L 249.136364 193.176 
L 249.136364 160.56 
L 230.113636 160.56 
z
" style="fill:#ffab4a;stroke:#ffffff;stroke-linejoin:miter;stroke-width:2;"/>
   </g>
   <g id="patch_97">
    <path clip-path="url(#pf7587a248c)" d="M 249.136364 164.513455 
L 268.159091 164.513455 
L 268.159091 134.862545 
L 249.136364 134.862545 
z
" style="fill:#ffab4a;stroke:#ffffff;stroke-linejoin:miter;stroke-width:2;"/>
   </g>
   <g id="patch_98">
    <path clip-path="url(#pf7587a248c)" d="M 268.159091 79.796571 
L 287.181818 79.796571 
L 287.181818 61.158857 
L 268.159091 61.158857 
z
" style="fill:#ffab4a;stroke:#ffffff;stroke-linejoin:miter;stroke-width:2;"/>
   </g>
   <g id="patch_99">
    <path clip-path="url(#pf7587a248c)" d="M 287.181818 148.205455 
L 306.204545 148.205455 
L 306.204545 111.141818 
L 287.181818 111.141818 
z
" style="fill:#ffab4a;stroke:#ffffff;stroke-linejoin:miter;stroke-width:2;"/>
   </g>
   <g id="patch_100">
    <path clip-path="url(#pf7587a248c)" d="M 306.204545 94.382609 
L 325.227273 94.382609 
L 325.227273 87.292174 
L 306.204545 87.292174 
z
" style="fill:#ffab4a;stroke:#ffffff;stroke-linejoin:miter;stroke-width:2;"/>
   </g>
   <g id="patch_101">
    <path clip-path="url(#pf7587a248c)" d="M 325.227273 81.490909 
L 344.25 81.490909 
L 344.25 75.560727 
L 325.227273 75.560727 
z
" style="fill:#ffab4a;stroke:#ffffff;stroke-linejoin:miter;stroke-width:2;"/>
   </g>
   <g id="patch_102">
    <path clip-path="url(#pf7587a248c)" d="M 344.25 93.655385 
L 363.272727 93.655385 
L 363.272727 68.566154 
L 344.25 68.566154 
z
" style="fill:#ffab4a;stroke:#ffffff;stroke-linejoin:miter;stroke-width:2;"/>
   </g>
   <g id="patch_103">
    <path clip-path="url(#pf7587a248c)" d="M 363.272727 165.996 
L 382.295455 165.996 
L 382.295455 73.584 
L 363.272727 73.584 
z
" style="fill:#ffab4a;stroke:#ffffff;stroke-linejoin:miter;stroke-width:2;"/>
   </g>
   <g id="patch_104">
    <path clip-path="url(#pf7587a248c)" d="M 382.295455 86.964923 
L 401.318182 86.964923 
L 401.318182 76.929231 
L 382.295455 76.929231 
z
" style="fill:#ffab4a;stroke:#ffffff;stroke-linejoin:miter;stroke-width:2;"/>
   </g>
   <g id="patch_105">
    <path clip-path="url(#pf7587a248c)" d="M 401.318182 88.08 
L 420.340909 88.08 
L 420.340909 76 
L 401.318182 76 
z
" style="fill:#ffab4a;stroke:#ffffff;stroke-linejoin:miter;stroke-width:2;"/>
   </g>
   <g id="patch_106">
    <path clip-path="url(#pf7587a248c)" d="M 420.340909 75.822353 
L 439.363636 75.822353 
L 439.363636 71.025882 
L 420.340909 71.025882 
z
" style="fill:#ffab4a;stroke:#ffffff;stroke-linejoin:miter;stroke-width:2;"/>
   </g>
   <g id="patch_107">
    <path clip-path="url(#pf7587a248c)" d="M 439.363636 115.26 
L 458.386364 115.26 
L 458.386364 79.02 
L 439.363636 79.02 
z
" style="fill:#ffab4a;stroke:#ffffff;stroke-linejoin:miter;stroke-width:2;"/>
   </g>
   <g id="patch_108">
    <path clip-path="url(#pf7587a248c)" d="M 458.386364 127.107692 
L 477.409091 127.107692 
L 477.409091 61.875692 
L 458.386364 61.875692 
z
" style="fill:#ffab4a;stroke:#ffffff;stroke-linejoin:miter;stroke-width:2;"/>
   </g>
   <g id="patch_109">
    <path clip-path="url(#pf7587a248c)" d="M 477.409091 111.636 
L 496.431818 111.636 
L 496.431818 68.148 
L 477.409091 68.148 
z
" style="fill:#ffab4a;stroke:#ffffff;stroke-linejoin:miter;stroke-width:2;"/>
   </g>
   <g id="patch_110">
    <path clip-path="url(#pf7587a248c)" d="M 496.431818 141.815172 
L 515.454545 141.815172 
L 515.454545 108.074483 
L 496.431818 108.074483 
z
" style="fill:#ffab4a;stroke:#ffffff;stroke-linejoin:miter;stroke-width:2;"/>
   </g>
   <g id="patch_111">
    <path clip-path="url(#pf7587a248c)" d="M 515.454545 168.923077 
L 534.477273 168.923077 
L 534.477273 118.744615 
L 515.454545 118.744615 
z
" style="fill:#ffab4a;stroke:#ffffff;stroke-linejoin:miter;stroke-width:2;"/>
   </g>
   <g id="patch_112">
    <path clip-path="url(#pf7587a248c)" d="M 534.477273 75.560727 
L 553.5 75.560727 
L 553.5 51.84 
L 534.477273 51.84 
z
" style="fill:#ffab4a;stroke:#ffffff;stroke-linejoin:miter;stroke-width:2;"/>
   </g>
   <g id="patch_113">
    <path clip-path="url(#pf7587a248c)" d="M 553.5 136.010323 
L 572.522727 136.010323 
L 572.522727 99.185806 
L 553.5 99.185806 
z
" style="fill:#ffab4a;stroke:#ffffff;stroke-linejoin:miter;stroke-width:2;"/>
   </g>
   <g id="patch_114">
    <path clip-path="url(#pf7587a248c)" d="M 572.522727 112.995 
L 591.545455 112.995 
L 591.545455 97.70625 
L 572.522727 97.70625 
z
" style="fill:#ffab4a;stroke:#ffffff;stroke-linejoin:miter;stroke-width:2;"/>
   </g>
   <g id="patch_115">
    <path clip-path="url(#pf7587a248c)" d="M 591.545455 119.321379 
L 610.568182 119.321379 
L 610.568182 79.957241 
L 591.545455 79.957241 
z
" style="fill:#ffab4a;stroke:#ffffff;stroke-linejoin:miter;stroke-width:2;"/>
   </g>
   <g id="patch_116">
    <path clip-path="url(#pf7587a248c)" d="M 610.568182 197.881791 
L 629.590909 197.881791 
L 629.590909 105.388657 
L 610.568182 105.388657 
z
" style="fill:#ffab4a;stroke:#ffffff;stroke-linejoin:miter;stroke-width:2;"/>
   </g>
   <g id="patch_117">
    <path clip-path="url(#pf7587a248c)" d="M 629.590909 175.7808 
L 648.613636 175.7808 
L 648.613636 143.1648 
L 629.590909 143.1648 
z
" style="fill:#ffab4a;stroke:#ffffff;stroke-linejoin:miter;stroke-width:2;"/>
   </g>
   <g id="patch_118">
    <path clip-path="url(#pf7587a248c)" d="M 648.613636 112.24 
L 667.636364 112.24 
L 667.636364 76 
L 648.613636 76 
z
" style="fill:#ffab4a;stroke:#ffffff;stroke-linejoin:miter;stroke-width:2;"/>
   </g>
   <g id="patch_119">
    <path clip-path="url(#pf7587a248c)" d="M 667.636364 315.276923 
L 686.659091 315.276923 
L 686.659091 196.103077 
L 667.636364 196.103077 
z
" style="fill:#ffab4a;stroke:#ffffff;stroke-linejoin:miter;stroke-width:2;"/>
   </g>
   <g id="patch_120">
    <path clip-path="url(#pf7587a248c)" d="M 686.659091 148.205455 
L 705.681818 148.205455 
L 705.681818 66.665455 
L 686.659091 66.665455 
z
" style="fill:#ffab4a;stroke:#ffffff;stroke-linejoin:miter;stroke-width:2;"/>
   </g>
   <g id="patch_121">
    <path clip-path="url(#pf7587a248c)" d="M 705.681818 133.38 
L 724.704545 133.38 
L 724.704545 51.84 
L 705.681818 51.84 
z
" style="fill:#ffab4a;stroke:#ffffff;stroke-linejoin:miter;stroke-width:2;"/>
   </g>
   <g id="patch_122">
    <path clip-path="url(#pf7587a248c)" d="M 724.704545 125.489032 
L 743.727273 125.489032 
L 743.727273 62.36129 
L 724.704545 62.36129 
z
" style="fill:#ffab4a;stroke:#ffffff;stroke-linejoin:miter;stroke-width:2;"/>
   </g>
   <g id="patch_123">
    <path clip-path="url(#pf7587a248c)" d="M 743.727273 95.915676 
L 762.75 95.915676 
L 762.75 51.84 
L 743.727273 51.84 
z
" style="fill:#ffab4a;stroke:#ffffff;stroke-linejoin:miter;stroke-width:2;"/>
   </g>
   <g id="patch_124">
    <path clip-path="url(#pf7587a248c)" d="M 762.75 90.9792 
L 781.772727 90.9792 
L 781.772727 64.8864 
L 762.75 64.8864 
z
" style="fill:#ffab4a;stroke:#ffffff;stroke-linejoin:miter;stroke-width:2;"/>
   </g>
   <g id="patch_125">
    <path clip-path="url(#pf7587a248c)" d="M 781.772727 128.583529 
L 800.795455 128.583529 
L 800.795455 90.211765 
L 781.772727 90.211765 
z
" style="fill:#ffab4a;stroke:#ffffff;stroke-linejoin:miter;stroke-width:2;"/>
   </g>
   <g id="patch_126">
    <path clip-path="url(#pf7587a248c)" d="M 800.795455 99.405 
L 819.818182 99.405 
L 819.818182 72.225 
L 800.795455 72.225 
z
" style="fill:#ffab4a;stroke:#ffffff;stroke-linejoin:miter;stroke-width:2;"/>
   </g>
   <g id="patch_127">
    <path clip-path="url(#pf7587a248c)" d="M 819.818182 130.36 
L 838.840909 130.36 
L 838.840909 94.12 
L 819.818182 94.12 
z
" style="fill:#ffab4a;stroke:#ffffff;stroke-linejoin:miter;stroke-width:2;"/>
   </g>
   <g id="patch_128">
    <path clip-path="url(#pf7587a248c)" d="M 838.840909 378 
L 857.863636 378 
L 857.863636 378 
L 838.840909 378 
z
" style="fill:#ffab4a;stroke:#ffffff;stroke-linejoin:miter;stroke-width:2;"/>
   </g>
   <g id="patch_129">
    <path clip-path="url(#pf7587a248c)" d="M 857.863636 103.836522 
L 876.886364 103.836522 
L 876.886364 94.382609 
L 857.863636 94.382609 
z
" style="fill:#ffab4a;stroke:#ffffff;stroke-linejoin:miter;stroke-width:2;"/>
   </g>
   <g id="patch_130">
    <path clip-path="url(#pf7587a248c)" d="M 876.886364 78.143226 
L 895.909091 78.143226 
L 895.909091 67.621935 
L 876.886364 67.621935 
z
" style="fill:#ffab4a;stroke:#ffffff;stroke-linejoin:miter;stroke-width:2;"/>
   </g>
   <g id="patch_131">
    <path clip-path="url(#pf7587a248c)" d="M 895.909091 115.792941 
L 914.931818 115.792941 
L 914.931818 109.397647 
L 895.909091 109.397647 
z
" style="fill:#ffab4a;stroke:#ffffff;stroke-linejoin:miter;stroke-width:2;"/>
   </g>
   <g id="patch_132">
    <path clip-path="url(#pf7587a248c)" d="M 914.931818 105.090612 
L 933.954545 105.090612 
L 933.954545 71.80898 
L 914.931818 71.80898 
z
" style="fill:#ffab4a;stroke:#ffffff;stroke-linejoin:miter;stroke-width:2;"/>
   </g>
   <g id="patch_133">
    <path clip-path="url(#pf7587a248c)" d="M 933.954545 103.002353 
L 952.977273 103.002353 
L 952.977273 77.421176 
L 933.954545 77.421176 
z
" style="fill:#ffab4a;stroke:#ffffff;stroke-linejoin:miter;stroke-width:2;"/>
   </g>
   <g id="patch_134">
    <path clip-path="url(#pf7587a248c)" d="M 952.977273 127.107692 
L 972 127.107692 
L 972 102.018462 
L 952.977273 102.018462 
z
" style="fill:#ffab4a;stroke:#ffffff;stroke-linejoin:miter;stroke-width:2;"/>
   </g>
   <g id="patch_135">
    <path clip-path="url(#pf7587a248c)" d="M 135 378 
L 154.022727 378 
L 154.022727 378 
L 135 378 
z
" style="fill:#eb5a46;stroke:#ffffff;stroke-linejoin:miter;stroke-width:2;"/>
   </g>
   <g id="patch_136">
    <path clip-path="url(#pf7587a248c)" d="M 154.022727 378 
L 173.045455 378 
L 173.045455 378 
L 154.022727 378 
z
" style="fill:#eb5a46;stroke:#ffffff;stroke-linejoin:miter;stroke-width:2;"/>
   </g>
   <g id="patch_137">
    <path clip-path="url(#pf7587a248c)" d="M 173.045455 378 
L 192.068182 378 
L 192.068182 378 
L 173.045455 378 
z
" style="fill:#eb5a46;stroke:#ffffff;stroke-linejoin:miter;stroke-width:2;"/>
   </g>
   <g id="patch_138">
    <path clip-path="url(#pf7587a248c)" d="M 192.068182 378 
L 211.090909 378 
L 211.090909 378 
L 192.068182 378 
z
" style="fill:#eb5a46;stroke:#ffffff;stroke-linejoin:miter;stroke-width:2;"/>
   </g>
   <g id="patch_139">
    <path clip-path="url(#pf7587a248c)" d="M 211.090909 378 
L 230.113636 378 
L 230.113636 378 
L 211.090909 378 
z
" style="fill:#eb5a46;stroke:#ffffff;stroke-linejoin:miter;stroke-width:2;"/>
   </g>
   <g id="patch_140">
    <path clip-path="url(#pf7587a248c)" d="M 230.113636 378 
L 249.136364 378 
L 249.136364 378 
L 230.113636 378 
z
" style="fill:#eb5a46;stroke:#ffffff;stroke-linejoin:miter;stroke-width:2;"/>
   </g>
   <g id="patch_141">
    <path clip-path="url(#pf7587a248c)" d="M 249.136364 378 
L 268.159091 378 
L 268.159091 378 
L 249.136364 378 
z
" style="fill:#eb5a46;stroke:#ffffff;stroke-linejoin:miter;stroke-width:2;"/>
   </g>
   <g id="patch_142">
    <path clip-path="url(#pf7587a248c)" d="M 268.159091 378 
L 287.181818 378 
L 287.181818 378 
L 268.159091 378 
z
" style="fill:#eb5a46;stroke:#ffffff;stroke-linejoin:miter;stroke-width:2;"/>
   </g>
   <g id="patch_143">
    <path clip-path="url(#pf7587a248c)" d="M 287.181818 378 
L 306.204545 378 
L 306.204545 378 
L 287.181818 378 
z
" style="fill:#eb5a46;stroke:#ffffff;stroke-linejoin:miter;stroke-width:2;"/>
   </g>
   <g id="patch_144">
    <path clip-path="url(#pf7587a248c)" d="M 306.204545 378 
L 325.227273 378 
L 325.227273 378 
L 306.204545 378 
z
" style="fill:#eb5a46;stroke:#ffffff;stroke-linejoin:miter;stroke-width:2;"/>
   </g>
   <g id="patch_145">
    <path clip-path="url(#pf7587a248c)" d="M 325.227273 378 
L 344.25 378 
L 344.25 378 
L 325.227273 378 
z
" style="fill:#eb5a46;stroke:#ffffff;stroke-linejoin:miter;stroke-width:2;"/>
   </g>
   <g id="patch_146">
    <path clip-path="url(#pf7587a248c)" d="M 344.25 378 
L 363.272727 378 
L 363.272727 378 
L 344.25 378 
z
" style="fill:#eb5a46;stroke:#ffffff;stroke-linejoin:miter;stroke-width:2;"/>
   </g>
   <g id="patch_147">
    <path clip-path="url(#pf7587a248c)" d="M 363.272727 378 
L 382.295455 378 
L 382.295455 378 
L 363.272727 378 
z
" style="fill:#eb5a46;stroke:#ffffff;stroke-linejoin:miter;stroke-width:2;"/>
   </g>
   <g id="patch_148">
    <path clip-path="url(#pf7587a248c)" d="M 382.295455 378 
L 401.318182 378 
L 401.318182 378 
L 382.295455 378 
z
" style="fill:#eb5a46;stroke:#ffffff;stroke-linejoin:miter;stroke-width:2;"/>
   </g>
   <g id="patch_149">
    <path clip-path="url(#pf7587a248c)" d="M 401.318182 378 
L 420.340909 378 
L 420.340909 378 
L 401.318182 378 
z
" style="fill:#eb5a46;stroke:#ffffff;stroke-linejoin:miter;stroke-width:2;"/>
   </g>
   <g id="patch_150">
    <path clip-path="url(#pf7587a248c)" d="M 420.340909 378 
L 439.363636 378 
L 439.363636 378 
L 420.340909 378 
z
" style="fill:#eb5a46;stroke:#ffffff;stroke-linejoin:miter;stroke-width:2;"/>
   </g>
   <g id="patch_151">
    <path clip-path="url(#pf7587a248c)" d="M 439.363636 378 
L 458.386364 378 
L 458.386364 378 
L 439.363636 378 
z
" style="fill:#eb5a46;stroke:#ffffff;stroke-linejoin:miter;stroke-width:2;"/>
   </g>
   <g id="patch_152">
    <path clip-path="url(#pf7587a248c)" d="M 458.386364 378 
L 477.409091 378 
L 477.409091 378 
L 458.386364 378 
z
" style="fill:#eb5a46;stroke:#ffffff;stroke-linejoin:miter;stroke-width:2;"/>
   </g>
   <g id="patch_153">
    <path clip-path="url(#pf7587a248c)" d="M 477.409091 378 
L 496.431818 378 
L 496.431818 378 
L 477.409091 378 
z
" style="fill:#eb5a46;stroke:#ffffff;stroke-linejoin:miter;stroke-width:2;"/>
   </g>
   <g id="patch_154">
    <path clip-path="url(#pf7587a248c)" d="M 496.431818 108.074483 
L 515.454545 108.074483 
L 515.454545 74.333793 
L 496.431818 74.333793 
z
" style="fill:#eb5a46;stroke:#ffffff;stroke-linejoin:miter;stroke-width:2;"/>
   </g>
   <g id="patch_155">
    <path clip-path="url(#pf7587a248c)" d="M 515.454545 118.744615 
L 534.477273 118.744615 
L 534.477273 85.292308 
L 515.454545 85.292308 
z
" style="fill:#eb5a46;stroke:#ffffff;stroke-linejoin:miter;stroke-width:2;"/>
   </g>
   <g id="patch_156">
    <path clip-path="url(#pf7587a248c)" d="M 534.477273 378 
L 553.5 378 
L 553.5 378 
L 534.477273 378 
z
" style="fill:#eb5a46;stroke:#ffffff;stroke-linejoin:miter;stroke-width:2;"/>
   </g>
   <g id="patch_157">
    <path clip-path="url(#pf7587a248c)" d="M 553.5 378 
L 572.522727 378 
L 572.522727 378 
L 553.5 378 
z
" style="fill:#eb5a46;stroke:#ffffff;stroke-linejoin:miter;stroke-width:2;"/>
   </g>
   <g id="patch_158">
    <path clip-path="url(#pf7587a248c)" d="M 572.522727 378 
L 591.545455 378 
L 591.545455 378 
L 572.522727 378 
z
" style="fill:#eb5a46;stroke:#ffffff;stroke-linejoin:miter;stroke-width:2;"/>
   </g>
   <g id="patch_159">
    <path clip-path="url(#pf7587a248c)" d="M 591.545455 378 
L 610.568182 378 
L 610.568182 378 
L 591.545455 378 
z
" style="fill:#eb5a46;stroke:#ffffff;stroke-linejoin:miter;stroke-width:2;"/>
   </g>
   <g id="patch_160">
    <path clip-path="url(#pf7587a248c)" d="M 610.568182 378 
L 629.590909 378 
L 629.590909 378 
L 610.568182 378 
z
" style="fill:#eb5a46;stroke:#ffffff;stroke-linejoin:miter;stroke-width:2;"/>
   </g>
   <g id="patch_161">
    <path clip-path="url(#pf7587a248c)" d="M 629.590909 378 
L 648.613636 378 
L 648.613636 378 
L 629.590909 378 
z
" style="fill:#eb5a46;stroke:#ffffff;stroke-linejoin:miter;stroke-width:2;"/>
   </g>
   <g id="patch_162">
    <path clip-path="url(#pf7587a248c)" d="M 648.613636 378 
L 667.636364 378 
L 667.636364 378 
L 648.613636 378 
z
" style="fill:#eb5a46;stroke:#ffffff;stroke-linejoin:miter;stroke-width:2;"/>
   </g>
   <g id="patch_163">
    <path clip-path="url(#pf7587a248c)" d="M 667.636364 378 
L 686.659091 378 
L 686.659091 378 
L 667.636364 378 
z
" style="fill:#eb5a46;stroke:#ffffff;stroke-linejoin:miter;stroke-width:2;"/>
   </g>
   <g id="patch_164">
    <path clip-path="url(#pf7587a248c)" d="M 686.659091 378 
L 705.681818 378 
L 705.681818 378 
L 686.659091 378 
z
" style="fill:#eb5a46;stroke:#ffffff;stroke-linejoin:miter;stroke-width:2;"/>
   </g>
   <g id="patch_165">
    <path clip-path="url(#pf7587a248c)" d="M 705.681818 378 
L 724.704545 378 
L 724.704545 378 
L 705.681818 378 
z
" style="fill:#eb5a46;stroke:#ffffff;stroke-linejoin:miter;stroke-width:2;"/>
   </g>
   <g id="patch_166">
    <path clip-path="url(#pf7587a248c)" d="M 724.704545 378 
L 743.727273 378 
L 743.727273 378 
L 724.704545 378 
z
" style="fill:#eb5a46;stroke:#ffffff;stroke-linejoin:miter;stroke-width:2;"/>
   </g>
   <g id="patch_167">
    <path clip-path="url(#pf7587a248c)" d="M 743.727273 378 
L 762.75 378 
L 762.75 378 
L 743.727273 378 
z
" style="fill:#eb5a46;stroke:#ffffff;stroke-linejoin:miter;stroke-width:2;"/>
   </g>
   <g id="patch_168">
    <path clip-path="url(#pf7587a248c)" d="M 762.75 378 
L 781.772727 378 
L 781.772727 378 
L 762.75 378 
z
" style="fill:#eb5a46;stroke:#ffffff;stroke-linejoin:miter;stroke-width:2;"/>
   </g>
   <g id="patch_169">
    <path clip-path="url(#pf7587a248c)" d="M 781.772727 378 
L 800.795455 378 
L 800.795455 378 
L 781.772727 378 
z
" style="fill:#eb5a46;stroke:#ffffff;stroke-linejoin:miter;stroke-width:2;"/>
   </g>
   <g id="patch_170">
    <path clip-path="url(#pf7587a248c)" d="M 800.795455 378 
L 819.818182 378 
L 819.818182 378 
L 800.795455 378 
z
" style="fill:#eb5a46;stroke:#ffffff;stroke-linejoin:miter;stroke-width:2;"/>
   </g>
   <g id="patch_171">
    <path clip-path="url(#pf7587a248c)" d="M 819.818182 378 
L 838.840909 378 
L 838.840909 378 
L 819.818182 378 
z
" style="fill:#eb5a46;stroke:#ffffff;stroke-linejoin:miter;stroke-width:2;"/>
   </g>
   <g id="patch_172">
    <path clip-path="url(#pf7587a248c)" d="M 838.840909 378 
L 857.863636 378 
L 857.863636 378 
L 838.840909 378 
z
" style="fill:#eb5a46;stroke:#ffffff;stroke-linejoin:miter;stroke-width:2;"/>
   </g>
   <g id="patch_173">
    <path clip-path="url(#pf7587a248c)" d="M 857.863636 378 
L 876.886364 378 
L 876.886364 378 
L 857.863636 378 
z
" style="fill:#eb5a46;stroke:#ffffff;stroke-linejoin:miter;stroke-width:2;"/>
   </g>
   <g id="patch_174">
    <path clip-path="url(#pf7587a248c)" d="M 876.886364 378 
L 895.909091 378 
L 895.909091 378 
L 876.886364 378 
z
" style="fill:#eb5a46;stroke:#ffffff;stroke-linejoin:miter;stroke-width:2;"/>
   </g>
   <g id="patch_175">
    <path clip-path="url(#pf7587a248c)" d="M 895.909091 378 
L 914.931818 378 
L 914.931818 378 
L 895.909091 378 
z
" style="fill:#eb5a46;stroke:#ffffff;stroke-linejoin:miter;stroke-width:2;"/>
   </g>
   <g id="patch_176">
    <path clip-path="url(#pf7587a248c)" d="M 914.931818 378 
L 933.954545 378 
L 933.954545 378 
L 914.931818 378 
z
" style="fill:#eb5a46;stroke:#ffffff;stroke-linejoin:miter;stroke-width:2;"/>
   </g>
   <g id="patch_177">
    <path clip-path="url(#pf7587a248c)" d="M 933.954545 378 
L 952.977273 378 
L 952.977273 378 
L 933.954545 378 
z
" style="fill:#eb5a46;stroke:#ffffff;stroke-linejoin:miter;stroke-width:2;"/>
   </g>
   <g id="patch_178">
    <path clip-path="url(#pf7587a248c)" d="M 952.977273 378 
L 972 378 
L 972 378 
L 952.977273 378 
z
" style="fill:#eb5a46;stroke:#ffffff;stroke-linejoin:miter;stroke-width:2;"/>
   </g>
   <g id="patch_179">
    <path clip-path="url(#pf7587a248c)" d="M 135 378 
L 154.022727 378 
L 154.022727 378 
L 135 378 
z
" style="fill:#c377e0;stroke:#ffffff;stroke-linejoin:miter;stroke-width:2;"/>
   </g>
   <g id="patch_180">
    <path clip-path="url(#pf7587a248c)" d="M 154.022727 96.827586 
L 173.045455 96.827586 
L 173.045455 85.58069 
L 154.022727 85.58069 
z
" style="fill:#c377e0;stroke:#ffffff;stroke-linejoin:miter;stroke-width:2;"/>
   </g>
   <g id="patch_181">
    <path clip-path="url(#pf7587a248c)" d="M 173.045455 102.018462 
L 192.068182 102.018462 
L 192.068182 76.929231 
L 173.045455 76.929231 
z
" style="fill:#c377e0;stroke:#ffffff;stroke-linejoin:miter;stroke-width:2;"/>
   </g>
   <g id="patch_182">
    <path clip-path="url(#pf7587a248c)" d="M 192.068182 71.025882 
L 211.090909 71.025882 
L 211.090909 61.432941 
L 192.068182 61.432941 
z
" style="fill:#c377e0;stroke:#ffffff;stroke-linejoin:miter;stroke-width:2;"/>
   </g>
   <g id="patch_183">
    <path clip-path="url(#pf7587a248c)" d="M 211.090909 151.5 
L 230.113636 151.5 
L 230.113636 88.08 
L 211.090909 88.08 
z
" style="fill:#c377e0;stroke:#ffffff;stroke-linejoin:miter;stroke-width:2;"/>
   </g>
   <g id="patch_184">
    <path clip-path="url(#pf7587a248c)" d="M 230.113636 160.56 
L 249.136364 160.56 
L 249.136364 100.764 
L 230.113636 100.764 
z
" style="fill:#c377e0;stroke:#ffffff;stroke-linejoin:miter;stroke-width:2;"/>
   </g>
   <g id="patch_185">
    <path clip-path="url(#pf7587a248c)" d="M 249.136364 134.862545 
L 268.159091 134.862545 
L 268.159091 93.351273 
L 249.136364 93.351273 
z
" style="fill:#c377e0;stroke:#ffffff;stroke-linejoin:miter;stroke-width:2;"/>
   </g>
   <g id="patch_186">
    <path clip-path="url(#pf7587a248c)" d="M 268.159091 61.158857 
L 287.181818 61.158857 
L 287.181818 51.84 
L 268.159091 51.84 
z
" style="fill:#c377e0;stroke:#ffffff;stroke-linejoin:miter;stroke-width:2;"/>
   </g>
   <g id="patch_187">
    <path clip-path="url(#pf7587a248c)" d="M 287.181818 111.141818 
L 306.204545 111.141818 
L 306.204545 96.316364 
L 287.181818 96.316364 
z
" style="fill:#c377e0;stroke:#ffffff;stroke-linejoin:miter;stroke-width:2;"/>
   </g>
   <g id="patch_188">
    <path clip-path="url(#pf7587a248c)" d="M 306.204545 87.292174 
L 325.227273 87.292174 
L 325.227273 80.201739 
L 306.204545 80.201739 
z
" style="fill:#c377e0;stroke:#ffffff;stroke-linejoin:miter;stroke-width:2;"/>
   </g>
   <g id="patch_189">
    <path clip-path="url(#pf7587a248c)" d="M 325.227273 378 
L 344.25 378 
L 344.25 378 
L 325.227273 378 
z
" style="fill:#c377e0;stroke:#ffffff;stroke-linejoin:miter;stroke-width:2;"/>
   </g>
   <g id="patch_190">
    <path clip-path="url(#pf7587a248c)" d="M 344.25 68.566154 
L 363.272727 68.566154 
L 363.272727 60.203077 
L 344.25 60.203077 
z
" style="fill:#c377e0;stroke:#ffffff;stroke-linejoin:miter;stroke-width:2;"/>
   </g>
   <g id="patch_191">
    <path clip-path="url(#pf7587a248c)" d="M 363.272727 378 
L 382.295455 378 
L 382.295455 378 
L 363.272727 378 
z
" style="fill:#c377e0;stroke:#ffffff;stroke-linejoin:miter;stroke-width:2;"/>
   </g>
   <g id="patch_192">
    <path clip-path="url(#pf7587a248c)" d="M 382.295455 76.929231 
L 401.318182 76.929231 
L 401.318182 66.893538 
L 382.295455 66.893538 
z
" style="fill:#c377e0;stroke:#ffffff;stroke-linejoin:miter;stroke-width:2;"/>
   </g>
   <g id="patch_193">
    <path clip-path="url(#pf7587a248c)" d="M 401.318182 76 
L 420.340909 76 
L 420.340909 63.92 
L 401.318182 63.92 
z
" style="fill:#c377e0;stroke:#ffffff;stroke-linejoin:miter;stroke-width:2;"/>
   </g>
   <g id="patch_194">
    <path clip-path="url(#pf7587a248c)" d="M 420.340909 71.025882 
L 439.363636 71.025882 
L 439.363636 61.432941 
L 420.340909 61.432941 
z
" style="fill:#c377e0;stroke:#ffffff;stroke-linejoin:miter;stroke-width:2;"/>
   </g>
   <g id="patch_195">
    <path clip-path="url(#pf7587a248c)" d="M 439.363636 79.02 
L 458.386364 79.02 
L 458.386364 69.96 
L 439.363636 69.96 
z
" style="fill:#c377e0;stroke:#ffffff;stroke-linejoin:miter;stroke-width:2;"/>
   </g>
   <g id="patch_196">
    <path clip-path="url(#pf7587a248c)" d="M 458.386364 61.875692 
L 477.409091 61.875692 
L 477.409091 51.84 
L 458.386364 51.84 
z
" style="fill:#c377e0;stroke:#ffffff;stroke-linejoin:miter;stroke-width:2;"/>
   </g>
   <g id="patch_197">
    <path clip-path="url(#pf7587a248c)" d="M 477.409091 68.148 
L 496.431818 68.148 
L 496.431818 62.712 
L 477.409091 62.712 
z
" style="fill:#c377e0;stroke:#ffffff;stroke-linejoin:miter;stroke-width:2;"/>
   </g>
   <g id="patch_198">
    <path clip-path="url(#pf7587a248c)" d="M 496.431818 378 
L 515.454545 378 
L 515.454545 378 
L 496.431818 378 
z
" style="fill:#c377e0;stroke:#ffffff;stroke-linejoin:miter;stroke-width:2;"/>
   </g>
   <g id="patch_199">
    <path clip-path="url(#pf7587a248c)" d="M 515.454545 85.292308 
L 534.477273 85.292308 
L 534.477273 51.84 
L 515.454545 51.84 
z
" style="fill:#c377e0;stroke:#ffffff;stroke-linejoin:miter;stroke-width:2;"/>
   </g>
   <g id="patch_200">
    <path clip-path="url(#pf7587a248c)" d="M 534.477273 378 
L 553.5 378 
L 553.5 378 
L 534.477273 378 
z
" style="fill:#c377e0;stroke:#ffffff;stroke-linejoin:miter;stroke-width:2;"/>
   </g>
   <g id="patch_201">
    <path clip-path="url(#pf7587a248c)" d="M 553.5 99.185806 
L 572.522727 99.185806 
L 572.522727 67.621935 
L 553.5 67.621935 
z
" style="fill:#c377e0;stroke:#ffffff;stroke-linejoin:miter;stroke-width:2;"/>
   </g>
   <g id="patch_202">
    <path clip-path="url(#pf7587a248c)" d="M 572.522727 97.70625 
L 591.545455 97.70625 
L 591.545455 72.225 
L 572.522727 72.225 
z
" style="fill:#c377e0;stroke:#ffffff;stroke-linejoin:miter;stroke-width:2;"/>
   </g>
   <g id="patch_203">
    <path clip-path="url(#pf7587a248c)" d="M 591.545455 378 
L 610.568182 378 
L 610.568182 378 
L 591.545455 378 
z
" style="fill:#c377e0;stroke:#ffffff;stroke-linejoin:miter;stroke-width:2;"/>
   </g>
   <g id="patch_204">
    <path clip-path="url(#pf7587a248c)" d="M 610.568182 105.388657 
L 629.590909 105.388657 
L 629.590909 90.784478 
L 610.568182 90.784478 
z
" style="fill:#c377e0;stroke:#ffffff;stroke-linejoin:miter;stroke-width:2;"/>
   </g>
   <g id="patch_205">
    <path clip-path="url(#pf7587a248c)" d="M 629.590909 143.1648 
L 648.613636 143.1648 
L 648.613636 130.1184 
L 629.590909 130.1184 
z
" style="fill:#c377e0;stroke:#ffffff;stroke-linejoin:miter;stroke-width:2;"/>
   </g>
   <g id="patch_206">
    <path clip-path="url(#pf7587a248c)" d="M 648.613636 378 
L 667.636364 378 
L 667.636364 378 
L 648.613636 378 
z
" style="fill:#c377e0;stroke:#ffffff;stroke-linejoin:miter;stroke-width:2;"/>
   </g>
   <g id="patch_207">
    <path clip-path="url(#pf7587a248c)" d="M 667.636364 196.103077 
L 686.659091 196.103077 
L 686.659091 133.38 
L 667.636364 133.38 
z
" style="fill:#c377e0;stroke:#ffffff;stroke-linejoin:miter;stroke-width:2;"/>
   </g>
   <g id="patch_208">
    <path clip-path="url(#pf7587a248c)" d="M 686.659091 378 
L 705.681818 378 
L 705.681818 378 
L 686.659091 378 
z
" style="fill:#c377e0;stroke:#ffffff;stroke-linejoin:miter;stroke-width:2;"/>
   </g>
   <g id="patch_209">
    <path clip-path="url(#pf7587a248c)" d="M 705.681818 378 
L 724.704545 378 
L 724.704545 378 
L 705.681818 378 
z
" style="fill:#c377e0;stroke:#ffffff;stroke-linejoin:miter;stroke-width:2;"/>
   </g>
   <g id="patch_210">
    <path clip-path="url(#pf7587a248c)" d="M 724.704545 62.36129 
L 743.727273 62.36129 
L 743.727273 51.84 
L 724.704545 51.84 
z
" style="fill:#c377e0;stroke:#ffffff;stroke-linejoin:miter;stroke-width:2;"/>
   </g>
   <g id="patch_211">
    <path clip-path="url(#pf7587a248c)" d="M 743.727273 378 
L 762.75 378 
L 762.75 378 
L 743.727273 378 
z
" style="fill:#c377e0;stroke:#ffffff;stroke-linejoin:miter;stroke-width:2;"/>
   </g>
   <g id="patch_212">
    <path clip-path="url(#pf7587a248c)" d="M 762.75 64.8864 
L 781.772727 64.8864 
L 781.772727 58.3632 
L 762.75 58.3632 
z
" style="fill:#c377e0;stroke:#ffffff;stroke-linejoin:miter;stroke-width:2;"/>
   </g>
   <g id="patch_213">
    <path clip-path="url(#pf7587a248c)" d="M 781.772727 90.211765 
L 800.795455 90.211765 
L 800.795455 51.84 
L 781.772727 51.84 
z
" style="fill:#c377e0;stroke:#ffffff;stroke-linejoin:miter;stroke-width:2;"/>
   </g>
   <g id="patch_214">
    <path clip-path="url(#pf7587a248c)" d="M 800.795455 72.225 
L 819.818182 72.225 
L 819.818182 58.635 
L 800.795455 58.635 
z
" style="fill:#c377e0;stroke:#ffffff;stroke-linejoin:miter;stroke-width:2;"/>
   </g>
   <g id="patch_215">
    <path clip-path="url(#pf7587a248c)" d="M 819.818182 94.12 
L 838.840909 94.12 
L 838.840909 57.88 
L 819.818182 57.88 
z
" style="fill:#c377e0;stroke:#ffffff;stroke-linejoin:miter;stroke-width:2;"/>
   </g>
   <g id="patch_216">
    <path clip-path="url(#pf7587a248c)" d="M 838.840909 65.719149 
L 857.863636 65.719149 
L 857.863636 51.84 
L 838.840909 51.84 
z
" style="fill:#c377e0;stroke:#ffffff;stroke-linejoin:miter;stroke-width:2;"/>
   </g>
   <g id="patch_217">
    <path clip-path="url(#pf7587a248c)" d="M 857.863636 94.382609 
L 876.886364 94.382609 
L 876.886364 70.747826 
L 857.863636 70.747826 
z
" style="fill:#c377e0;stroke:#ffffff;stroke-linejoin:miter;stroke-width:2;"/>
   </g>
   <g id="patch_218">
    <path clip-path="url(#pf7587a248c)" d="M 876.886364 67.621935 
L 895.909091 67.621935 
L 895.909091 62.36129 
L 876.886364 62.36129 
z
" style="fill:#c377e0;stroke:#ffffff;stroke-linejoin:miter;stroke-width:2;"/>
   </g>
   <g id="patch_219">
    <path clip-path="url(#pf7587a248c)" d="M 895.909091 109.397647 
L 914.931818 109.397647 
L 914.931818 58.235294 
L 895.909091 58.235294 
z
" style="fill:#c377e0;stroke:#ffffff;stroke-linejoin:miter;stroke-width:2;"/>
   </g>
   <g id="patch_220">
    <path clip-path="url(#pf7587a248c)" d="M 914.931818 71.80898 
L 933.954545 71.80898 
L 933.954545 51.84 
L 914.931818 51.84 
z
" style="fill:#c377e0;stroke:#ffffff;stroke-linejoin:miter;stroke-width:2;"/>
   </g>
   <g id="patch_221">
    <path clip-path="url(#pf7587a248c)" d="M 933.954545 77.421176 
L 952.977273 77.421176 
L 952.977273 51.84 
L 933.954545 51.84 
z
" style="fill:#c377e0;stroke:#ffffff;stroke-linejoin:miter;stroke-width:2;"/>
   </g>
   <g id="patch_222">
    <path clip-path="url(#pf7587a248c)" d="M 952.977273 102.018462 
L 972 102.018462 
L 972 76.929231 
L 952.977273 76.929231 
z
" style="fill:#c377e0;stroke:#ffffff;stroke-linejoin:miter;stroke-width:2;"/>
   </g>
   <g id="patch_223">
    <path clip-path="url(#pf7587a248c)" d="M 135 61.432941 
L 154.022727 61.432941 
L 154.022727 51.84 
L 135 51.84 
z
" style="fill:#0079bf;stroke:#ffffff;stroke-linejoin:miter;stroke-width:2;"/>
   </g>
   <g id="patch_224">
    <path clip-path="url(#pf7587a248c)" d="M 154.022727 85.58069 
L 173.045455 85.58069 
L 173.045455 51.84 
L 154.022727 51.84 
z
" style="fill:#0079bf;stroke:#ffffff;stroke-linejoin:miter;stroke-width:2;"/>
   </g>
   <g id="patch_225">
    <path clip-path="url(#pf7587a248c)" d="M 173.045455 76.929231 
L 192.068182 76.929231 
L 192.068182 51.84 
L 173.045455 51.84 
z
" style="fill:#0079bf;stroke:#ffffff;stroke-linejoin:miter;stroke-width:2;"/>
   </g>
   <g id="patch_226">
    <path clip-path="url(#pf7587a248c)" d="M 192.068182 61.432941 
L 211.090909 61.432941 
L 211.090909 51.84 
L 192.068182 51.84 
z
" style="fill:#0079bf;stroke:#ffffff;stroke-linejoin:miter;stroke-width:2;"/>
   </g>
   <g id="patch_227">
    <path clip-path="url(#pf7587a248c)" d="M 211.090909 88.08 
L 230.113636 88.08 
L 230.113636 51.84 
L 211.090909 51.84 
z
" style="fill:#0079bf;stroke:#ffffff;stroke-linejoin:miter;stroke-width:2;"/>
   </g>
   <g id="patch_228">
    <path clip-path="url(#pf7587a248c)" d="M 230.113636 100.764 
L 249.136364 100.764 
L 249.136364 51.84 
L 230.113636 51.84 
z
" style="fill:#0079bf;stroke:#ffffff;stroke-linejoin:miter;stroke-width:2;"/>
   </g>
   <g id="patch_229">
    <path clip-path="url(#pf7587a248c)" d="M 249.136364 93.351273 
L 268.159091 93.351273 
L 268.159091 51.84 
L 249.136364 51.84 
z
" style="fill:#0079bf;stroke:#ffffff;stroke-linejoin:miter;stroke-width:2;"/>
   </g>
   <g id="patch_230">
    <path clip-path="url(#pf7587a248c)" d="M 268.159091 378 
L 287.181818 378 
L 287.181818 378 
L 268.159091 378 
z
" style="fill:#0079bf;stroke:#ffffff;stroke-linejoin:miter;stroke-width:2;"/>
   </g>
   <g id="patch_231">
    <path clip-path="url(#pf7587a248c)" d="M 287.181818 96.316364 
L 306.204545 96.316364 
L 306.204545 51.84 
L 287.181818 51.84 
z
" style="fill:#0079bf;stroke:#ffffff;stroke-linejoin:miter;stroke-width:2;"/>
   </g>
   <g id="patch_232">
    <path clip-path="url(#pf7587a248c)" d="M 306.204545 80.201739 
L 325.227273 80.201739 
L 325.227273 51.84 
L 306.204545 51.84 
z
" style="fill:#0079bf;stroke:#ffffff;stroke-linejoin:miter;stroke-width:2;"/>
   </g>
   <g id="patch_233">
    <path clip-path="url(#pf7587a248c)" d="M 325.227273 75.560727 
L 344.25 75.560727 
L 344.25 51.84 
L 325.227273 51.84 
z
" style="fill:#0079bf;stroke:#ffffff;stroke-linejoin:miter;stroke-width:2;"/>
   </g>
   <g id="patch_234">
    <path clip-path="url(#pf7587a248c)" d="M 344.25 60.203077 
L 363.272727 60.203077 
L 363.272727 51.84 
L 344.25 51.84 
z
" style="fill:#0079bf;stroke:#ffffff;stroke-linejoin:miter;stroke-width:2;"/>
   </g>
   <g id="patch_235">
    <path clip-path="url(#pf7587a248c)" d="M 363.272727 73.584 
L 382.295455 73.584 
L 382.295455 51.84 
L 363.272727 51.84 
z
" style="fill:#0079bf;stroke:#ffffff;stroke-linejoin:miter;stroke-width:2;"/>
   </g>
   <g id="patch_236">
    <path clip-path="url(#pf7587a248c)" d="M 382.295455 66.893538 
L 401.318182 66.893538 
L 401.318182 51.84 
L 382.295455 51.84 
z
" style="fill:#0079bf;stroke:#ffffff;stroke-linejoin:miter;stroke-width:2;"/>
   </g>
   <g id="patch_237">
    <path clip-path="url(#pf7587a248c)" d="M 401.318182 63.92 
L 420.340909 63.92 
L 420.340909 51.84 
L 401.318182 51.84 
z
" style="fill:#0079bf;stroke:#ffffff;stroke-linejoin:miter;stroke-width:2;"/>
   </g>
   <g id="patch_238">
    <path clip-path="url(#pf7587a248c)" d="M 420.340909 61.432941 
L 439.363636 61.432941 
L 439.363636 51.84 
L 420.340909 51.84 
z
" style="fill:#0079bf;stroke:#ffffff;stroke-linejoin:miter;stroke-width:2;"/>
   </g>
   <g id="patch_239">
    <path clip-path="url(#pf7587a248c)" d="M 439.363636 69.96 
L 458.386364 69.96 
L 458.386364 51.84 
L 439.363636 51.84 
z
" style="fill:#0079bf;stroke:#ffffff;stroke-linejoin:miter;stroke-width:2;"/>
   </g>
   <g id="patch_240">
    <path clip-path="url(#pf7587a248c)" d="M 458.386364 378 
L 477.409091 378 
L 477.409091 378 
L 458.386364 378 
z
" style="fill:#0079bf;stroke:#ffffff;stroke-linejoin:miter;stroke-width:2;"/>
   </g>
   <g id="patch_241">
    <path clip-path="url(#pf7587a248c)" d="M 477.409091 62.712 
L 496.431818 62.712 
L 496.431818 51.84 
L 477.409091 51.84 
z
" style="fill:#0079bf;stroke:#ffffff;stroke-linejoin:miter;stroke-width:2;"/>
   </g>
   <g id="patch_242">
    <path clip-path="url(#pf7587a248c)" d="M 496.431818 74.333793 
L 515.454545 74.333793 
L 515.454545 51.84 
L 496.431818 51.84 
z
" style="fill:#0079bf;stroke:#ffffff;stroke-linejoin:miter;stroke-width:2;"/>
   </g>
   <g id="patch_243">
    <path clip-path="url(#pf7587a248c)" d="M 515.454545 378 
L 534.477273 378 
L 534.477273 378 
L 515.454545 378 
z
" style="fill:#0079bf;stroke:#ffffff;stroke-linejoin:miter;stroke-width:2;"/>
   </g>
   <g id="patch_244">
    <path clip-path="url(#pf7587a248c)" d="M 534.477273 378 
L 553.5 378 
L 553.5 378 
L 534.477273 378 
z
" style="fill:#0079bf;stroke:#ffffff;stroke-linejoin:miter;stroke-width:2;"/>
   </g>
   <g id="patch_245">
    <path clip-path="url(#pf7587a248c)" d="M 553.5 67.621935 
L 572.522727 67.621935 
L 572.522727 51.84 
L 553.5 51.84 
z
" style="fill:#0079bf;stroke:#ffffff;stroke-linejoin:miter;stroke-width:2;"/>
   </g>
   <g id="patch_246">
    <path clip-path="url(#pf7587a248c)" d="M 572.522727 72.225 
L 591.545455 72.225 
L 591.545455 51.84 
L 572.522727 51.84 
z
" style="fill:#0079bf;stroke:#ffffff;stroke-linejoin:miter;stroke-width:2;"/>
   </g>
   <g id="patch_247">
    <path clip-path="url(#pf7587a248c)" d="M 591.545455 79.957241 
L 610.568182 79.957241 
L 610.568182 51.84 
L 591.545455 51.84 
z
" style="fill:#0079bf;stroke:#ffffff;stroke-linejoin:miter;stroke-width:2;"/>
   </g>
   <g id="patch_248">
    <path clip-path="url(#pf7587a248c)" d="M 610.568182 90.784478 
L 629.590909 90.784478 
L 629.590909 51.84 
L 610.568182 51.84 
z
" style="fill:#0079bf;stroke:#ffffff;stroke-linejoin:miter;stroke-width:2;"/>
   </g>
   <g id="patch_249">
    <path clip-path="url(#pf7587a248c)" d="M 629.590909 130.1184 
L 648.613636 130.1184 
L 648.613636 51.84 
L 629.590909 51.84 
z
" style="fill:#0079bf;stroke:#ffffff;stroke-linejoin:miter;stroke-width:2;"/>
   </g>
   <g id="patch_250">
    <path clip-path="url(#pf7587a248c)" d="M 648.613636 76 
L 667.636364 76 
L 667.636364 51.84 
L 648.613636 51.84 
z
" style="fill:#0079bf;stroke:#ffffff;stroke-linejoin:miter;stroke-width:2;"/>
   </g>
   <g id="patch_251">
    <path clip-path="url(#pf7587a248c)" d="M 667.636364 133.38 
L 686.659091 133.38 
L 686.659091 51.84 
L 667.636364 51.84 
z
" style="fill:#0079bf;stroke:#ffffff;stroke-linejoin:miter;stroke-width:2;"/>
   </g>
   <g id="patch_252">
    <path clip-path="url(#pf7587a248c)" d="M 686.659091 66.665455 
L 705.681818 66.665455 
L 705.681818 51.84 
L 686.659091 51.84 
z
" style="fill:#0079bf;stroke:#ffffff;stroke-linejoin:miter;stroke-width:2;"/>
   </g>
   <g id="patch_253">
    <path clip-path="url(#pf7587a248c)" d="M 705.681818 378 
L 724.704545 378 
L 724.704545 378 
L 705.681818 378 
z
" style="fill:#0079bf;stroke:#ffffff;stroke-linejoin:miter;stroke-width:2;"/>
   </g>
   <g id="patch_254">
    <path clip-path="url(#pf7587a248c)" d="M 724.704545 378 
L 743.727273 378 
L 743.727273 378 
L 724.704545 378 
z
" style="fill:#0079bf;stroke:#ffffff;stroke-linejoin:miter;stroke-width:2;"/>
   </g>
   <g id="patch_255">
    <path clip-path="url(#pf7587a248c)" d="M 743.727273 378 
L 762.75 378 
L 762.75 378 
L 743.727273 378 
z
" style="fill:#0079bf;stroke:#ffffff;stroke-linejoin:miter;stroke-width:2;"/>
   </g>
   <g id="patch_256">
    <path clip-path="url(#pf7587a248c)" d="M 762.75 58.3632 
L 781.772727 58.3632 
L 781.772727 51.84 
L 762.75 51.84 
z
" style="fill:#0079bf;stroke:#ffffff;stroke-linejoin:miter;stroke-width:2;"/>
   </g>
   <g id="patch_257">
    <path clip-path="url(#pf7587a248c)" d="M 781.772727 378 
L 800.795455 378 
L 800.795455 378 
L 781.772727 378 
z
" style="fill:#0079bf;stroke:#ffffff;stroke-linejoin:miter;stroke-width:2;"/>
   </g>
   <g id="patch_258">
    <path clip-path="url(#pf7587a248c)" d="M 800.795455 58.635 
L 819.818182 58.635 
L 819.818182 51.84 
L 800.795455 51.84 
z
" style="fill:#0079bf;stroke:#ffffff;stroke-linejoin:miter;stroke-width:2;"/>
   </g>
   <g id="patch_259">
    <path clip-path="url(#pf7587a248c)" d="M 819.818182 57.88 
L 838.840909 57.88 
L 838.840909 51.84 
L 819.818182 51.84 
z
" style="fill:#0079bf;stroke:#ffffff;stroke-linejoin:miter;stroke-width:2;"/>
   </g>
   <g id="patch_260">
    <path clip-path="url(#pf7587a248c)" d="M 838.840909 378 
L 857.863636 378 
L 857.863636 378 
L 838.840909 378 
z
" style="fill:#0079bf;stroke:#ffffff;stroke-linejoin:miter;stroke-width:2;"/>
   </g>
   <g id="patch_261">
    <path clip-path="url(#pf7587a248c)" d="M 857.863636 70.747826 
L 876.886364 70.747826 
L 876.886364 51.84 
L 857.863636 51.84 
z
" style="fill:#0079bf;stroke:#ffffff;stroke-linejoin:miter;stroke-width:2;"/>
   </g>
   <g id="patch_262">
    <path clip-path="url(#pf7587a248c)" d="M 876.886364 62.36129 
L 895.909091 62.36129 
L 895.909091 51.84 
L 876.886364 51.84 
z
" style="fill:#0079bf;stroke:#ffffff;stroke-linejoin:miter;stroke-width:2;"/>
   </g>
   <g id="patch_263">
    <path clip-path="url(#pf7587a248c)" d="M 895.909091 58.235294 
L 914.931818 58.235294 
L 914.931818 51.84 
L 895.909091 51.84 
z
" style="fill:#0079bf;stroke:#ffffff;stroke-linejoin:miter;stroke-width:2;"/>
   </g>
   <g id="patch_264">
    <path clip-path="url(#pf7587a248c)" d="M 914.931818 378 
L 933.954545 378 
L 933.954545 378 
L 914.931818 378 
z
" style="fill:#0079bf;stroke:#ffffff;stroke-linejoin:miter;stroke-width:2;"/>
   </g>
   <g id="patch_265">
    <path clip-path="url(#pf7587a248c)" d="M 933.954545 378 
L 952.977273 378 
L 952.977273 378 
L 933.954545 378 
z
" style="fill:#0079bf;stroke:#ffffff;stroke-linejoin:miter;stroke-width:2;"/>
   </g>
   <g id="patch_266">
    <path clip-path="url(#pf7587a248c)" d="M 952.977273 76.929231 
L 972 76.929231 
L 972 51.84 
L 952.977273 51.84 
z
" style="fill:#0079bf;stroke:#ffffff;stroke-linejoin:miter;stroke-width:2;"/>
   </g>
   <g id="line2d_4">
    <path clip-path="url(#pf7587a248c)" d="M 173.045455 378 
L 173.045455 51.84 
" style="fill:none;stroke:#1a1a1a;stroke-linecap:round;stroke-width:3;"/>
   </g>
   <g id="line2d_5">
    <path clip-path="url(#pf7587a248c)" d="M 268.159091 378 
L 268.159091 51.84 
" style="fill:none;stroke:#1a1a1a;stroke-linecap:round;stroke-width:3;"/>
   </g>
   <g id="line2d_6">
    <path clip-path="url(#pf7587a248c)" d="M 344.25 378 
L 344.25 51.84 
" style="fill:none;stroke:#1a1a1a;stroke-linecap:round;stroke-width:3;"/>
   </g>
   <g id="line2d_7">
    <path clip-path="url(#pf7587a248c)" d="M 439.363636 378 
L 439.363636 51.84 
" style="fill:none;stroke:#1a1a1a;stroke-linecap:round;stroke-width:3;"/>
   </g>
   <g id="line2d_8">
    <path clip-path="url(#pf7587a248c)" d="M 515.454545 378 
L 515.454545 51.84 
" style="fill:none;stroke:#1a1a1a;stroke-linecap:round;stroke-width:3;"/>
   </g>
   <g id="line2d_9">
    <path clip-path="url(#pf7587a248c)" d="M 591.545455 378 
L 591.545455 51.84 
" style="fill:none;stroke:#1a1a1a;stroke-linecap:round;stroke-width:3;"/>
   </g>
   <g id="line2d_10">
    <path clip-path="url(#pf7587a248c)" d="M 667.636364 378 
L 667.636364 51.84 
" style="fill:none;stroke:#1a1a1a;stroke-linecap:round;stroke-width:3;"/>
   </g>
   <g id="line2d_11">
    <path clip-path="url(#pf7587a248c)" d="M 724.704545 378 
L 724.704545 51.84 
" style="fill:none;stroke:#1a1a1a;stroke-linecap:round;stroke-width:3;"/>
   </g>
   <g id="line2d_12">
    <path clip-path="url(#pf7587a248c)" d="M 800.795455 378 
L 800.795455 51.84 
" style="fill:none;stroke:#1a1a1a;stroke-linecap:round;stroke-width:3;"/>
   </g>
   <g id="line2d_13">
    <path clip-path="url(#pf7587a248c)" d="M 895.909091 378 
L 895.909091 51.84 
" style="fill:none;stroke:#1a1a1a;stroke-linecap:round;stroke-width:3;"/>
   </g>
   <g id="patch_267">
    <path d="M 135 378 
L 135 51.84 
" style="fill:none;stroke:#262626;stroke-linecap:square;stroke-linejoin:miter;stroke-width:2.5;"/>
   </g>
   <g id="patch_268">
    <path d="M 972 378 
L 972 51.84 
" style="fill:none;stroke:#262626;stroke-linecap:square;stroke-linejoin:miter;stroke-width:2.5;"/>
   </g>
   <g id="patch_269">
    <path d="M 135 378 
L 972 378 
" style="fill:none;stroke:#262626;stroke-linecap:square;stroke-linejoin:miter;stroke-width:2.5;"/>
   </g>
   <g id="patch_270">
    <path d="M 135 51.84 
L 972 51.84 
" style="fill:none;stroke:#262626;stroke-linecap:square;stroke-linejoin:miter;stroke-width:2.5;"/>
   </g>
   <g id="text_4">
    <!-- Feb -->
    <defs>
     <path d="M 8.203125 0 
L 8.203125 71.578125 
L 56.5 71.578125 
L 56.5 63.140625 
L 17.671875 63.140625 
L 17.671875 40.96875 
L 51.265625 40.96875 
L 51.265625 32.515625 
L 17.671875 32.515625 
L 17.671875 0 
z
" id="ArialMT-70"/>
     <path d="M 42.09375 16.703125 
L 51.171875 15.578125 
Q 49.03125 7.625 43.21875 3.21875 
Q 37.40625 -1.171875 28.375 -1.171875 
Q 17 -1.171875 10.328125 5.828125 
Q 3.65625 12.84375 3.65625 25.484375 
Q 3.65625 38.578125 10.390625 45.796875 
Q 17.140625 53.03125 27.875 53.03125 
Q 38.28125 53.03125 44.875 45.953125 
Q 51.46875 38.875 51.46875 26.03125 
Q 51.46875 25.25 51.421875 23.6875 
L 12.75 23.6875 
Q 13.234375 15.140625 17.578125 10.59375 
Q 21.921875 6.0625 28.421875 6.0625 
Q 33.25 6.0625 36.671875 8.59375 
Q 40.09375 11.140625 42.09375 16.703125 
z
M 13.234375 30.90625 
L 42.1875 30.90625 
Q 41.609375 37.453125 38.875 40.71875 
Q 34.671875 45.796875 27.984375 45.796875 
Q 21.921875 45.796875 17.796875 41.75 
Q 13.671875 37.703125 13.234375 30.90625 
z
" id="ArialMT-101"/>
     <path d="M 14.703125 0 
L 6.546875 0 
L 6.546875 71.578125 
L 15.328125 71.578125 
L 15.328125 46.046875 
Q 20.90625 53.03125 29.546875 53.03125 
Q 34.328125 53.03125 38.59375 51.09375 
Q 42.875 49.171875 45.625 45.671875 
Q 48.390625 42.1875 49.953125 37.25 
Q 51.515625 32.328125 51.515625 26.703125 
Q 51.515625 13.375 44.921875 6.09375 
Q 38.328125 -1.171875 29.109375 -1.171875 
Q 19.921875 -1.171875 14.703125 6.5 
z
M 14.59375 26.3125 
Q 14.59375 17 17.140625 12.84375 
Q 21.296875 6.0625 28.375 6.0625 
Q 34.125 6.0625 38.328125 11.0625 
Q 42.53125 16.0625 42.53125 25.984375 
Q 42.53125 36.140625 38.5 40.96875 
Q 34.46875 45.796875 28.765625 45.796875 
Q 23 45.796875 18.796875 40.796875 
Q 14.59375 35.796875 14.59375 26.3125 
z
" id="ArialMT-98"/>
    </defs>
    <g style="fill:#262626;" transform="translate(135 397.5696)scale(0.2 -0.2)">
     <use xlink:href="#ArialMT-70"/>
     <use x="61.083984" xlink:href="#ArialMT-101"/>
     <use x="116.699219" xlink:href="#ArialMT-98"/>
    </g>
   </g>
   <g id="text_5">
    <!-- Mar -->
    <defs>
     <path d="M 7.421875 0 
L 7.421875 71.578125 
L 21.6875 71.578125 
L 38.625 20.90625 
Q 40.96875 13.8125 42.046875 10.296875 
Q 43.265625 14.203125 45.84375 21.78125 
L 62.984375 71.578125 
L 75.734375 71.578125 
L 75.734375 0 
L 66.609375 0 
L 66.609375 59.90625 
L 45.796875 0 
L 37.25 0 
L 16.546875 60.9375 
L 16.546875 0 
z
" id="ArialMT-77"/>
     <path d="M 40.4375 6.390625 
Q 35.546875 2.25 31.03125 0.53125 
Q 26.515625 -1.171875 21.34375 -1.171875 
Q 12.796875 -1.171875 8.203125 3 
Q 3.609375 7.171875 3.609375 13.671875 
Q 3.609375 17.484375 5.34375 20.625 
Q 7.078125 23.78125 9.890625 25.6875 
Q 12.703125 27.59375 16.21875 28.5625 
Q 18.796875 29.25 24.03125 29.890625 
Q 34.671875 31.15625 39.703125 32.90625 
Q 39.75 34.71875 39.75 35.203125 
Q 39.75 40.578125 37.25 42.78125 
Q 33.890625 45.75 27.25 45.75 
Q 21.046875 45.75 18.09375 43.578125 
Q 15.140625 41.40625 13.71875 35.890625 
L 5.125 37.0625 
Q 6.296875 42.578125 8.984375 45.96875 
Q 11.671875 49.359375 16.75 51.1875 
Q 21.828125 53.03125 28.515625 53.03125 
Q 35.15625 53.03125 39.296875 51.46875 
Q 43.453125 49.90625 45.40625 47.53125 
Q 47.359375 45.171875 48.140625 41.546875 
Q 48.578125 39.3125 48.578125 33.453125 
L 48.578125 21.734375 
Q 48.578125 9.46875 49.140625 6.21875 
Q 49.703125 2.984375 51.375 0 
L 42.1875 0 
Q 40.828125 2.734375 40.4375 6.390625 
z
M 39.703125 26.03125 
Q 34.90625 24.078125 25.34375 22.703125 
Q 19.921875 21.921875 17.671875 20.9375 
Q 15.4375 19.96875 14.203125 18.09375 
Q 12.984375 16.21875 12.984375 13.921875 
Q 12.984375 10.40625 15.640625 8.0625 
Q 18.3125 5.71875 23.4375 5.71875 
Q 28.515625 5.71875 32.46875 7.9375 
Q 36.421875 10.15625 38.28125 14.015625 
Q 39.703125 17 39.703125 22.796875 
z
" id="ArialMT-97"/>
     <path d="M 6.5 0 
L 6.5 51.859375 
L 14.40625 51.859375 
L 14.40625 44 
Q 17.4375 49.515625 20 51.265625 
Q 22.5625 53.03125 25.640625 53.03125 
Q 30.078125 53.03125 34.671875 50.203125 
L 31.640625 42.046875 
Q 28.421875 43.953125 25.203125 43.953125 
Q 22.3125 43.953125 20.015625 42.21875 
Q 17.71875 40.484375 16.75 37.40625 
Q 15.28125 32.71875 15.28125 27.15625 
L 15.28125 0 
z
" id="ArialMT-114"/>
    </defs>
    <g style="fill:#262626;" transform="translate(205.384091 397.5696)scale(0.2 -0.2)">
     <use xlink:href="#ArialMT-77"/>
     <use x="83.300781" xlink:href="#ArialMT-97"/>
     <use x="138.916016" xlink:href="#ArialMT-114"/>
    </g>
   </g>
   <g id="text_6">
    <!-- Apr -->
    <defs>
     <path d="M -0.140625 0 
L 27.34375 71.578125 
L 37.546875 71.578125 
L 66.84375 0 
L 56.0625 0 
L 47.703125 21.6875 
L 17.78125 21.6875 
L 9.90625 0 
z
M 20.515625 29.390625 
L 44.78125 29.390625 
L 37.3125 49.21875 
Q 33.890625 58.25 32.234375 64.0625 
Q 30.859375 57.171875 28.375 50.390625 
z
" id="ArialMT-65"/>
     <path d="M 6.59375 -19.875 
L 6.59375 51.859375 
L 14.59375 51.859375 
L 14.59375 45.125 
Q 17.4375 49.078125 21 51.046875 
Q 24.5625 53.03125 29.640625 53.03125 
Q 36.28125 53.03125 41.359375 49.609375 
Q 46.4375 46.1875 49.015625 39.953125 
Q 51.609375 33.734375 51.609375 26.3125 
Q 51.609375 18.359375 48.75 11.984375 
Q 45.90625 5.609375 40.453125 2.21875 
Q 35.015625 -1.171875 29 -1.171875 
Q 24.609375 -1.171875 21.109375 0.6875 
Q 17.625 2.546875 15.375 5.375 
L 15.375 -19.875 
z
M 14.546875 25.640625 
Q 14.546875 15.625 18.59375 10.84375 
Q 22.65625 6.0625 28.421875 6.0625 
Q 34.28125 6.0625 38.453125 11.015625 
Q 42.625 15.96875 42.625 26.375 
Q 42.625 36.28125 38.546875 41.203125 
Q 34.46875 46.140625 28.8125 46.140625 
Q 23.1875 46.140625 18.859375 40.890625 
Q 14.546875 35.640625 14.546875 25.640625 
z
" id="ArialMT-112"/>
    </defs>
    <g style="fill:#262626;" transform="translate(287.181818 397.5696)scale(0.2 -0.2)">
     <use xlink:href="#ArialMT-65"/>
     <use x="66.699219" xlink:href="#ArialMT-112"/>
     <use x="122.314453" xlink:href="#ArialMT-114"/>
    </g>
   </g>
   <g id="text_7">
    <!-- May -->
    <defs>
     <path d="M 6.203125 -19.96875 
L 5.21875 -11.71875 
Q 8.109375 -12.5 10.25 -12.5 
Q 13.1875 -12.5 14.9375 -11.515625 
Q 16.703125 -10.546875 17.828125 -8.796875 
Q 18.65625 -7.46875 20.515625 -2.25 
Q 20.75 -1.515625 21.296875 -0.09375 
L 1.609375 51.859375 
L 11.078125 51.859375 
L 21.875 21.828125 
Q 23.96875 16.109375 25.640625 9.8125 
Q 27.15625 15.875 29.25 21.625 
L 40.328125 51.859375 
L 49.125 51.859375 
L 29.390625 -0.875 
Q 26.21875 -9.421875 24.46875 -12.640625 
Q 22.125 -17 19.09375 -19.015625 
Q 16.0625 -21.046875 11.859375 -21.046875 
Q 9.328125 -21.046875 6.203125 -19.96875 
z
" id="ArialMT-121"/>
    </defs>
    <g style="fill:#262626;" transform="translate(374.686364 397.5696)scale(0.2 -0.2)">
     <use xlink:href="#ArialMT-77"/>
     <use x="83.300781" xlink:href="#ArialMT-97"/>
     <use x="138.916016" xlink:href="#ArialMT-121"/>
    </g>
   </g>
   <g id="text_8">
    <!-- Jun -->
    <defs>
     <path d="M 2.875 20.3125 
L 11.421875 21.484375 
Q 11.765625 13.28125 14.5 10.25 
Q 17.234375 7.234375 22.078125 7.234375 
Q 25.640625 7.234375 28.21875 8.859375 
Q 30.8125 10.5 31.78125 13.296875 
Q 32.765625 16.109375 32.765625 22.265625 
L 32.765625 71.578125 
L 42.234375 71.578125 
L 42.234375 22.796875 
Q 42.234375 13.8125 40.0625 8.875 
Q 37.890625 3.953125 33.171875 1.359375 
Q 28.46875 -1.21875 22.125 -1.21875 
Q 12.703125 -1.21875 7.6875 4.203125 
Q 2.6875 9.625 2.875 20.3125 
z
" id="ArialMT-74"/>
     <path d="M 40.578125 0 
L 40.578125 7.625 
Q 34.515625 -1.171875 24.125 -1.171875 
Q 19.53125 -1.171875 15.546875 0.578125 
Q 11.578125 2.34375 9.640625 5 
Q 7.71875 7.671875 6.9375 11.53125 
Q 6.390625 14.109375 6.390625 19.734375 
L 6.390625 51.859375 
L 15.1875 51.859375 
L 15.1875 23.09375 
Q 15.1875 16.21875 15.71875 13.8125 
Q 16.546875 10.359375 19.234375 8.375 
Q 21.921875 6.390625 25.875 6.390625 
Q 29.828125 6.390625 33.296875 8.421875 
Q 36.765625 10.453125 38.203125 13.9375 
Q 39.65625 17.4375 39.65625 24.078125 
L 39.65625 51.859375 
L 48.4375 51.859375 
L 48.4375 0 
z
" id="ArialMT-117"/>
     <path d="M 6.59375 0 
L 6.59375 51.859375 
L 14.5 51.859375 
L 14.5 44.484375 
Q 20.21875 53.03125 31 53.03125 
Q 35.6875 53.03125 39.625 51.34375 
Q 43.5625 49.65625 45.515625 46.921875 
Q 47.46875 44.1875 48.25 40.4375 
Q 48.734375 37.984375 48.734375 31.890625 
L 48.734375 0 
L 39.9375 0 
L 39.9375 31.546875 
Q 39.9375 36.921875 38.90625 39.578125 
Q 37.890625 42.234375 35.28125 43.8125 
Q 32.671875 45.40625 29.15625 45.40625 
Q 23.53125 45.40625 19.453125 41.84375 
Q 15.375 38.28125 15.375 28.328125 
L 15.375 0 
z
" id="ArialMT-110"/>
    </defs>
    <g style="fill:#262626;" transform="translate(462.190909 397.5696)scale(0.2 -0.2)">
     <use xlink:href="#ArialMT-74"/>
     <use x="50" xlink:href="#ArialMT-117"/>
     <use x="105.615234" xlink:href="#ArialMT-110"/>
    </g>
   </g>
   <g id="text_9">
    <!-- Jul -->
    <defs>
     <path d="M 6.390625 0 
L 6.390625 71.578125 
L 15.1875 71.578125 
L 15.1875 0 
z
" id="ArialMT-108"/>
    </defs>
    <g style="fill:#262626;" transform="translate(538.281818 397.5696)scale(0.2 -0.2)">
     <use xlink:href="#ArialMT-74"/>
     <use x="50" xlink:href="#ArialMT-117"/>
     <use x="105.615234" xlink:href="#ArialMT-108"/>
    </g>
   </g>
   <g id="text_10">
    <!-- Ago -->
    <defs>
     <path d="M 4.984375 -4.296875 
L 13.53125 -5.5625 
Q 14.0625 -9.515625 16.5 -11.328125 
Q 19.78125 -13.765625 25.4375 -13.765625 
Q 31.546875 -13.765625 34.859375 -11.328125 
Q 38.1875 -8.890625 39.359375 -4.5 
Q 40.046875 -1.8125 39.984375 6.78125 
Q 34.234375 0 25.640625 0 
Q 14.9375 0 9.078125 7.71875 
Q 3.21875 15.4375 3.21875 26.21875 
Q 3.21875 33.640625 5.90625 39.90625 
Q 8.59375 46.1875 13.6875 49.609375 
Q 18.796875 53.03125 25.6875 53.03125 
Q 34.859375 53.03125 40.828125 45.609375 
L 40.828125 51.859375 
L 48.921875 51.859375 
L 48.921875 7.03125 
Q 48.921875 -5.078125 46.453125 -10.125 
Q 44 -15.1875 38.640625 -18.109375 
Q 33.296875 -21.046875 25.484375 -21.046875 
Q 16.21875 -21.046875 10.5 -16.875 
Q 4.78125 -12.703125 4.984375 -4.296875 
z
M 12.25 26.859375 
Q 12.25 16.65625 16.296875 11.96875 
Q 20.359375 7.28125 26.46875 7.28125 
Q 32.515625 7.28125 36.609375 11.9375 
Q 40.71875 16.609375 40.71875 26.5625 
Q 40.71875 36.078125 36.5 40.90625 
Q 32.28125 45.75 26.3125 45.75 
Q 20.453125 45.75 16.34375 40.984375 
Q 12.25 36.234375 12.25 26.859375 
z
" id="ArialMT-103"/>
     <path d="M 3.328125 25.921875 
Q 3.328125 40.328125 11.328125 47.265625 
Q 18.015625 53.03125 27.640625 53.03125 
Q 38.328125 53.03125 45.109375 46.015625 
Q 51.90625 39.015625 51.90625 26.65625 
Q 51.90625 16.65625 48.90625 10.90625 
Q 45.90625 5.171875 40.15625 2 
Q 34.421875 -1.171875 27.640625 -1.171875 
Q 16.75 -1.171875 10.03125 5.8125 
Q 3.328125 12.796875 3.328125 25.921875 
z
M 12.359375 25.921875 
Q 12.359375 15.96875 16.703125 11.015625 
Q 21.046875 6.0625 27.640625 6.0625 
Q 34.1875 6.0625 38.53125 11.03125 
Q 42.875 16.015625 42.875 26.21875 
Q 42.875 35.84375 38.5 40.796875 
Q 34.125 45.75 27.640625 45.75 
Q 21.046875 45.75 16.703125 40.8125 
Q 12.359375 35.890625 12.359375 25.921875 
z
" id="ArialMT-111"/>
    </defs>
    <g style="fill:#262626;" transform="translate(610.568182 397.5696)scale(0.2 -0.2)">
     <use xlink:href="#ArialMT-65"/>
     <use x="66.699219" xlink:href="#ArialMT-103"/>
     <use x="122.314453" xlink:href="#ArialMT-111"/>
    </g>
   </g>
   <g id="text_11">
    <!-- Sep -->
    <defs>
     <path d="M 4.5 23 
L 13.421875 23.78125 
Q 14.0625 18.40625 16.375 14.96875 
Q 18.703125 11.53125 23.578125 9.40625 
Q 28.46875 7.28125 34.578125 7.28125 
Q 39.984375 7.28125 44.140625 8.890625 
Q 48.296875 10.5 50.3125 13.296875 
Q 52.34375 16.109375 52.34375 19.4375 
Q 52.34375 22.796875 50.390625 25.3125 
Q 48.4375 27.828125 43.953125 29.546875 
Q 41.0625 30.671875 31.203125 33.03125 
Q 21.34375 35.40625 17.390625 37.5 
Q 12.25 40.1875 9.734375 44.15625 
Q 7.234375 48.140625 7.234375 53.078125 
Q 7.234375 58.5 10.296875 63.203125 
Q 13.375 67.921875 19.28125 70.359375 
Q 25.203125 72.796875 32.421875 72.796875 
Q 40.375 72.796875 46.453125 70.234375 
Q 52.546875 67.671875 55.8125 62.6875 
Q 59.078125 57.71875 59.328125 51.421875 
L 50.25 50.734375 
Q 49.515625 57.515625 45.28125 60.984375 
Q 41.0625 64.453125 32.8125 64.453125 
Q 24.21875 64.453125 20.28125 61.296875 
Q 16.359375 58.15625 16.359375 53.71875 
Q 16.359375 49.859375 19.140625 47.359375 
Q 21.875 44.875 33.421875 42.265625 
Q 44.96875 39.65625 49.265625 37.703125 
Q 55.515625 34.8125 58.484375 30.390625 
Q 61.46875 25.984375 61.46875 20.21875 
Q 61.46875 14.5 58.203125 9.4375 
Q 54.9375 4.390625 48.796875 1.578125 
Q 42.671875 -1.21875 35.015625 -1.21875 
Q 25.296875 -1.21875 18.71875 1.609375 
Q 12.15625 4.4375 8.421875 10.125 
Q 4.6875 15.828125 4.5 23 
z
" id="ArialMT-83"/>
    </defs>
    <g style="fill:#262626;" transform="translate(677.147727 397.5696)scale(0.2 -0.2)">
     <use xlink:href="#ArialMT-83"/>
     <use x="66.699219" xlink:href="#ArialMT-101"/>
     <use x="122.314453" xlink:href="#ArialMT-112"/>
    </g>
   </g>
   <g id="text_12">
    <!-- Oct -->
    <defs>
     <path d="M 4.828125 34.859375 
Q 4.828125 52.6875 14.390625 62.765625 
Q 23.96875 72.859375 39.109375 72.859375 
Q 49.03125 72.859375 56.984375 68.109375 
Q 64.9375 63.375 69.109375 54.90625 
Q 73.296875 46.4375 73.296875 35.6875 
Q 73.296875 24.8125 68.890625 16.21875 
Q 64.5 7.625 56.4375 3.203125 
Q 48.390625 -1.21875 39.0625 -1.21875 
Q 28.953125 -1.21875 20.984375 3.65625 
Q 13.03125 8.546875 8.921875 16.984375 
Q 4.828125 25.4375 4.828125 34.859375 
z
M 14.59375 34.71875 
Q 14.59375 21.78125 21.546875 14.328125 
Q 28.515625 6.890625 39.015625 6.890625 
Q 49.703125 6.890625 56.609375 14.40625 
Q 63.53125 21.921875 63.53125 35.75 
Q 63.53125 44.484375 60.578125 51 
Q 57.625 57.515625 51.921875 61.109375 
Q 46.234375 64.703125 39.15625 64.703125 
Q 29.109375 64.703125 21.84375 57.78125 
Q 14.59375 50.875 14.59375 34.71875 
z
" id="ArialMT-79"/>
     <path d="M 40.4375 19 
L 49.078125 17.875 
Q 47.65625 8.9375 41.8125 3.875 
Q 35.984375 -1.171875 27.484375 -1.171875 
Q 16.84375 -1.171875 10.375 5.78125 
Q 3.90625 12.75 3.90625 25.734375 
Q 3.90625 34.125 6.6875 40.421875 
Q 9.46875 46.734375 15.15625 49.875 
Q 20.84375 53.03125 27.546875 53.03125 
Q 35.984375 53.03125 41.359375 48.75 
Q 46.734375 44.484375 48.25 36.625 
L 39.703125 35.296875 
Q 38.484375 40.53125 35.375 43.15625 
Q 32.28125 45.796875 27.875 45.796875 
Q 21.234375 45.796875 17.078125 41.03125 
Q 12.9375 36.28125 12.9375 25.984375 
Q 12.9375 15.53125 16.9375 10.796875 
Q 20.953125 6.0625 27.390625 6.0625 
Q 32.5625 6.0625 36.03125 9.234375 
Q 39.5 12.40625 40.4375 19 
z
" id="ArialMT-99"/>
     <path d="M 25.78125 7.859375 
L 27.046875 0.09375 
Q 23.34375 -0.6875 20.40625 -0.6875 
Q 15.625 -0.6875 12.984375 0.828125 
Q 10.359375 2.34375 9.28125 4.8125 
Q 8.203125 7.28125 8.203125 15.1875 
L 8.203125 45.015625 
L 1.765625 45.015625 
L 1.765625 51.859375 
L 8.203125 51.859375 
L 8.203125 64.703125 
L 16.9375 69.96875 
L 16.9375 51.859375 
L 25.78125 51.859375 
L 25.78125 45.015625 
L 16.9375 45.015625 
L 16.9375 14.703125 
Q 16.9375 10.9375 17.40625 9.859375 
Q 17.875 8.796875 18.921875 8.15625 
Q 19.96875 7.515625 21.921875 7.515625 
Q 23.390625 7.515625 25.78125 7.859375 
z
" id="ArialMT-116"/>
    </defs>
    <g style="fill:#262626;" transform="translate(743.727273 397.5696)scale(0.2 -0.2)">
     <use xlink:href="#ArialMT-79"/>
     <use x="77.783203" xlink:href="#ArialMT-99"/>
     <use x="127.783203" xlink:href="#ArialMT-116"/>
    </g>
   </g>
   <g id="text_13">
    <!-- Nov -->
    <defs>
     <path d="M 7.625 0 
L 7.625 71.578125 
L 17.328125 71.578125 
L 54.9375 15.375 
L 54.9375 71.578125 
L 64.015625 71.578125 
L 64.015625 0 
L 54.296875 0 
L 16.703125 56.25 
L 16.703125 0 
z
" id="ArialMT-78"/>
     <path d="M 21 0 
L 1.265625 51.859375 
L 10.546875 51.859375 
L 21.6875 20.796875 
Q 23.484375 15.765625 25 10.359375 
Q 26.171875 14.453125 28.265625 20.21875 
L 39.796875 51.859375 
L 48.828125 51.859375 
L 29.203125 0 
z
" id="ArialMT-118"/>
    </defs>
    <g style="fill:#262626;" transform="translate(831.231818 397.5696)scale(0.2 -0.2)">
     <use xlink:href="#ArialMT-78"/>
     <use x="72.216797" xlink:href="#ArialMT-111"/>
     <use x="127.832031" xlink:href="#ArialMT-118"/>
    </g>
   </g>
   <g id="text_14">
    <!-- Dec -->
    <defs>
     <path d="M 7.71875 0 
L 7.71875 71.578125 
L 32.375 71.578125 
Q 40.71875 71.578125 45.125 70.5625 
Q 51.265625 69.140625 55.609375 65.4375 
Q 61.28125 60.640625 64.078125 53.1875 
Q 66.890625 45.75 66.890625 36.1875 
Q 66.890625 28.03125 64.984375 21.734375 
Q 63.09375 15.4375 60.109375 11.296875 
Q 57.125 7.171875 53.578125 4.796875 
Q 50.046875 2.4375 45.046875 1.21875 
Q 40.046875 0 33.546875 0 
z
M 17.1875 8.453125 
L 32.46875 8.453125 
Q 39.546875 8.453125 43.578125 9.765625 
Q 47.609375 11.078125 50 13.484375 
Q 53.375 16.84375 55.25 22.53125 
Q 57.125 28.21875 57.125 36.328125 
Q 57.125 47.5625 53.4375 53.59375 
Q 49.75 59.625 44.484375 61.671875 
Q 40.671875 63.140625 32.234375 63.140625 
L 17.1875 63.140625 
z
" id="ArialMT-68"/>
    </defs>
    <g style="fill:#262626;" transform="translate(914.931818 397.5696)scale(0.2 -0.2)">
     <use xlink:href="#ArialMT-68"/>
     <use x="72.216797" xlink:href="#ArialMT-101"/>
     <use x="127.832031" xlink:href="#ArialMT-99"/>
    </g>
   </g>
  </g>
 </g>
 <defs>
  <clipPath id="pf7587a248c">
   <rect height="326.16" width="837" x="135" y="51.84"/>
  </clipPath>
 </defs>
</svg>
